SplineFontDB: 3.2
FontName: KoreeneSans-Regular
FullName: Koreene Sans Regular
FamilyName: Koreene Sans
Weight: Book
Copyright: (C) Copyright HanYang I&C Co.,Ltd. All rights reserved.
Version: 2.50; ttfautohint (v1.8.4.7-5d5b-dirty)
ItalicAngle: 0
UnderlinePosition: -122
UnderlineWidth: 45
Ascent: 819
Descent: 205
InvalidEm: 0
sfntRevision: 0x00020147
LayerCount: 2
Layer: 0 1 "Back" 1
Layer: 1 1 "Fore" 0
XUID: [1021 531 -1996577725 1197983]
StyleMap: 0x0040
FSType: 0
OS2Version: 4
OS2_WeightWidthSlopeOnly: 0
OS2_UseTypoMetrics: 1
CreationTime: 1068260456
ModificationTime: 1702473896
PfmFamily: 81
TTFWeight: 400
TTFWidth: 5
LineGap: 256
VLineGap: 0
Panose: 0 0 0 0 0 0 0 0 0 0
OS2TypoAscent: 970
OS2TypoAOffset: 0
OS2TypoDescent: -235
OS2TypoDOffset: 0
OS2TypoLinegap: 256
OS2WinAscent: 1098
OS2WinAOffset: 0
OS2WinDescent: 363
OS2WinDOffset: 0
HheadAscent: 970
HheadAOffset: 0
HheadDescent: -235
HheadDOffset: 0
OS2SubXSize: 205
OS2SubYSize: 205
OS2SubXOff: 0
OS2SubYOff: 287
OS2SupXSize: 205
OS2SupYSize: 205
OS2SupXOff: 0
OS2SupYOff: 963
OS2StrikeYSize: 102
OS2StrikeYPos: 512
OS2CapHeight: 735
OS2XHeight: 528
OS2Vendor: 'HY  '
OS2CodePages: 2000019f.00000000
OS2UnicodeRanges: e10002ff.4000001b.00000000.00000000
Lookup: 1 0 0 "'aalt' Access All Alternates lookup 0" { "'aalt' Access All Alternates lookup 0 subtable"  } ['aalt' ('DFLT' <'dflt' > 'cyrl' <'dflt' > 'grek' <'dflt' > 'hang' <'dflt' > 'jamo' <'dflt' > 'latn' <'dflt' > ) ]
Lookup: 3 0 0 "'aalt' Access All Alternates lookup 1" { "'aalt' Access All Alternates lookup 1 subtable"  } ['aalt' ('DFLT' <'dflt' > 'cyrl' <'dflt' > 'grek' <'dflt' > 'hang' <'dflt' > 'jamo' <'dflt' > 'latn' <'dflt' > ) ]
Lookup: 1 0 0 "'locl' Localized Forms in Latin lookup 2" { "'locl' Localized Forms in Latin lookup 2 subtable"  } ['locl' ('latn' <'MOL ' > ) ]
Lookup: 1 0 0 "'locl' Localized Forms in Latin lookup 3" { "'locl' Localized Forms in Latin lookup 3 subtable"  } ['locl' ('latn' <'ROM ' > ) ]

StartChar: exclam
Encoding: 33 33 4
Width: 310
GlyphClass: 2
Flags: W
LayerCount: 2
Fore
SplineSet
93 -10 m 1,0,-1
 93 103 l 1,1,-1
 217 103 l 1,2,-1
 217 -10 l 1,3,-1
 93 -10 l 1,0,-1
190 204 m 1,4,-1
 121 204 l 1,5,-1
 112 736 l 1,6,-1
 199 736 l 1,7,-1
 190 204 l 1,4,-1
EndSplineSet
EndChar

StartChar: quotedbl
Encoding: 34 34 5
Width: 488
GlyphClass: 2
Flags: W
LayerCount: 2
Fore
SplineSet
268 537 m 1,0,-1
 348 824 l 1,1,-1
 457 824 l 1,2,-1
 330 537 l 1,3,-1
 268 537 l 1,0,-1
67 537 m 1,4,-1
 147 824 l 1,5,-1
 256 824 l 1,6,-1
 129 537 l 1,7,-1
 67 537 l 1,4,-1
EndSplineSet
EndChar

StartChar: numbersign
Encoding: 35 35 6
Width: 708
GlyphClass: 2
Flags: W
LayerCount: 2
Fore
SplineSet
48 202 m 1,0,-1
 48 261 l 1,1,-1
 176 261 l 1,2,-1
 202 453 l 1,3,-1
 79 453 l 1,4,-1
 79 511 l 1,5,-1
 210 511 l 1,6,-1
 236 710 l 1,7,-1
 305 710 l 1,8,-1
 279 511 l 1,9,-1
 473 511 l 1,10,-1
 499 710 l 1,11,-1
 568 710 l 1,12,-1
 542 511 l 1,13,-1
 661 511 l 1,14,-1
 661 453 l 1,15,-1
 534 453 l 1,16,-1
 509 261 l 1,17,-1
 630 261 l 1,18,-1
 630 202 l 1,19,-1
 501 202 l 1,20,-1
 475 2 l 1,21,-1
 403 2 l 1,22,-1
 431 202 l 1,23,-1
 238 202 l 1,24,-1
 212 2 l 1,25,-1
 140 2 l 1,26,-1
 168 202 l 1,27,-1
 48 202 l 1,0,-1
246 261 m 1,28,-1
 439 261 l 1,29,-1
 465 453 l 1,30,-1
 271 453 l 1,31,-1
 246 261 l 1,28,-1
EndSplineSet
EndChar

StartChar: dollar
Encoding: 36 36 7
Width: 587
GlyphClass: 2
Flags: W
LayerCount: 2
Fore
SplineSet
62 134 m 1,0,-1
 121 164 l 1,1,2
 150 119 150 119 198.5 92 c 128,-1,3
 247 65 247 65 296 65 c 0,4,5
 359 65 359 65 401 96 c 128,-1,6
 443 127 443 127 443 189 c 0,7,8
 443 208 443 208 438 224 c 128,-1,9
 433 240 433 240 426.5 252 c 128,-1,10
 420 264 420 264 405.5 276.5 c 128,-1,11
 391 289 391 289 381 296 c 128,-1,12
 371 303 371 303 347.5 315 c 128,-1,13
 324 327 324 327 312 332 c 128,-1,14
 300 337 300 337 269.5 349 c 128,-1,15
 239 361 239 361 227 367 c 0,16,17
 154 398 154 398 117 440.5 c 128,-1,18
 80 483 80 483 80 552 c 0,19,20
 80 617 80 617 128 669.5 c 128,-1,21
 176 722 176 722 259 731 c 1,22,-1
 259 813 l 1,23,-1
 331 813 l 1,24,-1
 331 730 l 1,25,26
 385 727 385 727 433.5 692.5 c 128,-1,27
 482 658 482 658 500 616 c 1,28,-1
 442 588 l 1,29,30
 384 670 384 670 294 670 c 0,31,32
 232 670 232 670 195 636.5 c 128,-1,33
 158 603 158 603 158 551 c 0,34,35
 158 521 158 521 169.5 498.5 c 128,-1,36
 181 476 181 476 210.5 456.5 c 128,-1,37
 240 437 240 437 262.5 427 c 128,-1,38
 285 417 285 417 337 395 c 0,39,40
 377 380 377 380 404 365 c 128,-1,41
 431 350 431 350 461 326.5 c 128,-1,42
 491 303 491 303 506 270 c 128,-1,43
 521 237 521 237 521 196 c 0,44,45
 521 110 521 110 467 60 c 128,-1,46
 413 10 413 10 331 1 c 1,47,-1
 331 -76 l 1,48,-1
 259 -76 l 1,49,-1
 259 3 l 1,50,51
 202 7 202 7 146.5 42.5 c 128,-1,52
 91 78 91 78 62 134 c 1,0,-1
EndSplineSet
EndChar

StartChar: percent
Encoding: 37 37 8
Width: 972
GlyphClass: 2
Flags: W
LayerCount: 2
Fore
SplineSet
527 160 m 0,0,1
 527 238 527 238 580 287.5 c 128,-1,2
 633 337 633 337 714 337 c 0,3,4
 796 337 796 337 849 287.5 c 128,-1,5
 902 238 902 238 902 160 c 0,6,7
 902 80 902 80 848.5 31 c 128,-1,8
 795 -18 795 -18 714 -18 c 0,9,10
 634 -18 634 -18 580.5 31.5 c 128,-1,11
 527 81 527 81 527 160 c 0,0,1
600 160 m 256,12,13
 600 107 600 107 633.5 75 c 128,-1,14
 667 43 667 43 714 43 c 256,15,16
 761 43 761 43 795 75.5 c 128,-1,17
 829 108 829 108 829 160 c 0,18,19
 829 213 829 213 796 244.5 c 128,-1,20
 763 276 763 276 714 276 c 0,21,22
 666 276 666 276 633 244.5 c 128,-1,23
 600 213 600 213 600 160 c 256,12,13
71 576 m 0,24,25
 71 655 71 655 124 704 c 128,-1,26
 177 753 177 753 258 753 c 0,27,28
 340 753 340 753 393 704 c 128,-1,29
 446 655 446 655 446 576 c 0,30,31
 446 498 446 498 392.5 448.5 c 128,-1,32
 339 399 339 399 258 399 c 0,33,34
 178 399 178 399 124.5 448.5 c 128,-1,35
 71 498 71 498 71 576 c 0,24,25
143 576 m 256,36,37
 143 523 143 523 177 491 c 128,-1,38
 211 459 211 459 258 459 c 256,39,40
 305 459 305 459 339 491.5 c 128,-1,41
 373 524 373 524 373 576 c 0,42,43
 373 629 373 629 340 661 c 128,-1,44
 307 693 307 693 258 693 c 0,45,46
 211 693 211 693 177 661 c 128,-1,47
 143 629 143 629 143 576 c 256,36,37
183 0 m 1,48,-1
 709 735 l 1,49,-1
 789 735 l 1,50,-1
 261 0 l 1,51,-1
 183 0 l 1,48,-1
EndSplineSet
EndChar

StartChar: ampersand
Encoding: 38 38 9
Width: 641
GlyphClass: 2
Flags: W
LayerCount: 2
Fore
SplineSet
138 185 m 256,0,1
 138 122 138 122 180 84.5 c 128,-1,2
 222 47 222 47 288 47 c 0,3,4
 377 47 377 47 449 134 c 1,5,-1
 268 381 l 1,6,7
 210 341 210 341 174 294.5 c 128,-1,8
 138 248 138 248 138 185 c 256,0,1
60 184 m 0,9,10
 60 330 60 330 228 436 c 1,11,12
 225 441 225 441 218 449 c 0,13,14
 193 484 193 484 183 500.5 c 128,-1,15
 173 517 173 517 164 541.5 c 128,-1,16
 155 566 155 566 155 594 c 0,17,18
 155 656 155 656 202.5 700.5 c 128,-1,19
 250 745 250 745 336 745 c 0,20,21
 466 745 466 745 527 621 c 1,22,-1
 467 595 l 1,23,24
 449 629 449 629 414.5 655 c 128,-1,25
 380 681 380 681 341 681 c 0,26,27
 290 681 290 681 262 655 c 128,-1,28
 234 629 234 629 234 591 c 0,29,30
 234 551 234 551 291.5 464.5 c 128,-1,31
 349 378 349 378 489 196 c 1,32,33
 519 257 519 257 534 340 c 1,34,-1
 604 327 l 1,35,36
 588 221 588 221 538 134 c 1,37,-1
 641 0 l 1,38,-1
 551 0 l 1,39,-1
 493 76 l 1,40,41
 406 -18 406 -18 285 -18 c 0,42,43
 178 -18 178 -18 119 40 c 128,-1,44
 60 98 60 98 60 184 c 0,9,10
EndSplineSet
EndChar

StartChar: quotesingle
Encoding: 39 39 10
Width: 301
GlyphClass: 2
Flags: W
LayerCount: 2
Fore
SplineSet
77 537 m 1,0,-1
 157 824 l 1,1,-1
 266 824 l 1,2,-1
 138 537 l 1,3,-1
 77 537 l 1,0,-1
EndSplineSet
EndChar

StartChar: parenleft
Encoding: 40 40 11
Width: 446
GlyphClass: 2
Flags: W
LayerCount: 2
Fore
SplineSet
150 352 m 0,0,1
 150 636 150 636 321 852 c 1,2,-1
 376 821 l 1,3,4
 345 774 345 774 334.5 756.5 c 128,-1,5
 324 739 324 739 297.5 686.5 c 128,-1,6
 271 634 271 634 259.5 593.5 c 128,-1,7
 248 553 248 553 237.5 488 c 128,-1,8
 227 423 227 423 227 352 c 0,9,10
 227 266 227 266 239 194 c 128,-1,11
 251 122 251 122 277.5 61.5 c 128,-1,12
 304 1 304 1 322.5 -32 c 128,-1,13
 341 -65 341 -65 376 -117 c 1,14,-1
 321 -147 l 1,15,16
 245 -49 245 -49 197.5 69 c 128,-1,17
 150 187 150 187 150 352 c 0,0,1
EndSplineSet
Substitution2: "'sups' Superscript lookup 5 subtable" uni207D
Substitution2: "'aalt' Access All Alternates lookup 0 subtable" uni207D
EndChar

StartChar: parenright
Encoding: 41 41 12
Width: 446
GlyphClass: 2
Flags: W
LayerCount: 2
Fore
SplineSet
70 -117 m 1,0,1
 143 -9 143 -9 181 97 c 128,-1,2
 219 203 219 203 219 352 c 0,3,4
 219 437 219 437 207 507.5 c 128,-1,5
 195 578 195 578 169.5 638 c 128,-1,6
 144 698 144 698 124.5 733 c 128,-1,7
 105 768 105 768 70 821 c 1,8,-1
 125 852 l 1,9,10
 295 635 295 635 295 352 c 0,11,12
 295 189 295 189 248 70.5 c 128,-1,13
 201 -48 201 -48 125 -147 c 1,14,-1
 70 -117 l 1,0,1
EndSplineSet
Substitution2: "'sups' Superscript lookup 5 subtable" uni207E
Substitution2: "'aalt' Access All Alternates lookup 0 subtable" uni207E
EndChar

StartChar: asterisk
Encoding: 42 42 13
Width: 558
GlyphClass: 2
Flags: W
LayerCount: 2
Fore
SplineSet
24 417 m 1,0,-1
 51 480 l 1,1,-1
 249 403 l 1,2,-1
 241 600 l 1,3,-1
 316 600 l 1,4,-1
 308 403 l 1,5,-1
 506 480 l 1,6,-1
 534 417 l 1,7,-1
 328 344 l 1,8,-1
 481 175 l 1,9,-1
 424 132 l 1,10,-1
 279 312 l 1,11,-1
 133 132 l 1,12,-1
 77 175 l 1,13,-1
 230 344 l 1,14,-1
 24 417 l 1,0,-1
EndSplineSet
EndChar

StartChar: plus
Encoding: 43 43 14
Width: 558
GlyphClass: 2
Flags: W
LayerCount: 2
Fore
SplineSet
27 331 m 1,0,-1
 27 397 l 1,1,-1
 241 397 l 1,2,-1
 241 608 l 1,3,-1
 316 608 l 1,4,-1
 316 397 l 1,5,-1
 530 397 l 1,6,-1
 530 331 l 1,7,-1
 316 331 l 1,8,-1
 316 112 l 1,9,-1
 241 112 l 1,10,-1
 241 331 l 1,11,-1
 27 331 l 1,0,-1
EndSplineSet
Substitution2: "'sups' Superscript lookup 5 subtable" uni207A
Substitution2: "'aalt' Access All Alternates lookup 0 subtable" uni207A
EndChar

StartChar: comma
Encoding: 44 44 15
Width: 275
GlyphClass: 2
Flags: W
LayerCount: 2
Fore
SplineSet
14 -171 m 1,0,-1
 95 117 l 1,1,-1
 203 117 l 1,2,-1
 76 -171 l 1,3,-1
 14 -171 l 1,0,-1
EndSplineSet
EndChar

StartChar: hyphen
Encoding: 45 45 16
Width: 391
GlyphClass: 2
Flags: W
LayerCount: 2
Fore
SplineSet
33 331 m 1,0,-1
 33 397 l 1,1,-1
 357 397 l 1,2,-1
 357 331 l 1,3,-1
 33 331 l 1,0,-1
EndSplineSet
EndChar

StartChar: period
Encoding: 46 46 17
Width: 275
GlyphClass: 2
Flags: W
LayerCount: 2
Fore
SplineSet
76 0 m 1,0,-1
 76 117 l 1,1,-1
 200 117 l 1,2,-1
 200 0 l 1,3,-1
 76 0 l 1,0,-1
EndSplineSet
EndChar

StartChar: slash
Encoding: 47 47 18
Width: 338
GlyphClass: 2
Flags: W
LayerCount: 2
Fore
SplineSet
-13 -56 m 1,0,-1
 270 781 l 1,1,-1
 350 781 l 1,2,-1
 68 -56 l 1,3,-1
 -13 -56 l 1,0,-1
EndSplineSet
EndChar

StartChar: zero
Encoding: 48 48 19
Width: 550
GlyphClass: 2
Flags: W
LayerCount: 2
Fore
SplineSet
126 367 m 0,0,1
 126 220 126 220 163 133.5 c 128,-1,2
 200 47 200 47 277 47 c 0,3,4
 318 47 318 47 347.5 73 c 128,-1,5
 377 99 377 99 393 145 c 128,-1,6
 409 191 409 191 416.5 245.5 c 128,-1,7
 424 300 424 300 424 367 c 0,8,9
 424 514 424 514 387 601.5 c 128,-1,10
 350 689 350 689 275 689 c 256,11,12
 200 689 200 689 163 602.5 c 128,-1,13
 126 516 126 516 126 367 c 0,0,1
45 367 m 0,14,15
 45 567 45 567 111 660 c 128,-1,16
 177 753 177 753 275 753 c 0,17,18
 383 753 383 753 443.5 653.5 c 128,-1,19
 504 554 504 554 504 367 c 0,20,21
 504 255 504 255 481 170.5 c 128,-1,22
 458 86 458 86 406 34 c 128,-1,23
 354 -18 354 -18 277 -18 c 0,24,25
 178 -18 178 -18 111.5 77.5 c 128,-1,26
 45 173 45 173 45 367 c 0,14,15
EndSplineSet
EndChar

StartChar: one
Encoding: 49 49 20
Width: 550
GlyphClass: 2
Flags: W
LayerCount: 2
Fore
SplineSet
97 562 m 1,0,-1
 97 622 l 1,1,-1
 127 622 l 2,2,3
 211 622 211 622 241.5 647.5 c 128,-1,4
 272 673 272 673 272 721 c 2,5,-1
 272 744 l 1,6,-1
 338 744 l 1,7,-1
 338 -10 l 1,8,-1
 258 -10 l 1,9,-1
 258 562 l 1,10,-1
 97 562 l 1,0,-1
EndSplineSet
Substitution2: "'subs' Subscript lookup 6 subtable" uni2081
Substitution2: "'sups' Superscript lookup 5 subtable" onesuperior
Substitution2: "'sinf' Scientific Inferiors lookup 4 subtable" uni2081
AlternateSubs2: "'aalt' Access All Alternates lookup 1 subtable" uni2081 onesuperior
EndChar

StartChar: two
Encoding: 50 50 21
Width: 550
GlyphClass: 2
Flags: W
LayerCount: 2
Fore
SplineSet
47 569 m 1,0,1
 69 655 69 655 125 704 c 128,-1,2
 181 753 181 753 273 753 c 0,3,4
 367 753 367 753 427 699 c 128,-1,5
 487 645 487 645 487 550 c 0,6,7
 487 440 487 440 373 331 c 0,8,9
 241 205 241 205 207 165 c 0,10,11
 163 113 163 113 145 65 c 1,12,-1
 487 65 l 1,13,-1
 487 0 l 1,14,-1
 51 0 l 1,15,16
 51 37 51 37 67 78 c 128,-1,17
 83 119 83 119 102 148.5 c 128,-1,18
 121 178 121 178 164 224.5 c 128,-1,19
 207 271 207 271 230 293 c 128,-1,20
 253 315 253 315 310 368 c 0,21,22
 406 459 406 459 406 551 c 0,23,24
 406 616 406 616 369.5 652.5 c 128,-1,25
 333 689 333 689 271 689 c 0,26,27
 210 689 210 689 170.5 651.5 c 128,-1,28
 131 614 131 614 116 551 c 1,29,-1
 47 569 l 1,0,1
EndSplineSet
Substitution2: "'subs' Subscript lookup 6 subtable" uni2082
Substitution2: "'sups' Superscript lookup 5 subtable" twosuperior
Substitution2: "'sinf' Scientific Inferiors lookup 4 subtable" uni2082
AlternateSubs2: "'aalt' Access All Alternates lookup 1 subtable" uni2082 twosuperior
EndChar

StartChar: three
Encoding: 51 51 22
Width: 550
GlyphClass: 2
Flags: W
LayerCount: 2
Fore
SplineSet
33 127 m 1,0,-1
 98 152 l 1,1,2
 153 47 153 47 263 47 c 0,3,4
 332 47 332 47 378 87.5 c 128,-1,5
 424 128 424 128 424 204 c 0,6,7
 424 276 424 276 373 315.5 c 128,-1,8
 322 355 322 355 249 355 c 0,9,10
 213 355 213 355 190 353 c 1,11,-1
 190 418 l 1,12,13
 211 416 211 416 245 416 c 0,14,15
 310 416 310 416 352 454 c 128,-1,16
 394 492 394 492 394 556 c 0,17,18
 394 614 394 614 356.5 651.5 c 128,-1,19
 319 689 319 689 259 689 c 0,20,21
 165 689 165 689 118 577 c 1,22,-1
 53 599 l 1,23,24
 75 666 75 666 128 709.5 c 128,-1,25
 181 753 181 753 263 753 c 0,26,27
 360 753 360 753 417.5 699 c 128,-1,28
 475 645 475 645 475 563 c 0,29,30
 475 499 475 499 440.5 454 c 128,-1,31
 406 409 406 409 357 391 c 1,32,33
 416 375 416 375 460 328 c 128,-1,34
 504 281 504 281 504 204 c 0,35,36
 504 98 504 98 438 40 c 128,-1,37
 372 -18 372 -18 263 -18 c 0,38,39
 178 -18 178 -18 118.5 23.5 c 128,-1,40
 59 65 59 65 33 127 c 1,0,-1
EndSplineSet
Substitution2: "'subs' Subscript lookup 6 subtable" uni2083
Substitution2: "'sups' Superscript lookup 5 subtable" threesuperior
Substitution2: "'sinf' Scientific Inferiors lookup 4 subtable" uni2083
AlternateSubs2: "'aalt' Access All Alternates lookup 1 subtable" uni2083 threesuperior
EndChar

StartChar: four
Encoding: 52 52 23
Width: 550
GlyphClass: 2
Flags: W
LayerCount: 2
Fore
SplineSet
20 229 m 1,0,-1
 358 745 l 1,1,-1
 429 745 l 1,2,-1
 429 231 l 1,3,-1
 535 231 l 1,4,-1
 535 166 l 1,5,-1
 429 166 l 1,6,-1
 429 -10 l 1,7,-1
 350 -10 l 1,8,-1
 350 166 l 1,9,-1
 20 166 l 1,10,-1
 20 229 l 1,0,-1
96 231 m 1,11,-1
 350 231 l 1,12,-1
 350 511 l 2,13,14
 350 573 350 573 354 629 c 1,15,-1
 350 629 l 1,16,-1
 285 523 l 1,17,-1
 96 231 l 1,11,-1
EndSplineSet
Substitution2: "'subs' Subscript lookup 6 subtable" uni2084
Substitution2: "'sups' Superscript lookup 5 subtable" uni2074
Substitution2: "'sinf' Scientific Inferiors lookup 4 subtable" uni2084
AlternateSubs2: "'aalt' Access All Alternates lookup 1 subtable" uni2084 uni2074
EndChar

StartChar: five
Encoding: 53 53 24
Width: 550
GlyphClass: 2
Flags: W
LayerCount: 2
Fore
SplineSet
43 119 m 1,0,-1
 108 143 l 1,1,2
 129 99 129 99 169 73 c 128,-1,3
 209 47 209 47 257 47 c 0,4,5
 331 47 331 47 371.5 95 c 128,-1,6
 412 143 412 143 412 220 c 256,7,8
 412 297 412 297 368 345.5 c 128,-1,9
 324 394 324 394 253 394 c 0,10,11
 173 394 173 394 112 329 c 1,12,-1
 65 347 l 1,13,-1
 102 735 l 1,14,-1
 449 735 l 1,15,-1
 449 670 l 1,16,-1
 175 670 l 1,17,-1
 147 418 l 1,18,19
 205 458 205 458 281 458 c 0,20,21
 374 458 374 458 433.5 394 c 128,-1,22
 493 330 493 330 493 222 c 0,23,24
 493 122 493 122 433 52 c 128,-1,25
 373 -18 373 -18 257 -18 c 0,26,27
 108 -18 108 -18 43 119 c 1,0,-1
EndSplineSet
EndChar

StartChar: six
Encoding: 54 54 25
Width: 550
GlyphClass: 2
Flags: W
LayerCount: 2
Fore
SplineSet
131 229 m 0,0,1
 131 149 131 149 173 98 c 128,-1,2
 215 47 215 47 283 47 c 0,3,4
 347 47 347 47 389.5 97.5 c 128,-1,5
 432 148 432 148 432 229 c 0,6,7
 432 311 432 311 389 361.5 c 128,-1,8
 346 412 346 412 281 412 c 0,9,10
 217 412 217 412 174 359 c 128,-1,11
 131 306 131 306 131 229 c 0,0,1
47 328 m 0,12,13
 47 392 47 392 55.5 450.5 c 128,-1,14
 64 509 64 509 83.5 565 c 128,-1,15
 103 621 103 621 132.5 662 c 128,-1,16
 162 703 162 703 207 728 c 128,-1,17
 252 753 252 753 308 753 c 0,18,19
 438 753 438 753 502 621 c 1,20,-1
 440 599 l 1,21,22
 389 689 389 689 308 689 c 0,23,24
 266 689 266 689 233.5 667 c 128,-1,25
 201 645 201 645 182 607 c 128,-1,26
 163 569 163 569 152 532 c 128,-1,27
 141 495 141 495 135 451 c 0,28,29
 129 412 129 412 126 363 c 1,30,31
 145 414 145 414 189.5 445.5 c 128,-1,32
 234 477 234 477 292 477 c 0,33,34
 389 477 389 477 449.5 406.5 c 128,-1,35
 510 336 510 336 510 230 c 256,36,37
 510 124 510 124 450 53 c 128,-1,38
 390 -18 390 -18 286 -18 c 0,39,40
 178 -18 178 -18 114 60 c 0,41,42
 47 140 47 140 47 328 c 0,12,13
EndSplineSet
EndChar

StartChar: seven
Encoding: 55 55 26
Width: 550
GlyphClass: 2
Flags: W
LayerCount: 2
Fore
SplineSet
37 668 m 1,0,-1
 37 735 l 1,1,-1
 491 735 l 1,2,-1
 491 681 l 1,3,4
 297 364 297 364 214 -10 c 1,5,-1
 133 -10 l 1,6,7
 174 184 174 184 240 343.5 c 128,-1,8
 306 503 306 503 400 668 c 1,9,-1
 37 668 l 1,0,-1
EndSplineSet
EndChar

StartChar: eight
Encoding: 56 56 27
Width: 550
GlyphClass: 2
Flags: W
LayerCount: 2
Fore
SplineSet
141 555 m 0,0,1
 141 496 141 496 180 459.5 c 128,-1,2
 219 423 219 423 275 423 c 0,3,4
 332 423 332 423 370 460.5 c 128,-1,5
 408 498 408 498 408 555 c 0,6,7
 408 613 408 613 370.5 651 c 128,-1,8
 333 689 333 689 275 689 c 0,9,10
 215 689 215 689 178 650 c 128,-1,11
 141 611 141 611 141 555 c 0,0,1
37 196 m 0,12,13
 37 275 37 275 78.5 324 c 128,-1,14
 120 373 120 373 179 393 c 1,15,16
 61 442 61 442 61 559 c 0,17,18
 61 641 61 641 121 697 c 128,-1,19
 181 753 181 753 275 753 c 0,20,21
 366 753 366 753 427.5 698 c 128,-1,22
 489 643 489 643 489 559 c 0,23,24
 489 495 489 495 454.5 452.5 c 128,-1,25
 420 410 420 410 371 393 c 1,26,27
 432 374 432 374 473 324 c 128,-1,28
 514 274 514 274 514 195 c 0,29,30
 514 102 514 102 447 42 c 128,-1,31
 380 -18 380 -18 275 -18 c 0,32,33
 174 -18 174 -18 105.5 40 c 128,-1,34
 37 98 37 98 37 196 c 0,12,13
118 200 m 0,35,36
 118 133 118 133 162.5 90 c 128,-1,37
 207 47 207 47 275 47 c 0,38,39
 342 47 342 47 388 90.5 c 128,-1,40
 434 134 434 134 434 200 c 0,41,42
 434 267 434 267 387.5 313 c 128,-1,43
 341 359 341 359 275 359 c 256,44,45
 209 359 209 359 163.5 314 c 128,-1,46
 118 269 118 269 118 200 c 0,35,36
EndSplineSet
EndChar

StartChar: nine
Encoding: 57 57 28
Width: 550
GlyphClass: 2
Flags: W
LayerCount: 2
Fore
SplineSet
116 507 m 256,0,1
 116 426 116 426 160.5 376 c 128,-1,2
 205 326 205 326 265 326 c 0,3,4
 328 326 328 326 371 377.5 c 128,-1,5
 414 429 414 429 414 506 c 256,6,7
 414 583 414 583 372.5 636 c 128,-1,8
 331 689 331 689 265 689 c 0,9,10
 202 689 202 689 159 638.5 c 128,-1,11
 116 588 116 588 116 507 c 256,0,1
43 118 m 1,12,-1
 108 140 l 1,13,14
 128 99 128 99 164 73 c 128,-1,15
 200 47 200 47 245 47 c 0,16,17
 293 47 293 47 328 72.5 c 128,-1,18
 363 98 363 98 382 144 c 128,-1,19
 401 190 401 190 410 244 c 128,-1,20
 419 298 419 298 420 364 c 1,21,22
 401 323 401 323 358 292.5 c 128,-1,23
 315 262 315 262 255 262 c 0,24,25
 166 262 166 262 101.5 328 c 128,-1,26
 37 394 37 394 37 506 c 0,27,28
 37 615 37 615 102.5 684 c 128,-1,29
 168 753 168 753 265 753 c 0,30,31
 348 753 348 753 405.5 699.5 c 128,-1,32
 463 646 463 646 483 561 c 0,33,34
 496 500 496 500 496 404 c 0,35,36
 496 309 496 309 482.5 234 c 128,-1,37
 469 159 469 159 439.5 101.5 c 128,-1,38
 410 44 410 44 360.5 13 c 128,-1,39
 311 -18 311 -18 243 -18 c 0,40,41
 172 -18 172 -18 119.5 23 c 128,-1,42
 67 64 67 64 43 118 c 1,12,-1
EndSplineSet
EndChar

StartChar: colon
Encoding: 58 58 29
Width: 275
GlyphClass: 2
Flags: W
LayerCount: 2
Fore
SplineSet
76 0 m 1,0,-1
 76 117 l 1,1,-1
 200 117 l 1,2,-1
 200 0 l 1,3,-1
 76 0 l 1,0,-1
76 389 m 1,4,-1
 76 506 l 1,5,-1
 200 506 l 1,6,-1
 200 389 l 1,7,-1
 76 389 l 1,4,-1
EndSplineSet
EndChar

StartChar: semicolon
Encoding: 59 59 30
Width: 275
GlyphClass: 2
Flags: W
LayerCount: 2
Fore
SplineSet
14 -171 m 1,0,-1
 95 116 l 1,1,-1
 203 116 l 1,2,-1
 76 -171 l 1,3,-1
 14 -171 l 1,0,-1
76 388 m 1,4,-1
 76 505 l 1,5,-1
 200 505 l 1,6,-1
 200 388 l 1,7,-1
 76 388 l 1,4,-1
EndSplineSet
EndChar

StartChar: less
Encoding: 60 60 31
Width: 558
GlyphClass: 2
Flags: W
LayerCount: 2
Fore
SplineSet
53 321 m 1,0,-1
 53 391 l 1,1,-1
 467 699 l 1,2,-1
 508 642 l 1,3,-1
 128 355 l 1,4,-1
 508 69 l 1,5,-1
 467 12 l 1,6,-1
 53 321 l 1,0,-1
EndSplineSet
EndChar

StartChar: equal
Encoding: 61 61 32
Width: 558
GlyphClass: 2
Flags: W
LayerCount: 2
Fore
SplineSet
47 234 m 1,0,-1
 47 300 l 1,1,-1
 510 300 l 1,2,-1
 510 234 l 1,3,-1
 47 234 l 1,0,-1
47 428 m 1,4,-1
 47 495 l 1,5,-1
 510 495 l 1,6,-1
 510 428 l 1,7,-1
 47 428 l 1,4,-1
EndSplineSet
Substitution2: "'sups' Superscript lookup 5 subtable" uni207C
Substitution2: "'aalt' Access All Alternates lookup 0 subtable" uni207C
EndChar

StartChar: greater
Encoding: 62 62 33
Width: 558
GlyphClass: 2
Flags: W
LayerCount: 2
Fore
SplineSet
90 12 m 1,0,-1
 51 69 l 1,1,-1
 430 355 l 1,2,-1
 51 642 l 1,3,-1
 90 699 l 1,4,-1
 506 391 l 1,5,-1
 506 321 l 1,6,-1
 90 12 l 1,0,-1
EndSplineSet
EndChar

StartChar: question
Encoding: 63 63 34
Width: 553
GlyphClass: 2
Flags: W
LayerCount: 2
Fore
SplineSet
63 593 m 1,0,1
 88 665 88 665 145 709 c 128,-1,2
 202 753 202 753 277 753 c 0,3,4
 370 753 370 753 425.5 699 c 128,-1,5
 481 645 481 645 481 554 c 0,6,7
 481 509 481 509 463 473 c 128,-1,8
 445 437 445 437 419 411.5 c 128,-1,9
 393 386 393 386 367 361.5 c 128,-1,10
 341 337 341 337 322.5 302 c 128,-1,11
 304 267 304 267 304 224 c 2,12,-1
 304 197 l 1,13,-1
 226 197 l 1,14,-1
 226 229 l 2,15,16
 226 277 226 277 244 315.5 c 128,-1,17
 262 354 262 354 287.5 380.5 c 128,-1,18
 313 407 313 407 338.5 431 c 128,-1,19
 364 455 364 455 382 487 c 128,-1,20
 400 519 400 519 400 556 c 0,21,22
 400 615 400 615 367.5 651 c 128,-1,23
 335 687 335 687 278 687 c 0,24,25
 180 687 180 687 131 569 c 1,26,-1
 63 593 l 1,0,1
203 -10 m 1,27,-1
 203 103 l 1,28,-1
 327 103 l 1,29,-1
 327 -10 l 1,30,-1
 203 -10 l 1,27,-1
EndSplineSet
EndChar

StartChar: at
Encoding: 64 64 35
Width: 945
GlyphClass: 2
Flags: W
LayerCount: 2
Fore
SplineSet
58 345 m 0,0,1
 58 529 58 529 179 645 c 128,-1,2
 300 761 300 761 494 761 c 0,3,4
 668 761 668 761 777.5 659.5 c 128,-1,5
 887 558 887 558 887 397 c 0,6,7
 887 324 887 324 870 267.5 c 128,-1,8
 853 211 853 211 824.5 179.5 c 128,-1,9
 796 148 796 148 764.5 132.5 c 128,-1,10
 733 117 733 117 699 117 c 0,11,12
 655 117 655 117 622 148 c 128,-1,13
 589 179 589 179 586 225 c 1,14,-1
 585 225 l 1,15,16
 569 184 569 184 527.5 151 c 128,-1,17
 486 118 486 118 431 118 c 0,18,19
 360 118 360 118 313 171 c 128,-1,20
 266 224 266 224 266 312 c 0,21,22
 266 430 266 430 327.5 497.5 c 128,-1,23
 389 565 389 565 474 565 c 0,24,25
 519 565 519 565 548 545 c 128,-1,26
 577 525 577 525 590 501 c 1,27,-1
 594 556 l 1,28,-1
 654 556 l 1,29,-1
 640 275 l 2,30,31
 640 270 640 270 640 265 c 0,32,33
 640 224 640 224 656.5 200 c 128,-1,34
 673 176 673 176 704 176 c 0,35,36
 755 176 755 176 787 233 c 128,-1,37
 819 290 819 290 819 393 c 0,38,39
 819 532 819 532 731 618.5 c 128,-1,40
 643 705 643 705 493 705 c 0,41,42
 333 705 333 705 230 605 c 128,-1,43
 127 505 127 505 127 345 c 0,44,45
 127 180 127 180 225.5 83.5 c 128,-1,46
 324 -13 324 -13 481 -13 c 0,47,48
 597 -13 597 -13 700 18 c 1,49,-1
 712 -35 l 1,50,51
 607 -70 607 -70 481 -70 c 0,52,53
 289 -70 289 -70 173.5 46 c 128,-1,54
 58 162 58 162 58 345 c 0,0,1
338 313 m 0,55,56
 338 254 338 254 366 217 c 128,-1,57
 394 180 394 180 439 180 c 0,58,59
 461 180 461 180 483 190 c 128,-1,60
 505 200 505 200 528 222.5 c 128,-1,61
 551 245 551 245 564.5 291 c 128,-1,62
 578 337 578 337 578 398 c 0,63,64
 578 443 578 443 553 475 c 128,-1,65
 528 507 528 507 477 507 c 0,66,67
 424 507 424 507 381 454.5 c 128,-1,68
 338 402 338 402 338 313 c 0,55,56
EndSplineSet
EndChar

StartChar: A
Encoding: 65 65 36
Width: 638
GlyphClass: 2
Flags: W
LayerCount: 2
Fore
SplineSet
181 275 m 1,0,-1
 457 275 l 1,1,-1
 371 522 l 2,2,3
 363 545 363 545 346 594.5 c 128,-1,4
 329 644 329 644 322 663 c 1,5,-1
 316 663 l 1,6,7
 275 543 275 543 268 522 c 2,8,-1
 181 275 l 1,0,-1
-4 0 m 1,9,-1
 271 735 l 1,10,-1
 367 735 l 1,11,-1
 642 0 l 1,12,-1
 555 0 l 1,13,-1
 481 212 l 1,14,-1
 157 212 l 1,15,-1
 82 0 l 1,16,-1
 -4 0 l 1,9,-1
EndSplineSet
Substitution2: "Single Substitution lookup 12 subtable" ordfeminine
EndChar

StartChar: B
Encoding: 66 66 37
Width: 667
GlyphClass: 2
Flags: W
LayerCount: 2
Fore
SplineSet
102 0 m 1,0,-1
 102 735 l 1,1,-1
 373 735 l 2,2,3
 480 735 480 735 535.5 684 c 128,-1,4
 591 633 591 633 591 547 c 0,5,6
 591 488 591 488 561 447 c 128,-1,7
 531 406 531 406 485 386 c 1,8,9
 541 369 541 369 579.5 321 c 128,-1,10
 618 273 618 273 618 205 c 0,11,12
 618 121 618 121 562.5 60.5 c 128,-1,13
 507 0 507 0 408 0 c 2,14,-1
 102 0 l 1,0,-1
181 67 m 1,15,-1
 389 67 l 2,16,17
 452 67 452 67 495 103.5 c 128,-1,18
 538 140 538 140 538 204 c 0,19,20
 538 265 538 265 496 305 c 128,-1,21
 454 345 454 345 385 345 c 2,22,-1
 181 345 l 1,23,-1
 181 67 l 1,15,-1
181 411 m 1,24,-1
 359 411 l 2,25,26
 425 411 425 411 467.5 443.5 c 128,-1,27
 510 476 510 476 510 541 c 0,28,29
 510 598 510 598 475.5 633 c 128,-1,30
 441 668 441 668 363 668 c 2,31,-1
 181 668 l 1,32,-1
 181 411 l 1,24,-1
EndSplineSet
EndChar

StartChar: C
Encoding: 67 67 38
Width: 650
GlyphClass: 2
Flags: W
LayerCount: 2
Fore
SplineSet
51 367 m 256,0,1
 51 547 51 547 138.5 650 c 128,-1,2
 226 753 226 753 365 753 c 0,3,4
 451 753 451 753 511.5 705 c 128,-1,5
 572 657 572 657 603 592 c 1,6,-1
 536 568 l 1,7,8
 470 686 470 686 363 686 c 0,9,10
 257 686 257 686 194 599 c 128,-1,11
 131 512 131 512 131 367 c 0,12,13
 131 220 131 220 195 135 c 128,-1,14
 259 50 259 50 363 50 c 0,15,16
 429 50 429 50 478 87 c 128,-1,17
 527 124 527 124 551 178 c 1,18,-1
 622 155 l 1,19,20
 589 83 589 83 525 32.5 c 128,-1,21
 461 -18 461 -18 365 -18 c 0,22,23
 227 -18 227 -18 139 84.5 c 128,-1,24
 51 187 51 187 51 367 c 256,0,1
EndSplineSet
EndChar

StartChar: D
Encoding: 68 68 39
Width: 688
GlyphClass: 2
Flags: W
LayerCount: 2
Fore
SplineSet
102 0 m 1,0,-1
 102 735 l 1,1,-1
 300 735 l 2,2,3
 459 735 459 735 550.5 641.5 c 128,-1,4
 642 548 642 548 642 367 c 0,5,6
 642 195 642 195 553.5 97.5 c 128,-1,7
 465 0 465 0 298 0 c 2,8,-1
 102 0 l 1,0,-1
181 67 m 1,9,-1
 287 67 l 2,10,11
 414 67 414 67 487.5 139 c 128,-1,12
 561 211 561 211 561 367 c 0,13,14
 561 525 561 525 487.5 596.5 c 128,-1,15
 414 668 414 668 289 668 c 2,16,-1
 181 668 l 1,17,-1
 181 67 l 1,9,-1
EndSplineSet
EndChar

StartChar: E
Encoding: 69 69 40
Width: 608
GlyphClass: 2
Flags: W
LayerCount: 2
Fore
SplineSet
102 0 m 1,0,-1
 102 735 l 1,1,-1
 561 735 l 1,2,-1
 561 668 l 1,3,-1
 181 668 l 1,4,-1
 181 413 l 1,5,-1
 524 413 l 1,6,-1
 524 347 l 1,7,-1
 181 347 l 1,8,-1
 181 67 l 1,9,-1
 569 67 l 1,10,-1
 569 0 l 1,11,-1
 102 0 l 1,0,-1
EndSplineSet
EndChar

StartChar: F
Encoding: 70 70 41
Width: 561
GlyphClass: 2
Flags: W
LayerCount: 2
Fore
SplineSet
102 0 m 1,0,-1
 102 735 l 1,1,-1
 548 735 l 1,2,-1
 548 668 l 1,3,-1
 181 668 l 1,4,-1
 181 403 l 1,5,-1
 510 403 l 1,6,-1
 510 338 l 1,7,-1
 181 338 l 1,8,-1
 181 0 l 1,9,-1
 102 0 l 1,0,-1
EndSplineSet
EndChar

StartChar: G
Encoding: 71 71 42
Width: 712
GlyphClass: 2
Flags: W
LayerCount: 2
Fore
SplineSet
51 367 m 0,0,1
 51 538 51 538 137 645.5 c 128,-1,2
 223 753 223 753 371 753 c 0,3,4
 421 753 421 753 464 737.5 c 128,-1,5
 507 722 507 722 536 696.5 c 128,-1,6
 565 671 565 671 584 647 c 128,-1,7
 603 623 603 623 616 597 c 1,8,-1
 550 573 l 1,9,10
 480 686 480 686 371 686 c 0,11,12
 258 686 258 686 194.5 598 c 128,-1,13
 131 510 131 510 131 367 c 0,14,15
 131 218 131 218 196 134 c 128,-1,16
 261 50 261 50 367 50 c 0,17,18
 463 50 463 50 515 113 c 128,-1,19
 567 176 567 176 567 261 c 2,20,-1
 567 330 l 1,21,-1
 359 330 l 1,22,-1
 359 396 l 1,23,-1
 644 396 l 1,24,-1
 644 0 l 1,25,-1
 587 0 l 1,26,-1
 581 108 l 1,27,28
 523 -18 523 -18 365 -18 c 0,29,30
 225 -18 225 -18 138 85 c 128,-1,31
 51 188 51 188 51 367 c 0,0,1
EndSplineSet
EndChar

StartChar: H
Encoding: 72 72 43
Width: 722
GlyphClass: 2
Flags: W
LayerCount: 2
Fore
SplineSet
102 0 m 1,0,-1
 102 735 l 1,1,-1
 181 735 l 1,2,-1
 181 411 l 1,3,-1
 542 411 l 1,4,-1
 542 735 l 1,5,-1
 620 735 l 1,6,-1
 620 0 l 1,7,-1
 542 0 l 1,8,-1
 542 345 l 1,9,-1
 181 345 l 1,10,-1
 181 0 l 1,11,-1
 102 0 l 1,0,-1
EndSplineSet
EndChar

StartChar: I
Encoding: 73 73 44
Width: 282
GlyphClass: 2
Flags: W
LayerCount: 2
Fore
SplineSet
102 0 m 1,0,-1
 102 735 l 1,1,-1
 181 735 l 1,2,-1
 181 0 l 1,3,-1
 102 0 l 1,0,-1
EndSplineSet
EndChar

StartChar: J
Encoding: 74 74 45
Width: 497
GlyphClass: 2
Flags: W
LayerCount: 2
Fore
SplineSet
12 118 m 1,0,-1
 82 144 l 1,1,2
 96 100 96 100 127 75 c 128,-1,3
 158 50 158 50 200 50 c 0,4,5
 316 50 316 50 316 214 c 2,6,-1
 316 735 l 1,7,-1
 394 735 l 1,8,-1
 394 201 l 2,9,10
 394 93 394 93 344.5 37.5 c 128,-1,11
 295 -18 295 -18 202 -18 c 0,12,13
 56 -18 56 -18 12 118 c 1,0,-1
EndSplineSet
EndChar

StartChar: K
Encoding: 75 75 46
Width: 637
GlyphClass: 2
Flags: W
LayerCount: 2
Fore
SplineSet
102 0 m 1,0,-1
 102 735 l 1,1,-1
 181 735 l 1,2,-1
 181 346 l 1,3,-1
 183 346 l 1,4,-1
 516 735 l 1,5,-1
 620 735 l 1,6,-1
 341 417 l 1,7,-1
 636 0 l 1,8,-1
 538 0 l 1,9,-1
 290 360 l 1,10,-1
 181 235 l 1,11,-1
 181 0 l 1,12,-1
 102 0 l 1,0,-1
EndSplineSet
EndChar

StartChar: L
Encoding: 76 76 47
Width: 538
GlyphClass: 2
Flags: W
LayerCount: 2
Fore
SplineSet
102 0 m 1,0,-1
 102 735 l 1,1,-1
 181 735 l 1,2,-1
 181 67 l 1,3,-1
 530 67 l 1,4,-1
 530 0 l 1,5,-1
 102 0 l 1,0,-1
EndSplineSet
EndChar

StartChar: M
Encoding: 77 77 48
Width: 876
GlyphClass: 2
Flags: W
LayerCount: 2
Fore
SplineSet
102 0 m 1,0,-1
 102 735 l 1,1,-1
 204 735 l 1,2,-1
 365 340 l 2,3,4
 381 298 381 298 408 227 c 128,-1,5
 435 156 435 156 436 153 c 2,6,-1
 440 153 l 1,7,8
 446 168 446 168 511 340 c 1,9,-1
 671 735 l 1,10,-1
 775 735 l 1,11,-1
 775 0 l 1,12,-1
 697 0 l 1,13,-1
 697 415 l 2,14,15
 697 495 697 495 707 638 c 1,16,-1
 703 638 l 1,17,-1
 473 55 l 1,18,-1
 404 55 l 1,19,-1
 173 638 l 1,20,-1
 169 638 l 1,21,22
 181 480 181 480 181 415 c 2,23,-1
 181 0 l 1,24,-1
 102 0 l 1,0,-1
EndSplineSet
EndChar

StartChar: N
Encoding: 78 78 49
Width: 726
GlyphClass: 2
Flags: W
LayerCount: 2
Fore
SplineSet
102 0 m 1,0,-1
 102 735 l 1,1,-1
 192 735 l 1,2,-1
 463 266 l 1,3,-1
 551 111 l 1,4,-1
 557 111 l 1,5,6
 546 202 546 202 546 319 c 2,7,-1
 546 735 l 1,8,-1
 624 735 l 1,9,-1
 624 0 l 1,10,-1
 534 0 l 1,11,-1
 175 623 l 1,12,-1
 171 623 l 1,13,14
 181 525 181 525 181 416 c 2,15,-1
 181 0 l 1,16,-1
 102 0 l 1,0,-1
EndSplineSet
EndChar

StartChar: O
Encoding: 79 79 50
Width: 712
GlyphClass: 2
Flags: W
LayerCount: 2
Fore
SplineSet
51 367 m 0,0,1
 51 540 51 540 134.5 646.5 c 128,-1,2
 218 753 218 753 357 753 c 0,3,4
 498 753 498 753 579.5 647 c 128,-1,5
 661 541 661 541 661 366 c 0,6,7
 661 189 661 189 578.5 85.5 c 128,-1,8
 496 -18 496 -18 357 -18 c 256,9,10
 218 -18 218 -18 134.5 86.5 c 128,-1,11
 51 191 51 191 51 367 c 0,0,1
131 367 m 0,12,13
 131 222 131 222 192 136 c 128,-1,14
 253 50 253 50 357 50 c 0,15,16
 459 50 459 50 520 134.5 c 128,-1,17
 581 219 581 219 581 366 c 0,18,19
 581 511 581 511 522 598.5 c 128,-1,20
 463 686 463 686 357 686 c 0,21,22
 253 686 253 686 192 599.5 c 128,-1,23
 131 513 131 513 131 367 c 0,12,13
EndSplineSet
Substitution2: "Single Substitution lookup 12 subtable" ordmasculine
EndChar

StartChar: P
Encoding: 80 80 51
Width: 650
GlyphClass: 2
Flags: W
LayerCount: 2
Fore
SplineSet
102 0 m 1,0,-1
 102 735 l 1,1,-1
 379 735 l 2,2,3
 486 735 486 735 548 676 c 128,-1,4
 610 617 610 617 610 520 c 0,5,6
 610 420 610 420 546.5 362 c 128,-1,7
 483 304 483 304 379 304 c 2,8,-1
 181 304 l 1,9,-1
 181 0 l 1,10,-1
 102 0 l 1,0,-1
181 370 m 1,11,-1
 367 370 l 2,12,13
 445 370 445 370 487.5 408 c 128,-1,14
 530 446 530 446 530 520 c 0,15,16
 530 593 530 593 487.5 630.5 c 128,-1,17
 445 668 445 668 365 668 c 2,18,-1
 181 668 l 1,19,-1
 181 370 l 1,11,-1
EndSplineSet
EndChar

StartChar: Q
Encoding: 81 81 52
Width: 712
GlyphClass: 2
Flags: W
LayerCount: 2
Fore
SplineSet
51 366 m 0,0,1
 51 542 51 542 135 647.5 c 128,-1,2
 219 753 219 753 357 753 c 0,3,4
 497 753 497 753 579 647 c 128,-1,5
 661 541 661 541 661 366 c 0,6,7
 661 193 661 193 580 88 c 0,8,9
 578 85 578 85 576 82 c 2,10,-1
 661 -5 l 1,11,-1
 610 -50 l 1,12,-1
 527 35 l 1,13,14
 457 -18 457 -18 357 -18 c 0,15,16
 217 -18 217 -18 134 87.5 c 128,-1,17
 51 193 51 193 51 366 c 0,0,1
341 224 m 1,18,-1
 393 270 l 1,19,-1
 522 137 l 1,20,21
 581 222 581 222 581 366 c 0,22,23
 581 517 581 517 520 601.5 c 128,-1,24
 459 686 459 686 357 686 c 0,25,26
 254 686 254 686 192.5 600 c 128,-1,27
 131 514 131 514 131 366 c 0,28,29
 131 221 131 221 192.5 135.5 c 128,-1,30
 254 50 254 50 357 50 c 0,31,32
 425 50 425 50 475 87 c 1,33,-1
 341 224 l 1,18,-1
EndSplineSet
EndChar

StartChar: R
Encoding: 82 82 53
Width: 663
GlyphClass: 2
Flags: W
LayerCount: 2
Fore
SplineSet
181 385 m 1,0,-1
 379 385 l 2,1,2
 452 385 452 385 492 424 c 128,-1,3
 532 463 532 463 532 528 c 0,4,5
 532 591 532 591 490 629.5 c 128,-1,6
 448 668 448 668 371 668 c 2,7,-1
 181 668 l 1,8,-1
 181 385 l 1,0,-1
102 0 m 1,9,-1
 102 735 l 1,10,-1
 389 735 l 2,11,12
 497 735 497 735 554.5 676.5 c 128,-1,13
 612 618 612 618 612 533 c 0,14,15
 612 455 612 455 573 407 c 128,-1,16
 534 359 534 359 487 346 c 1,17,18
 528 325 528 325 546.5 293.5 c 128,-1,19
 565 262 565 262 577 206 c 0,20,21
 590 151 590 151 595.5 131 c 128,-1,22
 601 111 601 111 615 73.5 c 128,-1,23
 629 36 629 36 650 0 c 1,24,-1
 561 0 l 1,25,26
 545 31 545 31 531.5 67 c 128,-1,27
 518 103 518 103 512 126 c 128,-1,28
 506 149 506 149 495 200 c 0,29,30
 482 255 482 255 456 286.5 c 128,-1,31
 430 318 430 318 373 318 c 2,32,-1
 181 318 l 1,33,-1
 181 0 l 1,34,-1
 102 0 l 1,9,-1
EndSplineSet
EndChar

StartChar: S
Encoding: 83 83 54
Width: 609
GlyphClass: 2
Flags: W
LayerCount: 2
Fore
SplineSet
39 138 m 1,0,-1
 112 164 l 1,1,2
 178 50 178 50 316 50 c 0,3,4
 393 50 393 50 441 87.5 c 128,-1,5
 489 125 489 125 489 189 c 0,6,7
 489 222 489 222 475 247 c 128,-1,8
 461 272 461 272 431 290.5 c 128,-1,9
 401 309 401 309 375.5 320 c 128,-1,10
 350 331 350 331 306 345 c 0,11,12
 271 357 271 357 256 362 c 128,-1,13
 241 367 241 367 209.5 380 c 128,-1,14
 178 393 178 393 162.5 402.5 c 128,-1,15
 147 412 147 412 124.5 429 c 128,-1,16
 102 446 102 446 91.5 464 c 128,-1,17
 81 482 81 482 73 507 c 128,-1,18
 65 532 65 532 65 560 c 0,19,20
 65 648 65 648 131.5 700.5 c 128,-1,21
 198 753 198 753 310 753 c 0,22,23
 395 753 395 753 458.5 713.5 c 128,-1,24
 522 674 522 674 550 615 c 1,25,-1
 483 592 l 1,26,27
 425 686 425 686 308 686 c 0,28,29
 232 686 232 686 188.5 651.5 c 128,-1,30
 145 617 145 617 145 560 c 0,31,32
 145 535 145 535 157 513 c 128,-1,33
 169 491 169 491 183 477.5 c 128,-1,34
 197 464 197 464 229 449 c 128,-1,35
 261 434 261 434 279 427.5 c 128,-1,36
 297 421 297 421 339 407 c 0,37,38
 348 404 348 404 353 402 c 0,39,40
 401 387 401 387 433.5 372 c 128,-1,41
 466 357 466 357 500.5 332.5 c 128,-1,42
 535 308 535 308 552 273 c 128,-1,43
 569 238 569 238 569 192 c 0,44,45
 569 93 569 93 500 37.5 c 128,-1,46
 431 -18 431 -18 314 -18 c 0,47,48
 214 -18 214 -18 144.5 24.5 c 128,-1,49
 75 67 75 67 39 138 c 1,0,-1
EndSplineSet
EndChar

StartChar: T
Encoding: 84 84 55
Width: 548
GlyphClass: 2
Flags: W
LayerCount: 2
Fore
SplineSet
12 668 m 1,0,-1
 12 735 l 1,1,-1
 538 735 l 1,2,-1
 538 668 l 1,3,-1
 314 668 l 1,4,-1
 314 0 l 1,5,-1
 236 0 l 1,6,-1
 236 668 l 1,7,-1
 12 668 l 1,0,-1
EndSplineSet
EndChar

StartChar: U
Encoding: 85 85 56
Width: 719
GlyphClass: 2
Flags: W
LayerCount: 2
Fore
SplineSet
100 266 m 2,0,-1
 100 735 l 1,1,-1
 179 735 l 1,2,-1
 179 268 l 2,3,4
 179 158 179 158 229.5 104 c 128,-1,5
 280 50 280 50 359 50 c 0,6,7
 441 50 441 50 491.5 105.5 c 128,-1,8
 542 161 542 161 542 268 c 2,9,-1
 542 735 l 1,10,-1
 620 735 l 1,11,-1
 620 266 l 2,12,13
 620 132 620 132 552.5 57 c 128,-1,14
 485 -18 485 -18 359 -18 c 0,15,16
 236 -18 236 -18 168 56 c 128,-1,17
 100 130 100 130 100 266 c 2,0,-1
EndSplineSet
EndChar

StartChar: V
Encoding: 86 86 57
Width: 586
GlyphClass: 2
Flags: W
LayerCount: 2
Fore
SplineSet
-2 735 m 1,0,-1
 84 735 l 1,1,-1
 244 230 l 2,2,3
 252 204 252 204 267 155.5 c 128,-1,4
 282 107 282 107 290 78 c 1,5,-1
 294 78 l 1,6,7
 303 108 303 108 318 155.5 c 128,-1,8
 333 203 333 203 341 230 c 2,9,-1
 502 735 l 1,10,-1
 589 735 l 1,11,-1
 341 0 l 1,12,-1
 245 0 l 1,13,-1
 -2 735 l 1,0,-1
EndSplineSet
EndChar

StartChar: W
Encoding: 87 87 58
Width: 851
GlyphClass: 2
Flags: W
LayerCount: 2
Fore
SplineSet
11 735 m 1,0,-1
 97 735 l 1,1,-1
 201 238 l 2,2,3
 220 133 220 133 227 88 c 1,4,-1
 233 88 l 1,5,6
 257 206 257 206 264 238 c 2,7,-1
 383 735 l 1,8,-1
 467 735 l 1,9,-1
 588 238 l 2,10,11
 602 177 602 177 619 88 c 1,12,-1
 623 88 l 1,13,14
 624 98 624 98 650 238 c 2,15,-1
 755 735 l 1,16,-1
 841 735 l 1,17,-1
 668 0 l 1,18,-1
 576 0 l 1,19,-1
 457 491 l 1,20,21
 431 619 431 619 428 635 c 1,22,-1
 424 635 l 1,23,24
 419 608 419 608 407 556 c 128,-1,25
 395 504 395 504 393 491 c 2,26,-1
 276 0 l 1,27,-1
 184 0 l 1,28,-1
 11 735 l 1,0,-1
EndSplineSet
EndChar

StartChar: X
Encoding: 88 88 59
Width: 578
GlyphClass: 2
Flags: W
LayerCount: 2
Fore
SplineSet
-2 0 m 1,0,-1
 239 378 l 1,1,-1
 10 735 l 1,2,-1
 108 735 l 1,3,-1
 216 557 l 2,4,5
 230 535 230 535 256 490.5 c 128,-1,6
 282 446 282 446 287 438 c 1,7,-1
 290 438 l 1,8,9
 303 460 303 460 328 501 c 128,-1,10
 353 542 353 542 363 557 c 2,11,-1
 471 735 l 1,12,-1
 569 735 l 1,13,-1
 338 378 l 1,14,-1
 581 0 l 1,15,-1
 485 0 l 1,16,-1
 369 184 l 2,17,18
 355 207 355 207 326.5 254.5 c 128,-1,19
 298 302 298 302 290 315 c 1,20,-1
 287 315 l 1,21,22
 246 245 246 245 209 184 c 2,23,-1
 94 0 l 1,24,-1
 -2 0 l 1,0,-1
EndSplineSet
EndChar

StartChar: Y
Encoding: 89 89 60
Width: 592
GlyphClass: 2
Flags: W
LayerCount: 2
Fore
SplineSet
-4 735 m 1,0,-1
 90 735 l 1,1,-1
 217 510 l 2,2,3
 261 432 261 432 294 372 c 1,4,-1
 296 372 l 1,5,6
 311 398 311 398 341.5 451 c 128,-1,7
 372 504 372 504 375 510 c 2,8,-1
 500 735 l 1,9,-1
 595 735 l 1,10,-1
 336 302 l 1,11,-1
 336 0 l 1,12,-1
 257 0 l 1,13,-1
 257 302 l 1,14,-1
 -4 735 l 1,0,-1
EndSplineSet
EndChar

StartChar: Z
Encoding: 90 90 61
Width: 608
GlyphClass: 2
Flags: W
LayerCount: 2
Fore
SplineSet
45 58 m 1,0,-1
 459 668 l 1,1,-1
 77 668 l 1,2,-1
 77 735 l 1,3,-1
 555 735 l 1,4,-1
 555 676 l 1,5,-1
 139 67 l 1,6,-1
 565 67 l 1,7,-1
 565 0 l 1,8,-1
 45 0 l 1,9,-1
 45 58 l 1,0,-1
EndSplineSet
EndChar

StartChar: bracketleft
Encoding: 91 91 62
Width: 446
GlyphClass: 2
Flags: W
LayerCount: 2
Fore
SplineSet
147 -128 m 1,0,-1
 147 832 l 1,1,-1
 353 832 l 1,2,-1
 353 769 l 1,3,-1
 224 769 l 1,4,-1
 224 -66 l 1,5,-1
 353 -66 l 1,6,-1
 353 -128 l 1,7,-1
 147 -128 l 1,0,-1
EndSplineSet
EndChar

StartChar: backslash
Encoding: 92 92 63
Width: 320
GlyphClass: 2
Flags: W
LayerCount: 2
Fore
SplineSet
-13 781 m 1,0,-1
 66 781 l 1,1,-1
 335 -56 l 1,2,-1
 256 -56 l 1,3,-1
 -13 781 l 1,0,-1
EndSplineSet
EndChar

StartChar: bracketright
Encoding: 93 93 64
Width: 446
GlyphClass: 2
Flags: W
LayerCount: 2
Fore
SplineSet
92 -66 m 1,0,-1
 222 -66 l 1,1,-1
 222 769 l 1,2,-1
 92 769 l 1,3,-1
 92 832 l 1,4,-1
 298 832 l 1,5,-1
 298 -128 l 1,6,-1
 92 -128 l 1,7,-1
 92 -66 l 1,0,-1
EndSplineSet
EndChar

StartChar: asciicircum
Encoding: 94 94 65
Width: 498
GlyphClass: 2
Flags: W
LayerCount: 2
Fore
SplineSet
16 477 m 1,0,-1
 212 808 l 1,1,-1
 286 808 l 1,2,-1
 482 477 l 1,3,-1
 402 477 l 1,4,-1
 249 747 l 1,5,-1
 95 477 l 1,6,-1
 16 477 l 1,0,-1
EndSplineSet
EndChar

StartChar: underscore
Encoding: 95 95 66
Width: 450
GlyphClass: 2
Flags: W
LayerCount: 2
Fore
SplineSet
6 -17 m 1,0,-1
 446 -17 l 1,1,-1
 446 -79 l 1,2,-1
 6 -79 l 1,3,-1
 6 -17 l 1,0,-1
EndSplineSet
EndChar

StartChar: grave
Encoding: 96 96 67
Width: 301
GlyphClass: 2
Flags: W
LayerCount: 2
Fore
SplineSet
163 537 m 1,0,-1
 35 824 l 1,1,-1
 144 824 l 1,2,-1
 225 537 l 1,3,-1
 163 537 l 1,0,-1
EndSplineSet
EndChar

StartChar: a
Encoding: 97 97 68
Width: 552
GlyphClass: 2
Flags: W
LayerCount: 2
Fore
SplineSet
118 135 m 0,0,1
 118 98 118 98 149.5 72 c 128,-1,2
 181 46 181 46 236 46 c 0,3,4
 305 46 305 46 354.5 91 c 128,-1,5
 404 136 404 136 404 206 c 2,6,-1
 404 280 l 1,7,8
 361 269 361 269 267 254 c 0,9,10
 190 240 190 240 154 212 c 128,-1,11
 118 184 118 184 118 135 c 0,0,1
41 130 m 0,12,13
 41 277 41 277 269 312 c 0,14,15
 371 329 371 329 404 340 c 1,16,-1
 404 370 l 2,17,18
 404 419 404 419 369 451.5 c 128,-1,19
 334 484 334 484 269 484 c 0,20,21
 222 484 222 484 178 462 c 128,-1,22
 134 440 134 440 104 402 c 1,23,-1
 55 444 l 1,24,25
 94 489 94 489 149.5 517.5 c 128,-1,26
 205 546 205 546 267 546 c 0,27,28
 479 546 479 546 479 339 c 2,29,-1
 479 0 l 1,30,-1
 406 0 l 1,31,-1
 406 86 l 1,32,33
 391 44 391 44 341.5 13 c 128,-1,34
 292 -18 292 -18 226 -18 c 0,35,36
 138 -18 138 -18 89.5 23.5 c 128,-1,37
 41 65 41 65 41 130 c 0,12,13
EndSplineSet
Substitution2: "Single Substitution lookup 12 subtable" ordfeminine
EndChar

StartChar: b
Encoding: 98 98 69
Width: 585
GlyphClass: 2
Flags: W
LayerCount: 2
Fore
SplineSet
84 0 m 1,0,-1
 84 762 l 1,1,-1
 159 762 l 1,2,-1
 159 434 l 1,3,4
 173 475 173 475 217 510.5 c 128,-1,5
 261 546 261 546 320 546 c 0,6,7
 418 546 418 546 480 470.5 c 128,-1,8
 542 395 542 395 542 265 c 0,9,10
 542 192 542 192 521.5 135.5 c 128,-1,11
 501 79 501 79 468.5 47 c 128,-1,12
 436 15 436 15 398 -1.5 c 128,-1,13
 360 -18 360 -18 320 -18 c 0,14,15
 264 -18 264 -18 221 15 c 128,-1,16
 178 48 178 48 159 94 c 1,17,-1
 159 0 l 1,18,-1
 84 0 l 1,0,-1
157 265 m 0,19,20
 157 165 157 165 201.5 105.5 c 128,-1,21
 246 46 246 46 310 46 c 0,22,23
 378 46 378 46 421.5 104.5 c 128,-1,24
 465 163 465 163 465 265 c 0,25,26
 465 364 465 364 422 423 c 128,-1,27
 379 482 379 482 310 482 c 0,28,29
 246 482 246 482 201.5 423 c 128,-1,30
 157 364 157 364 157 265 c 0,19,20
EndSplineSet
EndChar

StartChar: c
Encoding: 99 99 70
Width: 504
GlyphClass: 2
Flags: W
LayerCount: 2
Fore
SplineSet
43 264 m 0,0,1
 43 390 43 390 107 468 c 128,-1,2
 171 546 171 546 279 546 c 0,3,4
 349 546 349 546 399.5 505 c 128,-1,5
 450 464 450 464 467 408 c 1,6,-1
 402 390 l 1,7,8
 388 429 388 429 355 455.5 c 128,-1,9
 322 482 322 482 279 482 c 0,10,11
 206 482 206 482 163 420 c 128,-1,12
 120 358 120 358 120 264 c 0,13,14
 120 164 120 164 165 105 c 128,-1,15
 210 46 210 46 279 46 c 0,16,17
 325 46 325 46 362.5 76 c 128,-1,18
 400 106 400 106 416 145 c 1,19,-1
 481 125 l 1,20,21
 460 66 460 66 405.5 24 c 128,-1,22
 351 -18 351 -18 279 -18 c 0,23,24
 174 -18 174 -18 108.5 58.5 c 128,-1,25
 43 135 43 135 43 264 c 0,0,1
EndSplineSet
EndChar

StartChar: d
Encoding: 100 100 71
Width: 585
GlyphClass: 2
Flags: W
LayerCount: 2
Fore
SplineSet
43 265 m 0,0,1
 43 395 43 395 106 470.5 c 128,-1,2
 169 546 169 546 265 546 c 0,3,4
 323 546 323 546 365.5 512.5 c 128,-1,5
 408 479 408 479 426 436 c 1,6,-1
 426 762 l 1,7,-1
 500 762 l 1,8,-1
 500 0 l 1,9,-1
 428 0 l 1,10,-1
 428 95 l 1,11,12
 407 46 407 46 364.5 14 c 128,-1,13
 322 -18 322 -18 265 -18 c 0,14,15
 225 -18 225 -18 187 -1.5 c 128,-1,16
 149 15 149 15 116 47 c 128,-1,17
 83 79 83 79 63 135 c 128,-1,18
 43 191 43 191 43 265 c 0,0,1
120 265 m 0,19,20
 120 166 120 166 163 106 c 128,-1,21
 206 46 206 46 275 46 c 0,22,23
 339 46 339 46 383.5 105.5 c 128,-1,24
 428 165 428 165 428 265 c 0,25,26
 428 364 428 364 383.5 423 c 128,-1,27
 339 482 339 482 275 482 c 0,28,29
 205 482 205 482 162.5 422.5 c 128,-1,30
 120 363 120 363 120 265 c 0,19,20
EndSplineSet
EndChar

StartChar: e
Encoding: 101 101 72
Width: 555
GlyphClass: 2
Flags: W
LayerCount: 2
Fore
SplineSet
43 268 m 0,0,1
 43 392 43 392 110 469 c 128,-1,2
 177 546 177 546 283 546 c 0,3,4
 391 546 391 546 452.5 470.5 c 128,-1,5
 514 395 514 395 514 279 c 0,6,7
 514 265 514 265 512 239 c 1,8,-1
 120 239 l 1,9,10
 120 160 120 160 164 103 c 128,-1,11
 208 46 208 46 287 46 c 0,12,13
 338 46 338 46 377 70 c 128,-1,14
 416 94 416 94 438 134 c 1,15,-1
 502 115 l 1,16,17
 478 57 478 57 423 19.5 c 128,-1,18
 368 -18 368 -18 287 -18 c 0,19,20
 177 -18 177 -18 110 60.5 c 128,-1,21
 43 139 43 139 43 268 c 0,0,1
122 297 m 1,22,-1
 438 297 l 1,23,24
 438 375 438 375 395.5 428.5 c 128,-1,25
 353 482 353 482 283 482 c 0,26,27
 211 482 211 482 167.5 427 c 128,-1,28
 124 372 124 372 122 297 c 1,22,-1
EndSplineSet
EndChar

StartChar: f
Encoding: 102 102 73
Width: 336
GlyphClass: 2
Flags: W
LayerCount: 2
Fore
SplineSet
24 464 m 1,0,-1
 24 528 l 1,1,-1
 114 528 l 1,2,-1
 114 609 l 2,3,4
 114 687 114 687 153 724.5 c 128,-1,5
 192 762 192 762 261 762 c 2,6,-1
 330 762 l 1,7,-1
 330 700 l 1,8,-1
 271 700 l 2,9,10
 190 700 190 700 190 602 c 2,11,-1
 190 528 l 1,12,-1
 316 528 l 1,13,-1
 316 464 l 1,14,-1
 190 464 l 1,15,-1
 190 0 l 1,16,-1
 114 0 l 1,17,-1
 114 464 l 1,18,-1
 24 464 l 1,0,-1
EndSplineSet
EndChar

StartChar: g
Encoding: 103 103 74
Width: 572
GlyphClass: 2
Flags: W
LayerCount: 2
Fore
SplineSet
120 274 m 0,0,1
 120 181 120 181 161 123.5 c 128,-1,2
 202 66 202 66 269 66 c 0,3,4
 337 66 337 66 376.5 121 c 128,-1,5
 416 176 416 176 416 275 c 0,6,7
 416 371 416 371 375.5 426.5 c 128,-1,8
 335 482 335 482 271 482 c 0,9,10
 202 482 202 482 161 423.5 c 128,-1,11
 120 365 120 365 120 274 c 0,0,1
43 273 m 0,12,13
 43 395 43 395 104 470.5 c 128,-1,14
 165 546 165 546 261 546 c 0,15,16
 322 546 322 546 360.5 514.5 c 128,-1,17
 399 483 399 483 416 442 c 1,18,-1
 416 528 l 1,19,-1
 491 528 l 1,20,-1
 491 62 l 2,21,22
 491 -88 491 -88 437.5 -161.5 c 128,-1,23
 384 -235 384 -235 267 -235 c 0,24,25
 140 -235 140 -235 71 -138 c 1,26,-1
 124 -104 l 1,27,28
 184 -173 184 -173 269 -173 c 0,29,30
 339 -173 339 -173 377.5 -118.5 c 128,-1,31
 416 -64 416 -64 416 27 c 2,32,-1
 416 103 l 1,33,34
 395 59 395 59 356.5 30.5 c 128,-1,35
 318 2 318 2 263 2 c 0,36,37
 163 2 163 2 103 78 c 128,-1,38
 43 154 43 154 43 273 c 0,12,13
EndSplineSet
EndChar

StartChar: h
Encoding: 104 104 75
Width: 568
GlyphClass: 2
Flags: W
LayerCount: 2
Fore
SplineSet
84 0 m 1,0,-1
 84 762 l 1,1,-1
 159 762 l 1,2,-1
 159 443 l 1,3,-1
 161 443 l 1,4,5
 181 485 181 485 224.5 515.5 c 128,-1,6
 268 546 268 546 324 546 c 0,7,8
 495 546 495 546 495 341 c 2,9,-1
 495 0 l 1,10,-1
 420 0 l 1,11,-1
 420 329 l 2,12,13
 420 482 420 482 310 482 c 0,14,15
 249 482 249 482 204 432 c 128,-1,16
 159 382 159 382 159 313 c 2,17,-1
 159 0 l 1,18,-1
 84 0 l 1,0,-1
EndSplineSet
Substitution2: "'sups' Superscript lookup 5 subtable" uni02B0
Substitution2: "'aalt' Access All Alternates lookup 0 subtable" uni02B0
EndChar

StartChar: i
Encoding: 105 105 76
Width: 270
GlyphClass: 2
Flags: W
LayerCount: 2
Fore
SplineSet
86 647 m 1,0,-1
 86 746 l 1,1,-1
 183 746 l 1,2,-1
 183 647 l 1,3,-1
 86 647 l 1,0,-1
98 0 m 1,4,-1
 98 528 l 1,5,-1
 173 528 l 1,6,-1
 173 0 l 1,7,-1
 98 0 l 1,4,-1
EndSplineSet
EndChar

StartChar: j
Encoding: 106 106 77
Width: 275
GlyphClass: 2
Flags: W
LayerCount: 2
Fore
SplineSet
90 647 m 1,0,-1
 90 746 l 1,1,-1
 188 746 l 1,2,-1
 188 647 l 1,3,-1
 90 647 l 1,0,-1
-10 -160 m 1,4,-1
 14 -160 l 2,5,6
 102 -160 102 -160 102 -38 c 2,7,-1
 102 528 l 1,8,-1
 177 528 l 1,9,-1
 177 -42 l 2,10,11
 177 -131 177 -131 137.5 -177.5 c 128,-1,12
 98 -224 98 -224 26 -224 c 2,13,-1
 -10 -224 l 1,14,-1
 -10 -160 l 1,4,-1
EndSplineSet
Substitution2: "'sups' Superscript lookup 5 subtable" uni02B2
Substitution2: "'aalt' Access All Alternates lookup 0 subtable" uni02B2
EndChar

StartChar: k
Encoding: 107 107 78
Width: 508
GlyphClass: 2
Flags: W
LayerCount: 2
Fore
SplineSet
86 0 m 1,0,-1
 86 762 l 1,1,-1
 163 762 l 1,2,-1
 163 263 l 1,3,-1
 393 528 l 1,4,-1
 493 528 l 1,5,-1
 304 317 l 1,6,-1
 514 0 l 1,7,-1
 422 0 l 1,8,-1
 255 264 l 1,9,-1
 163 161 l 1,10,-1
 163 0 l 1,11,-1
 86 0 l 1,0,-1
EndSplineSet
EndChar

StartChar: l
Encoding: 108 108 79
Width: 255
GlyphClass: 2
Flags: W
LayerCount: 2
Fore
SplineSet
90 0 m 1,0,-1
 90 762 l 1,1,-1
 165 762 l 1,2,-1
 165 0 l 1,3,-1
 90 0 l 1,0,-1
EndSplineSet
Substitution2: "'sups' Superscript lookup 5 subtable" uni02E1
Substitution2: "'aalt' Access All Alternates lookup 0 subtable" uni02E1
EndChar

StartChar: m
Encoding: 109 109 80
Width: 834
GlyphClass: 2
Flags: W
LayerCount: 2
Fore
SplineSet
79 0 m 1,0,-1
 79 528 l 1,1,-1
 153 528 l 1,2,-1
 153 448 l 1,3,4
 167 485 167 485 205 515.5 c 128,-1,5
 243 546 243 546 302 546 c 0,6,7
 360 546 360 546 390.5 513 c 128,-1,8
 421 480 421 480 438 428 c 1,9,10
 443 441 443 441 453.5 457.5 c 128,-1,11
 464 474 464 474 483.5 495.5 c 128,-1,12
 503 517 503 517 536 531.5 c 128,-1,13
 569 546 569 546 608 546 c 0,14,15
 761 546 761 546 761 341 c 2,16,-1
 761 0 l 1,17,-1
 685 0 l 1,18,-1
 685 336 l 2,19,20
 685 408 685 408 665.5 445 c 128,-1,21
 646 482 646 482 591 482 c 0,22,23
 534 482 534 482 495.5 434.5 c 128,-1,24
 457 387 457 387 457 314 c 2,25,-1
 457 0 l 1,26,-1
 383 0 l 1,27,-1
 383 337 l 2,28,29
 383 482 383 482 287 482 c 0,30,31
 227 482 227 482 191 437 c 128,-1,32
 155 392 155 392 155 319 c 2,33,-1
 155 0 l 1,34,-1
 79 0 l 1,0,-1
EndSplineSet
EndChar

StartChar: n
Encoding: 110 110 81
Width: 563
GlyphClass: 2
Flags: W
LayerCount: 2
Fore
SplineSet
79 0 m 1,0,-1
 79 528 l 1,1,-1
 153 528 l 1,2,-1
 153 438 l 1,3,-1
 154 438 l 1,4,5
 166 477 166 477 212 511.5 c 128,-1,6
 258 546 258 546 322 546 c 0,7,8
 395 546 395 546 443 499.5 c 128,-1,9
 491 453 491 453 491 341 c 2,10,-1
 491 0 l 1,11,-1
 414 0 l 1,12,-1
 414 329 l 2,13,14
 414 482 414 482 304 482 c 0,15,16
 243 482 243 482 199 433 c 128,-1,17
 155 384 155 384 155 315 c 2,18,-1
 155 0 l 1,19,-1
 79 0 l 1,0,-1
EndSplineSet
Substitution2: "'sups' Superscript lookup 5 subtable" uni207F
Substitution2: "'aalt' Access All Alternates lookup 0 subtable" uni207F
EndChar

StartChar: o
Encoding: 111 111 82
Width: 561
GlyphClass: 2
Flags: W
LayerCount: 2
Fore
SplineSet
120 264 m 0,0,1
 120 164 120 164 166 105 c 128,-1,2
 212 46 212 46 281 46 c 0,3,4
 348 46 348 46 395 105 c 128,-1,5
 442 164 442 164 442 264 c 0,6,7
 442 366 442 366 394.5 424 c 128,-1,8
 347 482 347 482 281 482 c 0,9,10
 213 482 213 482 166.5 424 c 128,-1,11
 120 366 120 366 120 264 c 0,0,1
43 264 m 0,12,13
 43 385 43 385 105.5 465.5 c 128,-1,14
 168 546 168 546 281 546 c 0,15,16
 393 546 393 546 455.5 465.5 c 128,-1,17
 518 385 518 385 518 264 c 0,18,19
 518 213 518 213 505 165 c 128,-1,20
 492 117 492 117 465 75 c 128,-1,21
 438 33 438 33 390 7.5 c 128,-1,22
 342 -18 342 -18 281 -18 c 256,23,24
 220 -18 220 -18 172.5 7 c 128,-1,25
 125 32 125 32 98 74 c 128,-1,26
 71 116 71 116 57 164 c 128,-1,27
 43 212 43 212 43 264 c 0,12,13
EndSplineSet
Substitution2: "Single Substitution lookup 12 subtable" ordmasculine
EndChar

StartChar: p
Encoding: 112 112 83
Width: 585
GlyphClass: 2
Flags: W
LayerCount: 2
Fore
SplineSet
159 265 m 0,0,1
 159 167 159 167 199 106.5 c 128,-1,2
 239 46 239 46 310 46 c 0,3,4
 377 46 377 46 421 105 c 128,-1,5
 465 164 465 164 465 265 c 0,6,7
 465 360 465 360 423.5 421 c 128,-1,8
 382 482 382 482 310 482 c 0,9,10
 243 482 243 482 201 420.5 c 128,-1,11
 159 359 159 359 159 265 c 0,0,1
84 -231 m 1,12,-1
 84 528 l 1,13,-1
 157 528 l 1,14,-1
 157 433 l 1,15,16
 180 484 180 484 222.5 515 c 128,-1,17
 265 546 265 546 320 546 c 0,18,19
 416 546 416 546 479 469.5 c 128,-1,20
 542 393 542 393 542 265 c 0,21,22
 542 129 542 129 476 55.5 c 128,-1,23
 410 -18 410 -18 320 -18 c 0,24,25
 261 -18 261 -18 220 13 c 128,-1,26
 179 44 179 44 159 91 c 1,27,-1
 159 -231 l 1,28,-1
 84 -231 l 1,12,-1
EndSplineSet
EndChar

StartChar: q
Encoding: 113 113 84
Width: 583
GlyphClass: 2
Flags: W
LayerCount: 2
Fore
SplineSet
120 265 m 0,0,1
 120 165 120 165 163.5 105.5 c 128,-1,2
 207 46 207 46 275 46 c 256,3,4
 343 46 343 46 384.5 106.5 c 128,-1,5
 426 167 426 167 426 265 c 0,6,7
 426 361 426 361 383.5 421.5 c 128,-1,8
 341 482 341 482 275 482 c 0,9,10
 201 482 201 482 160.5 421 c 128,-1,11
 120 360 120 360 120 265 c 0,0,1
43 265 m 0,12,13
 43 394 43 394 105.5 470 c 128,-1,14
 168 546 168 546 265 546 c 0,15,16
 319 546 319 546 361.5 515.5 c 128,-1,17
 404 485 404 485 428 433 c 1,18,-1
 428 528 l 1,19,-1
 500 528 l 1,20,-1
 500 -231 l 1,21,-1
 426 -231 l 1,22,-1
 426 91 l 1,23,24
 406 44 406 44 364 13 c 128,-1,25
 322 -18 322 -18 265 -18 c 0,26,27
 175 -18 175 -18 109 55.5 c 128,-1,28
 43 129 43 129 43 265 c 0,12,13
EndSplineSet
EndChar

StartChar: r
Encoding: 114 114 85
Width: 368
GlyphClass: 2
Flags: W
LayerCount: 2
Fore
SplineSet
79 0 m 1,0,-1
 79 528 l 1,1,-1
 151 528 l 1,2,-1
 151 451 l 1,3,4
 167 487 167 487 203 516.5 c 128,-1,5
 239 546 239 546 296 546 c 0,6,7
 339 546 339 546 371 532 c 1,8,-1
 371 463 l 1,9,10
 336 477 336 477 296 477 c 0,11,12
 230 477 230 477 192.5 427 c 128,-1,13
 155 377 155 377 155 294 c 2,14,-1
 155 0 l 1,15,-1
 79 0 l 1,0,-1
EndSplineSet
Substitution2: "'sups' Superscript lookup 5 subtable" uni02B3
Substitution2: "'aalt' Access All Alternates lookup 0 subtable" uni02B3
EndChar

StartChar: s
Encoding: 115 115 86
Width: 492
GlyphClass: 2
Flags: W
LayerCount: 2
Fore
SplineSet
35 104 m 1,0,-1
 92 137 l 1,1,2
 150 46 150 46 249 46 c 0,3,4
 309 46 309 46 345 67.5 c 128,-1,5
 381 89 381 89 381 131 c 0,6,7
 381 148 381 148 372 162.5 c 128,-1,8
 363 177 363 177 352.5 186 c 128,-1,9
 342 195 342 195 315.5 206.5 c 128,-1,10
 289 218 289 218 272 223.5 c 128,-1,11
 255 229 255 229 216 241 c 0,12,13
 182 252 182 252 157 263 c 128,-1,14
 132 274 132 274 105.5 292 c 128,-1,15
 79 310 79 310 65 336.5 c 128,-1,16
 51 363 51 363 51 397 c 0,17,18
 51 463 51 463 104 504.5 c 128,-1,19
 157 546 157 546 249 546 c 0,20,21
 314 546 314 546 368 511.5 c 128,-1,22
 422 477 422 477 446 431 c 1,23,-1
 394 397 l 1,24,25
 374 432 374 432 335 457 c 128,-1,26
 296 482 296 482 249 482 c 0,27,28
 189 482 189 482 158.5 459 c 128,-1,29
 128 436 128 436 128 396 c 0,30,31
 128 374 128 374 139.5 356 c 128,-1,32
 151 338 151 338 175 324.5 c 128,-1,33
 199 311 199 311 219 303.5 c 128,-1,34
 239 296 239 296 273 286 c 0,35,36
 301 277 301 277 323 269 c 128,-1,37
 345 261 345 261 371.5 247.5 c 128,-1,38
 398 234 398 234 416 218.5 c 128,-1,39
 434 203 434 203 445.5 180 c 128,-1,40
 457 157 457 157 457 131 c 0,41,42
 457 68 457 68 401.5 25 c 128,-1,43
 346 -18 346 -18 249 -18 c 0,44,45
 179 -18 179 -18 124 14 c 128,-1,46
 69 46 69 46 35 104 c 1,0,-1
EndSplineSet
Substitution2: "'hist' Historical Forms lookup 11 subtable" longs
Substitution2: "'sups' Superscript lookup 5 subtable" uni02E2
AlternateSubs2: "'aalt' Access All Alternates lookup 1 subtable" uni02E2 longs
EndChar

StartChar: t
Encoding: 116 116 87
Width: 358
GlyphClass: 2
Flags: W
LayerCount: 2
Fore
SplineSet
20 464 m 1,0,-1
 20 528 l 1,1,-1
 112 528 l 1,2,-1
 112 697 l 1,3,-1
 188 697 l 1,4,-1
 188 528 l 1,5,-1
 328 528 l 1,6,-1
 328 464 l 1,7,-1
 188 464 l 1,8,-1
 188 155 l 2,9,10
 188 106 188 106 207 85.5 c 128,-1,11
 226 65 226 65 267 65 c 2,12,-1
 328 65 l 1,13,-1
 328 0 l 1,14,-1
 257 0 l 2,15,16
 112 0 112 0 112 148 c 2,17,-1
 112 464 l 1,18,-1
 20 464 l 1,0,-1
EndSplineSet
EndChar

StartChar: u
Encoding: 117 117 88
Width: 560
GlyphClass: 2
Flags: W
LayerCount: 2
Fore
SplineSet
73 185 m 2,0,-1
 73 528 l 1,1,-1
 149 528 l 1,2,-1
 149 201 l 2,3,4
 149 46 149 46 263 46 c 0,5,6
 333 46 333 46 369.5 100 c 128,-1,7
 406 154 406 154 406 228 c 2,8,-1
 406 528 l 1,9,-1
 481 528 l 1,10,-1
 481 0 l 1,11,-1
 408 0 l 1,12,-1
 408 85 l 1,13,14
 400 53 400 53 359.5 17.5 c 128,-1,15
 319 -18 319 -18 245 -18 c 0,16,17
 170 -18 170 -18 121.5 33.5 c 128,-1,18
 73 85 73 85 73 185 c 2,0,-1
EndSplineSet
EndChar

StartChar: v
Encoding: 118 118 89
Width: 497
GlyphClass: 2
Flags: W
LayerCount: 2
Fore
SplineSet
8 528 m 1,0,-1
 92 528 l 1,1,-1
 206 197 l 2,2,3
 214 173 214 173 227.5 128.5 c 128,-1,4
 241 84 241 84 247 66 c 1,5,-1
 249 66 l 1,6,7
 256 88 256 88 271 131.5 c 128,-1,8
 286 175 286 175 292 197 c 2,9,-1
 404 528 l 1,10,-1
 489 528 l 1,11,-1
 294 0 l 1,12,-1
 202 0 l 1,13,-1
 8 528 l 1,0,-1
EndSplineSet
EndChar

StartChar: w
Encoding: 119 119 90
Width: 715
GlyphClass: 2
Flags: W
LayerCount: 2
Fore
SplineSet
8 528 m 1,0,-1
 92 528 l 1,1,-1
 170 200 l 2,2,3
 194 87 194 87 198 70 c 1,4,-1
 202 70 l 1,5,6
 207 93 207 93 218 137.5 c 128,-1,7
 229 182 229 182 233 200 c 2,8,-1
 313 528 l 1,9,-1
 403 528 l 1,10,-1
 485 196 l 2,11,12
 489 180 489 180 498.5 138.5 c 128,-1,13
 508 97 508 97 514 70 c 1,14,-1
 518 70 l 1,15,16
 521 81 521 81 547 200 c 2,17,-1
 624 528 l 1,18,-1
 708 528 l 1,19,-1
 563 0 l 1,20,-1
 468 0 l 1,21,-1
 389 318 l 2,22,23
 362 438 362 438 360 447 c 1,24,-1
 356 447 l 1,25,26
 333 337 333 337 328 318 c 2,27,-1
 248 0 l 1,28,-1
 153 0 l 1,29,-1
 8 528 l 1,0,-1
EndSplineSet
Substitution2: "'sups' Superscript lookup 5 subtable" uni02B7
Substitution2: "'aalt' Access All Alternates lookup 0 subtable" uni02B7
EndChar

StartChar: x
Encoding: 120 120 91
Width: 482
GlyphClass: 2
Flags: W
LayerCount: 2
Fore
SplineSet
4 0 m 1,0,-1
 194 274 l 1,1,-1
 14 528 l 1,2,-1
 104 528 l 1,3,-1
 196 392 l 2,4,5
 204 379 204 379 218 358 c 128,-1,6
 232 337 232 337 237 329 c 1,7,-1
 241 329 l 1,8,9
 247 340 247 340 261.5 361.5 c 128,-1,10
 276 383 276 383 282 392 c 2,11,-1
 373 528 l 1,12,-1
 463 528 l 1,13,-1
 285 274 l 1,14,-1
 475 0 l 1,15,-1
 385 0 l 1,16,-1
 282 157 l 2,17,18
 256 193 256 193 241 217 c 1,19,-1
 237 217 l 1,20,21
 233 208 233 208 198 157 c 2,22,-1
 94 0 l 1,23,-1
 4 0 l 1,0,-1
EndSplineSet
Substitution2: "'sups' Superscript lookup 5 subtable" uni02E3
Substitution2: "'aalt' Access All Alternates lookup 0 subtable" uni02E3
EndChar

StartChar: y
Encoding: 121 121 92
Width: 494
GlyphClass: 2
Flags: W
LayerCount: 2
Fore
SplineSet
8 528 m 1,0,-1
 96 528 l 1,1,-1
 205 219 l 2,2,3
 230 150 230 150 249 85 c 1,4,-1
 253 85 l 1,5,6
 268 133 268 133 296 219 c 2,7,-1
 400 528 l 1,8,-1
 487 528 l 1,9,-1
 259 -88 l 2,10,11
 230 -167 230 -167 191 -199 c 128,-1,12
 152 -231 152 -231 96 -231 c 2,13,-1
 67 -231 l 1,14,-1
 67 -168 l 1,15,-1
 84 -168 l 2,16,17
 122 -168 122 -168 148 -146.5 c 128,-1,18
 174 -125 174 -125 194 -69 c 2,19,-1
 214 -7 l 1,20,-1
 8 528 l 1,0,-1
EndSplineSet
Substitution2: "'sups' Superscript lookup 5 subtable" uni02B8
Substitution2: "'aalt' Access All Alternates lookup 0 subtable" uni02B8
EndChar

StartChar: z
Encoding: 122 122 93
Width: 477
GlyphClass: 2
Flags: W
LayerCount: 2
Fore
SplineSet
31 0 m 1,0,-1
 31 51 l 1,1,-1
 340 464 l 1,2,-1
 59 464 l 1,3,-1
 59 528 l 1,4,-1
 438 528 l 1,5,-1
 438 480 l 1,6,-1
 128 64 l 1,7,-1
 446 64 l 1,8,-1
 446 0 l 1,9,-1
 31 0 l 1,0,-1
EndSplineSet
EndChar

StartChar: braceleft
Encoding: 123 123 94
Width: 446
GlyphClass: 2
Flags: W
LayerCount: 2
Fore
SplineSet
66 319 m 1,0,-1
 66 378 l 1,1,-1
 93 378 l 2,2,3
 166 378 166 378 166 512 c 2,4,-1
 166 704 l 2,5,6
 166 764 166 764 199.5 798 c 128,-1,7
 233 832 233 832 284 832 c 2,8,-1
 361 832 l 1,9,-1
 361 769 l 1,10,-1
 296 769 l 2,11,12
 273 769 273 769 257 749.5 c 128,-1,13
 241 730 241 730 241 694 c 2,14,-1
 241 499 l 2,15,16
 241 437 241 437 222 404 c 128,-1,17
 203 371 203 371 168 348 c 1,18,19
 241 310 241 310 241 210 c 2,20,-1
 241 17 l 2,21,22
 241 -25 241 -25 257 -45.5 c 128,-1,23
 273 -66 273 -66 298 -66 c 2,24,-1
 361 -66 l 1,25,-1
 361 -128 l 1,26,-1
 284 -128 l 2,27,28
 234 -128 234 -128 200 -96.5 c 128,-1,29
 166 -65 166 -65 166 -1 c 2,30,-1
 166 197 l 2,31,32
 166 255 166 255 145.5 287 c 128,-1,33
 125 319 125 319 93 319 c 2,34,-1
 66 319 l 1,0,-1
EndSplineSet
EndChar

StartChar: bar
Encoding: 124 124 95
Width: 268
GlyphClass: 2
Flags: W
LayerCount: 2
Fore
SplineSet
96 -166 m 1,0,-1
 96 866 l 1,1,-1
 173 866 l 1,2,-1
 173 -166 l 1,3,-1
 96 -166 l 1,0,-1
EndSplineSet
EndChar

StartChar: braceright
Encoding: 125 125 96
Width: 446
GlyphClass: 2
Flags: W
LayerCount: 2
Fore
SplineSet
84 -66 m 1,0,-1
 147 -66 l 2,1,2
 173 -66 173 -66 188.5 -45.5 c 128,-1,3
 204 -25 204 -25 204 17 c 2,4,-1
 204 210 l 2,5,6
 204 310 204 310 278 348 c 1,7,8
 242 371 242 371 223 404 c 128,-1,9
 204 437 204 437 204 499 c 2,10,-1
 204 694 l 2,11,12
 204 730 204 730 189 749.5 c 128,-1,13
 174 769 174 769 149 769 c 2,14,-1
 84 769 l 1,15,-1
 84 832 l 1,16,-1
 162 832 l 2,17,18
 213 832 213 832 246.5 798 c 128,-1,19
 280 764 280 764 280 704 c 2,20,-1
 280 512 l 2,21,22
 280 378 280 378 352 378 c 2,23,-1
 380 378 l 1,24,-1
 380 319 l 1,25,-1
 352 319 l 2,26,27
 320 319 320 319 300 286.5 c 128,-1,28
 280 254 280 254 280 197 c 2,29,-1
 280 -1 l 2,30,31
 280 -65 280 -65 246 -96.5 c 128,-1,32
 212 -128 212 -128 162 -128 c 2,33,-1
 84 -128 l 1,34,-1
 84 -66 l 1,0,-1
EndSplineSet
EndChar

StartChar: asciitilde
Encoding: 126 126 97
Width: 759
GlyphClass: 2
Flags: W
LayerCount: 2
Fore
SplineSet
69 308 m 1,0,1
 134 449 134 449 259 449 c 0,2,3
 297 449 297 449 333 429 c 128,-1,4
 369 409 369 409 391.5 385 c 128,-1,5
 414 361 414 361 443.5 341 c 128,-1,6
 473 321 473 321 500 321 c 0,7,8
 515 321 515 321 529 324.5 c 128,-1,9
 543 328 543 328 552.5 333 c 128,-1,10
 562 338 562 338 572 347 c 128,-1,11
 582 356 582 356 588 362.5 c 128,-1,12
 594 369 594 369 601 381.5 c 128,-1,13
 608 394 608 394 611 399 c 128,-1,14
 614 404 614 404 620 417 c 128,-1,15
 626 430 626 430 627 432 c 1,16,-1
 690 400 l 1,17,18
 620 258 620 258 502 258 c 0,19,20
 462 258 462 258 426 278 c 128,-1,21
 390 298 390 298 367 322 c 128,-1,22
 344 346 344 346 315.5 366.5 c 128,-1,23
 287 387 287 387 259 387 c 0,24,25
 184 387 184 387 131 276 c 1,26,-1
 69 308 l 1,0,1
EndSplineSet
EndChar

StartChar: exclamdown
Encoding: 161 161 99
Width: 310
GlyphClass: 2
Flags: W
LayerCount: 2
Fore
SplineSet
112 -211 m 1,0,-1
 121 318 l 1,1,-1
 190 318 l 1,2,-1
 199 -211 l 1,3,-1
 112 -211 l 1,0,-1
93 419 m 1,4,-1
 93 532 l 1,5,-1
 217 532 l 1,6,-1
 217 419 l 1,7,-1
 93 419 l 1,4,-1
EndSplineSet
EndChar

StartChar: cent
Encoding: 162 162 100
Width: 503
GlyphClass: 2
Flags: W
LayerCount: 2
Fore
SplineSet
43 264 m 0,0,1
 43 375 43 375 96.5 454 c 128,-1,2
 150 533 150 533 244 543 c 1,3,-1
 244 620 l 1,4,-1
 314 620 l 1,5,-1
 314 543 l 1,6,7
 374 532 374 532 412.5 494 c 128,-1,8
 451 456 451 456 466 409 c 1,9,-1
 403 390 l 1,10,11
 387 428 387 428 355.5 455 c 128,-1,12
 324 482 324 482 282 482 c 0,13,14
 206 482 206 482 163 420.5 c 128,-1,15
 120 359 120 359 120 264 c 0,16,17
 120 166 120 166 164 106 c 128,-1,18
 208 46 208 46 281 46 c 0,19,20
 325 46 325 46 361.5 75.5 c 128,-1,21
 398 105 398 105 415 145 c 1,22,-1
 480 125 l 1,23,24
 461 75 461 75 419 36.5 c 128,-1,25
 377 -2 377 -2 314 -15 c 1,26,-1
 314 -96 l 1,27,-1
 244 -96 l 1,28,-1
 244 -15 l 1,29,30
 155 -6 155 -6 99 69.5 c 128,-1,31
 43 145 43 145 43 264 c 0,0,1
EndSplineSet
EndChar

StartChar: sterling
Encoding: 163 163 101
Width: 584
GlyphClass: 2
Flags: W
LayerCount: 2
Fore
SplineSet
38 332 m 1,0,-1
 38 398 l 1,1,-1
 147 398 l 1,2,-1
 147 569 l 2,3,4
 147 656 147 656 202.5 704.5 c 128,-1,5
 258 753 258 753 351 753 c 0,6,7
 415 753 415 753 462 721 c 128,-1,8
 509 689 509 689 531 646 c 1,9,-1
 478 612 l 1,10,11
 458 643 458 643 425 664.5 c 128,-1,12
 392 686 392 686 352 686 c 0,13,14
 294 686 294 686 259.5 654.5 c 128,-1,15
 225 623 225 623 225 562 c 2,16,-1
 225 398 l 1,17,-1
 450 398 l 1,18,-1
 450 332 l 1,19,-1
 225 332 l 1,20,-1
 225 211 l 2,21,22
 225 108 225 108 177 70 c 1,23,24
 231 79 231 79 264 79 c 0,25,26
 293 79 293 79 342.5 64 c 128,-1,27
 392 49 392 49 425 49 c 0,28,29
 496 49 496 49 551 80 c 1,30,-1
 574 18 l 1,31,32
 503 -18 503 -18 423 -18 c 0,33,34
 392 -18 392 -18 331.5 -1.5 c 128,-1,35
 271 15 271 15 240 15 c 0,36,37
 207 15 207 15 162 8 c 128,-1,38
 117 1 117 1 88 -6 c 2,39,-1
 61 -13 l 1,40,-1
 39 44 l 1,41,42
 93 58 93 58 120 102 c 128,-1,43
 147 146 147 146 147 207 c 2,44,-1
 147 332 l 1,45,-1
 38 332 l 1,0,-1
EndSplineSet
EndChar

StartChar: currency
Encoding: 164 164 102
Width: 633
GlyphClass: 2
Flags: W
LayerCount: 2
Fore
SplineSet
26 144 m 1,0,-1
 136 246 l 1,1,2
 95 297 95 297 95 368 c 0,3,4
 95 442 95 442 135 491 c 1,5,-1
 26 592 l 1,6,-1
 79 641 l 1,7,-1
 184 540 l 1,8,9
 245 584 245 584 317 584 c 0,10,11
 391 584 391 584 450 540 c 1,12,-1
 554 640 l 1,13,-1
 606 591 l 1,14,-1
 499 491 l 1,15,16
 540 443 540 443 540 368 c 0,17,18
 540 297 540 297 499 246 c 1,19,-1
 606 144 l 1,20,-1
 555 95 l 1,21,-1
 449 196 l 1,22,23
 393 152 393 152 317 152 c 0,24,25
 242 152 242 152 184 196 c 1,26,-1
 79 96 l 1,27,-1
 26 144 l 1,0,-1
165 368 m 256,28,29
 165 306 165 306 207.5 262 c 128,-1,30
 250 218 250 218 317 218 c 256,31,32
 384 218 384 218 427 262 c 128,-1,33
 470 306 470 306 470 368 c 0,34,35
 470 431 470 431 426.5 474 c 128,-1,36
 383 517 383 517 317 517 c 256,37,38
 251 517 251 517 208 473.5 c 128,-1,39
 165 430 165 430 165 368 c 256,28,29
EndSplineSet
EndChar

StartChar: yen
Encoding: 165 165 103
Width: 591
GlyphClass: 2
Flags: W
LayerCount: 2
Fore
SplineSet
-4 735 m 1,0,-1
 90 735 l 1,1,-1
 212 550 l 2,2,3
 266 465 266 465 294 416 c 1,4,-1
 296 416 l 1,5,6
 346 497 346 497 378 550 c 2,7,-1
 500 735 l 1,8,-1
 595 735 l 1,9,-1
 374 404 l 1,10,-1
 528 404 l 1,11,-1
 528 347 l 1,12,-1
 335 347 l 1,13,-1
 335 233 l 1,14,-1
 528 233 l 1,15,-1
 528 176 l 1,16,-1
 335 176 l 1,17,-1
 335 0 l 1,18,-1
 256 0 l 1,19,-1
 256 176 l 1,20,-1
 62 176 l 1,21,-1
 62 233 l 1,22,-1
 256 233 l 1,23,-1
 256 347 l 1,24,-1
 62 347 l 1,25,-1
 62 404 l 1,26,-1
 217 404 l 1,27,-1
 -4 735 l 1,0,-1
EndSplineSet
EndChar

StartChar: brokenbar
Encoding: 166 166 104
Width: 268
GlyphClass: 2
Flags: W
LayerCount: 2
Fore
SplineSet
96 462 m 1,0,-1
 96 866 l 1,1,-1
 173 866 l 1,2,-1
 173 462 l 1,3,-1
 96 462 l 1,0,-1
96 -166 m 1,4,-1
 96 237 l 1,5,-1
 173 237 l 1,6,-1
 173 -166 l 1,7,-1
 96 -166 l 1,4,-1
EndSplineSet
EndChar

StartChar: section
Encoding: 167 167 105
Width: 559
GlyphClass: 2
Flags: W
LayerCount: 2
Fore
SplineSet
58 46 m 1,0,-1
 110 84 l 1,1,2
 132 52 132 52 171.5 31.5 c 128,-1,3
 211 11 211 11 259 11 c 0,4,5
 379 11 379 11 379 84 c 0,6,7
 379 112 379 112 361.5 127.5 c 128,-1,8
 344 143 344 143 303 163 c 2,9,-1
 196 211 l 2,10,11
 132 239 132 239 102 272.5 c 128,-1,12
 72 306 72 306 72 354 c 0,13,14
 72 389 72 389 89.5 419.5 c 128,-1,15
 107 450 107 450 124.5 466.5 c 128,-1,16
 142 483 142 483 169 502 c 1,17,18
 101 554 101 554 101 610 c 0,19,20
 101 674 101 674 151.5 713.5 c 128,-1,21
 202 753 202 753 300 753 c 0,22,23
 365 753 365 753 417.5 724.5 c 128,-1,24
 470 696 470 696 499 651 c 1,25,-1
 448 612 l 1,26,27
 385 686 385 686 298 686 c 0,28,29
 237 686 237 686 208.5 665 c 128,-1,30
 180 644 180 644 180 610 c 0,31,32
 180 598 180 598 183.5 587 c 128,-1,33
 187 576 187 576 197.5 565.5 c 128,-1,34
 208 555 208 555 217 548 c 128,-1,35
 226 541 226 541 244 531.5 c 128,-1,36
 262 522 262 522 272.5 516.5 c 128,-1,37
 283 511 283 511 306.5 501 c 128,-1,38
 330 491 330 491 340 486 c 0,39,40
 380 466 380 466 402 454 c 128,-1,41
 424 442 424 442 450 421.5 c 128,-1,42
 476 401 476 401 487.5 376.5 c 128,-1,43
 499 352 499 352 499 321 c 0,44,45
 499 244 499 244 416 176 c 1,46,47
 457 138 457 138 457 84 c 0,48,49
 457 22 457 22 408.5 -17 c 128,-1,50
 360 -56 360 -56 260 -56 c 0,51,52
 191 -56 191 -56 137.5 -25.5 c 128,-1,53
 84 5 84 5 58 46 c 1,0,-1
151 358 m 0,54,55
 151 322 151 322 170.5 305 c 128,-1,56
 190 288 190 288 245 262 c 2,57,-1
 355 213 l 1,58,59
 420 265 420 265 420 321 c 0,60,61
 420 352 420 352 396 373 c 128,-1,62
 372 394 372 394 316 422 c 2,63,-1
 228 467 l 1,64,65
 190 440 190 440 170.5 416 c 128,-1,66
 151 392 151 392 151 358 c 0,54,55
EndSplineSet
EndChar

StartChar: dieresis
Encoding: 168 168 106
Width: 477
GlyphClass: 2
Flags: W
LayerCount: 2
Fore
SplineSet
99 635 m 1,0,-1
 99 735 l 1,1,-1
 199 735 l 1,2,-1
 199 635 l 1,3,-1
 99 635 l 1,0,-1
279 635 m 1,4,-1
 279 735 l 1,5,-1
 378 735 l 1,6,-1
 378 635 l 1,7,-1
 279 635 l 1,4,-1
EndSplineSet
EndChar

StartChar: copyright
Encoding: 169 169 107
Width: 875
GlyphClass: 2
Flags: W
LayerCount: 2
Fore
SplineSet
252 372 m 0,0,1
 252 478 252 478 306 543 c 128,-1,2
 360 608 360 608 451 608 c 0,3,4
 556 608 556 608 608 496 c 1,5,-1
 551 476 l 1,6,7
 510 548 510 548 450 548 c 0,8,9
 391 548 391 548 356 499.5 c 128,-1,10
 321 451 321 451 321 372 c 0,11,12
 321 290 321 290 356 242.5 c 128,-1,13
 391 195 391 195 450 195 c 0,14,15
 488 195 488 195 517 217.5 c 128,-1,16
 546 240 546 240 559 274 c 1,17,-1
 620 255 l 1,18,19
 603 207 603 207 558.5 171 c 128,-1,20
 514 135 514 135 450 135 c 0,21,22
 362 135 362 135 307 199.5 c 128,-1,23
 252 264 252 264 252 372 c 0,0,1
47 373 m 0,24,25
 47 547 47 547 158.5 656.5 c 128,-1,26
 270 766 270 766 438 766 c 0,27,28
 607 766 607 766 718 656 c 128,-1,29
 829 546 829 546 829 373 c 0,30,31
 829 203 829 203 718.5 91.5 c 128,-1,32
 608 -20 608 -20 438 -20 c 0,33,34
 270 -20 270 -20 158.5 90 c 128,-1,35
 47 200 47 200 47 373 c 0,24,25
104 373 m 0,36,37
 104 226 104 226 196.5 129.5 c 128,-1,38
 289 33 289 33 438 33 c 0,39,40
 585 33 585 33 678.5 128 c 128,-1,41
 772 223 772 223 772 373 c 0,42,43
 772 521 772 521 678.5 617 c 128,-1,44
 585 713 585 713 438 713 c 256,45,46
 291 713 291 713 197.5 618 c 128,-1,47
 104 523 104 523 104 373 c 0,36,37
EndSplineSet
EndChar

StartChar: ordfeminine
Encoding: 170 170 108
Width: 388
GlyphClass: 2
Flags: W
LayerCount: 2
Fore
SplineSet
40 330 m 1,0,-1
 40 383 l 1,1,-1
 347 383 l 1,2,-1
 347 330 l 1,3,-1
 40 330 l 1,0,-1
91 547 m 0,4,5
 91 523 91 523 111 506.5 c 128,-1,6
 131 490 131 490 167 490 c 0,7,8
 212 490 212 490 245 519.5 c 128,-1,9
 278 549 278 549 278 595 c 2,10,-1
 278 640 l 1,11,12
 262 636 262 636 232 631.5 c 128,-1,13
 202 627 202 627 181 622.5 c 128,-1,14
 160 618 160 618 137.5 609.5 c 128,-1,15
 115 601 115 601 103 585 c 128,-1,16
 91 569 91 569 91 547 c 0,4,5
31 543 m 0,17,18
 31 579 31 579 48 604.5 c 128,-1,19
 65 630 65 630 96 643 c 128,-1,20
 127 656 127 656 155 663.5 c 128,-1,21
 183 671 183 671 221.5 677.5 c 128,-1,22
 260 684 260 684 278 689 c 1,23,-1
 278 707 l 2,24,25
 278 738 278 738 255 759 c 128,-1,26
 232 780 232 780 189 780 c 0,27,28
 152 780 152 780 121.5 761 c 128,-1,29
 91 742 91 742 79 723 c 1,30,-1
 39 756 l 1,31,32
 55 778 55 778 96.5 803.5 c 128,-1,33
 138 829 138 829 188 829 c 0,34,35
 337 829 337 829 337 685 c 2,36,-1
 337 450 l 1,37,-1
 280 450 l 1,38,-1
 280 498 l 1,39,40
 264 472 264 472 232.5 455.5 c 128,-1,41
 201 439 201 439 161 439 c 0,42,43
 100 439 100 439 65.5 468 c 128,-1,44
 31 497 31 497 31 543 c 0,17,18
EndSplineSet
EndChar

StartChar: guillemotleft
Encoding: 171 171 109
Width: 462
GlyphClass: 2
Flags: W
LayerCount: 2
Fore
SplineSet
38 249 m 1,0,-1
 197 474 l 1,1,-1
 253 437 l 1,2,-1
 122 249 l 1,3,-1
 252 63 l 1,4,-1
 197 25 l 1,5,-1
 38 249 l 1,0,-1
214 249 m 1,6,-1
 373 467 l 1,7,-1
 427 427 l 1,8,-1
 297 249 l 1,9,-1
 427 71 l 1,10,-1
 373 31 l 1,11,-1
 214 249 l 1,6,-1
EndSplineSet
EndChar

StartChar: logicalnot
Encoding: 172 172 110
Width: 546
GlyphClass: 2
Flags: W
LayerCount: 2
Fore
SplineSet
48 316 m 1,0,-1
 48 383 l 1,1,-1
 499 383 l 1,2,-1
 499 124 l 1,3,-1
 426 124 l 1,4,-1
 426 316 l 1,5,-1
 48 316 l 1,0,-1
EndSplineSet
EndChar

StartChar: uni00AD
Encoding: 173 173 111
Width: 558
GlyphClass: 2
Flags: W
LayerCount: 2
Fore
SplineSet
57 331 m 1,0,-1
 57 397 l 1,1,-1
 500 397 l 1,2,-1
 500 331 l 1,3,-1
 57 331 l 1,0,-1
EndSplineSet
EndChar

StartChar: registered
Encoding: 174 174 112
Width: 875
GlyphClass: 2
Flags: W
LayerCount: 2
Fore
SplineSet
299 146 m 1,0,-1
 299 595 l 1,1,-1
 473 595 l 2,2,3
 538 595 538 595 572.5 558.5 c 128,-1,4
 607 522 607 522 607 468 c 0,5,6
 607 389 607 389 539 358 c 1,7,8
 573 336 573 336 586 274 c 0,9,10
 599 213 599 213 633 146 c 1,11,-1
 559 146 l 1,12,13
 536 188 536 188 519 267 c 0,14,15
 515 289 515 289 510.5 300.5 c 128,-1,16
 506 312 506 312 493.5 323.5 c 128,-1,17
 481 335 481 335 461 335 c 2,18,-1
 366 335 l 1,19,-1
 366 146 l 1,20,-1
 299 146 l 1,0,-1
366 390 m 1,21,-1
 462 390 l 2,22,23
 499 390 499 390 520 409.5 c 128,-1,24
 541 429 541 429 541 463 c 0,25,26
 541 494 541 494 520.5 514 c 128,-1,27
 500 534 500 534 462 534 c 2,28,-1
 366 534 l 1,29,-1
 366 390 l 1,21,-1
47 374 m 256,30,31
 47 548 47 548 158.5 657 c 128,-1,32
 270 766 270 766 438 766 c 0,33,34
 607 766 607 766 718 656.5 c 128,-1,35
 829 547 829 547 829 374 c 0,36,37
 829 204 829 204 719 92 c 128,-1,38
 609 -20 609 -20 438 -20 c 0,39,40
 270 -20 270 -20 158.5 90 c 128,-1,41
 47 200 47 200 47 374 c 256,30,31
104 374 m 0,42,43
 104 226 104 226 196.5 129.5 c 128,-1,44
 289 33 289 33 438 33 c 0,45,46
 585 33 585 33 678.5 129.5 c 128,-1,47
 772 226 772 226 772 374 c 0,48,49
 772 523 772 523 678 618 c 128,-1,50
 584 713 584 713 438 713 c 0,51,52
 291 713 291 713 197.5 618.5 c 128,-1,53
 104 524 104 524 104 374 c 0,42,43
EndSplineSet
EndChar

StartChar: macron
Encoding: 175 175 113
Width: 505
GlyphClass: 2
Flags: W
LayerCount: 2
Fore
SplineSet
0 743 m 1,0,-1
 0 809 l 1,1,-1
 506 809 l 1,2,-1
 506 743 l 1,3,-1
 0 743 l 1,0,-1
EndSplineSet
EndChar

StartChar: degree
Encoding: 176 176 114
Width: 419
GlyphClass: 2
Flags: W
LayerCount: 2
Fore
SplineSet
84 620 m 0,0,1
 84 670 84 670 119.5 706 c 128,-1,2
 155 742 155 742 210 742 c 0,3,4
 262 742 262 742 298.5 707.5 c 128,-1,5
 335 673 335 673 335 620 c 256,6,7
 335 567 335 567 298.5 533 c 128,-1,8
 262 499 262 499 210 499 c 0,9,10
 157 499 157 499 120.5 533.5 c 128,-1,11
 84 568 84 568 84 620 c 0,0,1
135 620 m 0,12,13
 135 588 135 588 156.5 567.5 c 128,-1,14
 178 547 178 547 210 547 c 0,15,16
 240 547 240 547 261.5 567.5 c 128,-1,17
 283 588 283 588 283 620 c 0,18,19
 283 651 283 651 262.5 672.5 c 128,-1,20
 242 694 242 694 210 694 c 0,21,22
 177 694 177 694 156 672 c 128,-1,23
 135 650 135 650 135 620 c 0,12,13
EndSplineSet
EndChar

StartChar: plusminus
Encoding: 177 177 115
Width: 558
GlyphClass: 2
Flags: W
LayerCount: 2
Fore
SplineSet
45 403 m 1,0,-1
 45 470 l 1,1,-1
 241 470 l 1,2,-1
 241 646 l 1,3,-1
 316 646 l 1,4,-1
 316 470 l 1,5,-1
 513 470 l 1,6,-1
 513 403 l 1,7,-1
 316 403 l 1,8,-1
 316 231 l 1,9,-1
 241 231 l 1,10,-1
 241 403 l 1,11,-1
 45 403 l 1,0,-1
45 96 m 1,12,-1
 45 163 l 1,13,-1
 513 163 l 1,14,-1
 513 96 l 1,15,-1
 45 96 l 1,12,-1
EndSplineSet
EndChar

StartChar: twosuperior
Encoding: 178 178 116
Width: 323
GlyphClass: 2
Flags: W
LayerCount: 2
Fore
SplineSet
28 714 m 1,0,1
 32 729 32 729 34 735.5 c 128,-1,2
 36 742 36 742 46.5 762.5 c 128,-1,3
 57 783 57 783 69.5 794.5 c 128,-1,4
 82 806 82 806 106.5 816.5 c 128,-1,5
 131 827 131 827 161 827 c 0,6,7
 216 827 216 827 251.5 795 c 128,-1,8
 287 763 287 763 287 708 c 0,9,10
 287 647 287 647 213 573 c 0,11,12
 204 564 204 564 182 543 c 128,-1,13
 160 522 160 522 148.5 510.5 c 128,-1,14
 137 499 137 499 123 480.5 c 128,-1,15
 109 462 109 462 101 446 c 1,16,-1
 287 446 l 1,17,-1
 287 396 l 1,18,-1
 31 396 l 1,19,20
 31 446 31 446 60 487.5 c 128,-1,21
 89 529 89 529 177 612 c 0,22,23
 229 660 229 660 229 708 c 0,24,25
 229 742 229 742 210.5 760 c 128,-1,26
 192 778 192 778 160 778 c 0,27,28
 137 778 137 778 121 769.5 c 128,-1,29
 105 761 105 761 95.5 743.5 c 128,-1,30
 86 726 86 726 84 720 c 128,-1,31
 82 714 82 714 79 701 c 1,32,-1
 28 714 l 1,0,1
EndSplineSet
EndChar

StartChar: threesuperior
Encoding: 179 179 117
Width: 323
GlyphClass: 2
Flags: W
LayerCount: 2
Fore
SplineSet
21 479 m 1,0,-1
 68 498 l 1,1,2
 99 437 99 437 156 437 c 0,3,4
 191 437 191 437 215 457.5 c 128,-1,5
 239 478 239 478 239 518 c 0,6,7
 239 554 239 554 212.5 574.5 c 128,-1,8
 186 595 186 595 148 595 c 0,9,10
 133 595 133 595 110 593 c 1,11,-1
 110 644 l 1,12,13
 139 642 139 642 146 642 c 0,14,15
 180 642 180 642 201.5 661 c 128,-1,16
 223 680 223 680 223 713 c 0,17,18
 223 743 223 743 203.5 761.5 c 128,-1,19
 184 780 184 780 154 780 c 0,20,21
 105 780 105 780 79 716 c 1,22,-1
 32 732 l 1,23,24
 66 828 66 828 156 828 c 0,25,26
 213 828 213 828 247 796.5 c 128,-1,27
 281 765 281 765 281 717 c 0,28,29
 281 653 281 653 227 622 c 1,30,31
 297 593 297 593 297 518 c 0,32,33
 297 457 297 457 258 422.5 c 128,-1,34
 219 388 219 388 156 388 c 0,35,36
 59 388 59 388 21 479 c 1,0,-1
EndSplineSet
EndChar

StartChar: acute
Encoding: 180 180 118
Width: 334
GlyphClass: 2
Flags: W
LayerCount: 2
Fore
SplineSet
72 653 m 1,0,-1
 183 824 l 1,1,-1
 282 824 l 1,2,-1
 138 653 l 1,3,-1
 72 653 l 1,0,-1
EndSplineSet
EndChar

StartChar: uni00B5
Encoding: 181 181 119
Width: 572
GlyphClass: 2
Flags: W
LayerCount: 2
Fore
SplineSet
84 -231 m 1,0,-1
 84 528 l 1,1,-1
 160 528 l 1,2,-1
 160 201 l 2,3,4
 160 46 160 46 273 46 c 0,5,6
 343 46 343 46 380 100 c 128,-1,7
 417 154 417 154 417 228 c 2,8,-1
 417 528 l 1,9,-1
 493 528 l 1,10,-1
 493 0 l 1,11,-1
 420 0 l 1,12,-1
 420 85 l 1,13,-1
 419 85 l 1,14,15
 405 41 405 41 362.5 11.5 c 128,-1,16
 320 -18 320 -18 259 -18 c 0,17,18
 193 -18 193 -18 160 35 c 1,19,-1
 160 -231 l 1,20,-1
 84 -231 l 1,0,-1
EndSplineSet
EndChar

StartChar: paragraph
Encoding: 182 182 120
Width: 630
GlyphClass: 2
Flags: W
LayerCount: 2
Fore
SplineSet
58 544 m 0,0,1
 58 644 58 644 110.5 705 c 128,-1,2
 163 766 163 766 260 766 c 2,3,-1
 542 766 l 1,4,-1
 542 -72 l 1,5,-1
 478 -72 l 1,6,-1
 478 697 l 1,7,-1
 375 697 l 1,8,-1
 375 -72 l 1,9,-1
 311 -72 l 1,10,-1
 311 325 l 1,11,12
 280 315 280 315 247 315 c 0,13,14
 167 315 167 315 112.5 375 c 128,-1,15
 58 435 58 435 58 544 c 0,0,1
EndSplineSet
EndChar

StartChar: periodcentered
Encoding: 183 183 121
Width: 338
GlyphClass: 2
Flags: W
LayerCount: 2
Fore
SplineSet
107 294 m 1,0,-1
 107 411 l 1,1,-1
 231 411 l 1,2,-1
 231 294 l 1,3,-1
 107 294 l 1,0,-1
EndSplineSet
EndChar

StartChar: cedilla
Encoding: 184 184 122
Width: 296
GlyphClass: 2
Flags: W
LayerCount: 2
Fore
SplineSet
44 -166 m 1,0,1
 85 -176 85 -176 108 -176 c 0,2,3
 176 -176 176 -176 176 -133 c 256,4,5
 176 -90 176 -90 80 -81 c 1,6,-1
 127 14 l 1,7,-1
 194 14 l 1,8,-1
 166 -45 l 1,9,10
 246 -66 246 -66 246 -134 c 0,11,12
 246 -178 246 -178 214.5 -205 c 128,-1,13
 183 -232 183 -232 114 -232 c 0,14,15
 74 -232 74 -232 44 -222 c 1,16,-1
 44 -166 l 1,0,1
EndSplineSet
EndChar

StartChar: onesuperior
Encoding: 185 185 123
Width: 323
GlyphClass: 2
Flags: W
LayerCount: 2
Fore
SplineSet
54 713 m 1,0,-1
 54 760 l 1,1,-1
 78 760 l 2,2,3
 121 760 121 760 136 772 c 128,-1,4
 151 784 151 784 151 809 c 2,5,-1
 151 827 l 1,6,-1
 202 827 l 1,7,-1
 202 396 l 1,8,-1
 144 396 l 1,9,-1
 144 713 l 1,10,-1
 54 713 l 1,0,-1
EndSplineSet
EndChar

StartChar: ordmasculine
Encoding: 186 186 124
Width: 388
GlyphClass: 2
Flags: W
LayerCount: 2
Fore
SplineSet
88 634 m 0,0,1
 88 567 88 567 118.5 528.5 c 128,-1,2
 149 490 149 490 193 490 c 256,3,4
 237 490 237 490 268 528.5 c 128,-1,5
 299 567 299 567 299 634 c 0,6,7
 299 702 299 702 268 740 c 128,-1,8
 237 778 237 778 193 778 c 256,9,10
 149 778 149 778 118.5 740 c 128,-1,11
 88 702 88 702 88 634 c 0,0,1
28 634 m 0,12,13
 28 717 28 717 71.5 773 c 128,-1,14
 115 829 115 829 193 829 c 256,15,16
 271 829 271 829 315 773 c 128,-1,17
 359 717 359 717 359 634 c 0,18,19
 359 556 359 556 317.5 497.5 c 128,-1,20
 276 439 276 439 193 439 c 0,21,22
 137 439 137 439 98.5 469 c 128,-1,23
 60 499 60 499 44 542 c 128,-1,24
 28 585 28 585 28 634 c 0,12,13
40 330 m 1,25,-1
 40 383 l 1,26,-1
 347 383 l 1,27,-1
 347 330 l 1,28,-1
 40 330 l 1,25,-1
EndSplineSet
EndChar

StartChar: guillemotright
Encoding: 187 187 125
Width: 461
GlyphClass: 2
Flags: W
LayerCount: 2
Fore
SplineSet
35 427 m 1,0,-1
 90 467 l 1,1,-1
 248 249 l 1,2,-1
 90 31 l 1,3,-1
 36 71 l 1,4,-1
 166 249 l 1,5,-1
 35 427 l 1,0,-1
210 64 m 1,6,-1
 341 249 l 1,7,-1
 209 437 l 1,8,-1
 266 474 l 1,9,-1
 424 249 l 1,10,-1
 266 25 l 1,11,-1
 210 64 l 1,6,-1
EndSplineSet
EndChar

StartChar: onequarter
Encoding: 188 188 126
Width: 966
GlyphClass: 3
Flags: W
LayerCount: 2
Fore
SplineSet
619 129 m 1,0,-1
 752 129 l 1,1,-1
 752 336 l 1,2,-1
 726 293 l 1,3,-1
 619 129 l 1,0,-1
83 659 m 1,4,-1
 83 717 l 1,5,-1
 112 717 l 2,6,7
 160 717 160 717 176.5 730 c 128,-1,8
 193 743 193 743 193 769 c 2,9,-1
 193 794 l 1,10,-1
 255 794 l 1,11,-1
 255 299 l 1,12,-1
 184 299 l 1,13,-1
 184 659 l 1,14,-1
 83 659 l 1,4,-1
156 -50 m 1,15,-1
 631 781 l 1,16,-1
 706 781 l 1,17,-1
 233 -50 l 1,18,-1
 156 -50 l 1,15,-1
543 121 m 1,19,-1
 761 452 l 1,20,-1
 820 452 l 1,21,-1
 820 129 l 1,22,-1
 887 129 l 1,23,-1
 887 68 l 1,24,-1
 820 68 l 1,25,-1
 820 -42 l 1,26,-1
 752 -42 l 1,27,-1
 752 68 l 1,28,-1
 543 68 l 1,29,-1
 543 121 l 1,19,-1
EndSplineSet
Ligature2: "'frac' Diagonal Fractions lookup 7 subtable" one fraction four
Ligature2: "'frac' Diagonal Fractions lookup 7 subtable" one slash four
EndChar

StartChar: onehalf
Encoding: 189 189 127
Width: 966
GlyphClass: 3
Flags: W
LayerCount: 2
Fore
SplineSet
567 317 m 1,0,1
 571 333 571 333 574 341.5 c 128,-1,2
 577 350 577 350 589 373.5 c 128,-1,3
 601 397 601 397 615.5 411 c 128,-1,4
 630 425 630 425 658 437 c 128,-1,5
 686 449 686 449 721 449 c 0,6,7
 785 449 785 449 825.5 412 c 128,-1,8
 866 375 866 375 866 311 c 0,9,10
 866 238 866 238 791 167 c 0,11,12
 724 104 724 104 696.5 74.5 c 128,-1,13
 669 45 669 45 656 16 c 1,14,-1
 866 16 l 1,15,-1
 866 -44 l 1,16,-1
 571 -44 l 1,17,18
 571 13 571 13 602.5 60 c 128,-1,19
 634 107 634 107 738 204 c 0,20,21
 795 257 795 257 795 312 c 0,22,23
 795 349 795 349 775 369.5 c 128,-1,24
 755 390 755 390 719 390 c 0,25,26
 650 390 650 390 629 300 c 1,27,-1
 567 317 l 1,0,1
83 659 m 1,28,-1
 83 717 l 1,29,-1
 112 717 l 2,30,31
 160 717 160 717 176.5 730 c 128,-1,32
 193 743 193 743 193 769 c 2,33,-1
 193 794 l 1,34,-1
 255 794 l 1,35,-1
 255 299 l 1,36,-1
 184 299 l 1,37,-1
 184 659 l 1,38,-1
 83 659 l 1,28,-1
153 -50 m 1,39,-1
 628 781 l 1,40,-1
 703 781 l 1,41,-1
 230 -50 l 1,42,-1
 153 -50 l 1,39,-1
EndSplineSet
Ligature2: "'frac' Diagonal Fractions lookup 7 subtable" one fraction two
Ligature2: "'frac' Diagonal Fractions lookup 7 subtable" one slash two
EndChar

StartChar: threequarters
Encoding: 190 190 128
Width: 966
GlyphClass: 3
Flags: W
LayerCount: 2
Fore
SplineSet
629 129 m 1,0,-1
 761 129 l 1,1,-1
 761 335 l 1,2,-1
 737 294 l 1,3,-1
 629 129 l 1,0,-1
231 -50 m 1,4,-1
 706 781 l 1,5,-1
 780 781 l 1,6,-1
 307 -50 l 1,7,-1
 231 -50 l 1,4,-1
552 121 m 1,8,-1
 770 452 l 1,9,-1
 830 452 l 1,10,-1
 830 129 l 1,11,-1
 897 129 l 1,12,-1
 897 68 l 1,13,-1
 830 68 l 1,14,-1
 830 -42 l 1,15,-1
 761 -42 l 1,16,-1
 761 68 l 1,17,-1
 552 68 l 1,18,-1
 552 121 l 1,8,-1
65 409 m 1,19,-1
 123 432 l 1,20,21
 159 363 159 363 222 363 c 0,22,23
 261 363 261 363 287.5 385.5 c 128,-1,24
 314 408 314 408 314 452 c 0,25,26
 314 493 314 493 285 515.5 c 128,-1,27
 256 538 256 538 214 538 c 0,28,29
 190 538 190 538 167 536 c 1,30,-1
 167 598 l 1,31,32
 184 596 184 596 211 596 c 0,33,34
 247 596 247 596 271 616.5 c 128,-1,35
 295 637 295 637 295 674 c 0,36,37
 295 707 295 707 274 727.5 c 128,-1,38
 253 748 253 748 220 748 c 0,39,40
 196 748 196 748 178.5 735 c 128,-1,41
 161 722 161 722 153 709 c 128,-1,42
 145 696 145 696 136 675 c 1,43,-1
 78 695 l 1,44,45
 116 808 116 808 222 808 c 0,46,47
 288 808 288 808 326.5 771 c 128,-1,48
 365 734 365 734 365 678 c 0,49,50
 365 607 365 607 306 571 c 1,51,52
 384 536 384 536 384 452 c 0,53,54
 384 382 384 382 339 342.5 c 128,-1,55
 294 303 294 303 222 303 c 0,56,57
 110 303 110 303 65 409 c 1,19,-1
EndSplineSet
Ligature2: "'frac' Diagonal Fractions lookup 7 subtable" three fraction four
Ligature2: "'frac' Diagonal Fractions lookup 7 subtable" three slash four
EndChar

StartChar: questiondown
Encoding: 191 191 129
Width: 553
GlyphClass: 2
Flags: W
LayerCount: 2
Fore
SplineSet
73 -29 m 0,0,1
 73 17 73 17 91 53 c 128,-1,2
 109 89 109 89 135 113.5 c 128,-1,3
 161 138 161 138 187 163 c 128,-1,4
 213 188 213 188 231 223 c 128,-1,5
 249 258 249 258 249 302 c 2,6,-1
 249 325 l 1,7,-1
 328 325 l 1,8,-1
 328 297 l 2,9,10
 328 247 328 247 309.5 208 c 128,-1,11
 291 169 291 169 265.5 143.5 c 128,-1,12
 240 118 240 118 214.5 94.5 c 128,-1,13
 189 71 189 71 171 39 c 128,-1,14
 153 7 153 7 153 -31 c 0,15,16
 153 -91 153 -91 185.5 -126.5 c 128,-1,17
 218 -162 218 -162 276 -162 c 0,18,19
 374 -162 374 -162 422 -45 c 1,20,-1
 491 -69 l 1,21,22
 465 -141 465 -141 408.5 -185 c 128,-1,23
 352 -229 352 -229 277 -229 c 0,24,25
 184 -229 184 -229 128.5 -175 c 128,-1,26
 73 -121 73 -121 73 -29 c 0,0,1
227 420 m 1,27,-1
 227 532 l 1,28,-1
 350 532 l 1,29,-1
 350 420 l 1,30,-1
 227 420 l 1,27,-1
EndSplineSet
EndChar

StartChar: AE
Encoding: 198 198 136
Width: 937
GlyphClass: 2
Flags: W
LayerCount: 2
Fore
SplineSet
240 275 m 1,0,-1
 474 275 l 1,1,-1
 474 661 l 1,2,-1
 465 661 l 1,3,-1
 240 275 l 1,0,-1
-4 0 m 1,4,-1
 425 735 l 1,5,-1
 889 735 l 1,6,-1
 889 668 l 1,7,-1
 551 668 l 1,8,-1
 551 413 l 1,9,-1
 853 413 l 1,10,-1
 853 347 l 1,11,-1
 548 347 l 1,12,-1
 548 67 l 1,13,-1
 898 67 l 1,14,-1
 898 0 l 1,15,-1
 474 0 l 1,16,-1
 474 212 l 1,17,-1
 203 212 l 1,18,-1
 83 0 l 1,19,-1
 -4 0 l 1,4,-1
EndSplineSet
EndChar

StartChar: multiply
Encoding: 215 215 153
Width: 558
GlyphClass: 2
Flags: W
LayerCount: 2
Fore
SplineSet
45 187 m 1,0,-1
 234 364 l 1,1,-1
 45 542 l 1,2,-1
 92 588 l 1,3,-1
 279 407 l 1,4,-1
 467 588 l 1,5,-1
 513 543 l 1,6,-1
 326 364 l 1,7,-1
 513 186 l 1,8,-1
 466 141 l 1,9,-1
 279 321 l 1,10,-1
 92 141 l 1,11,-1
 45 187 l 1,0,-1
EndSplineSet
EndChar

StartChar: Oslash
Encoding: 216 216 154
Width: 713
GlyphClass: 2
Flags: W
LayerCount: 2
Fore
SplineSet
51 367 m 0,0,1
 51 540 51 540 134.5 646.5 c 128,-1,2
 218 753 218 753 357 753 c 0,3,4
 443 753 443 753 509 711 c 1,5,-1
 551 794 l 1,6,-1
 625 794 l 1,7,-1
 560 669 l 1,8,9
 662 562 662 562 662 366 c 0,10,11
 662 189 662 189 579 85.5 c 128,-1,12
 496 -18 496 -18 357 -18 c 0,13,14
 284 -18 284 -18 221 15 c 1,15,-1
 178 -70 l 1,16,-1
 104 -70 l 1,17,-1
 167 52 l 1,18,19
 51 155 51 155 51 367 c 0,0,1
523 598 m 1,20,-1
 254 78 l 1,21,22
 300 50 300 50 357 50 c 0,23,24
 460 50 460 50 521 134.5 c 128,-1,25
 582 219 582 219 582 366 c 0,26,27
 582 511 582 511 523 598 c 1,20,-1
476 648 m 1,28,29
 426 686 426 686 357 686 c 0,30,31
 253 686 253 686 192 599.5 c 128,-1,32
 131 513 131 513 131 367 c 0,33,34
 131 207 131 207 203 122 c 1,35,-1
 476 648 l 1,28,29
EndSplineSet
EndChar

StartChar: Thorn
Encoding: 222 222 160
Width: 601
GlyphClass: 2
Flags: W
LayerCount: 2
Fore
SplineSet
102 0 m 1,0,-1
 102 735 l 1,1,-1
 181 735 l 1,2,-1
 181 612 l 1,3,-1
 300 612 l 2,4,5
 432 612 432 612 495.5 549 c 128,-1,6
 559 486 559 486 559 382 c 0,7,8
 559 264 559 264 485.5 206 c 128,-1,9
 412 148 412 148 291 148 c 2,10,-1
 181 148 l 1,11,-1
 181 0 l 1,12,-1
 102 0 l 1,0,-1
181 215 m 1,13,-1
 284 215 l 2,14,15
 478 215 478 215 478 382 c 0,16,17
 478 547 478 547 293 547 c 2,18,-1
 181 547 l 1,19,-1
 181 215 l 1,13,-1
EndSplineSet
EndChar

StartChar: germandbls
Encoding: 223 223 161
Width: 654
GlyphClass: 2
Flags: W
LayerCount: 2
Fore
SplineSet
102 0 m 1,0,-1
 102 552 l 2,1,2
 102 648 102 648 165 700.5 c 128,-1,3
 228 753 228 753 322 753 c 0,4,5
 421 753 421 753 482.5 699 c 128,-1,6
 544 645 544 645 544 555 c 0,7,8
 544 494 544 494 518.5 452.5 c 128,-1,9
 493 411 493 411 455 391 c 1,10,-1
 455 389 l 1,11,12
 517 371 517 371 560.5 322 c 128,-1,13
 604 273 604 273 604 189 c 0,14,15
 604 97 604 97 546 39.5 c 128,-1,16
 488 -18 488 -18 388 -18 c 0,17,18
 314 -18 314 -18 247 4 c 1,19,-1
 252 73 l 1,20,21
 311 50 311 50 385 50 c 0,22,23
 443 50 443 50 483.5 89 c 128,-1,24
 524 128 524 128 524 189 c 0,25,26
 524 267 524 267 478 307 c 128,-1,27
 432 347 432 347 360 347 c 2,28,-1
 296 347 l 1,29,-1
 296 413 l 1,30,-1
 352 413 l 2,31,32
 401 413 401 413 432 452 c 128,-1,33
 463 491 463 491 463 551 c 0,34,35
 463 609 463 609 425.5 647.5 c 128,-1,36
 388 686 388 686 323 686 c 0,37,38
 257 686 257 686 219 649 c 128,-1,39
 181 612 181 612 181 548 c 2,40,-1
 181 0 l 1,41,-1
 102 0 l 1,0,-1
EndSplineSet
EndChar

StartChar: ae
Encoding: 230 230 168
Width: 907
GlyphClass: 2
Flags: W
LayerCount: 2
Fore
SplineSet
41 131 m 0,0,1
 41 278 41 278 268 312 c 0,2,3
 386 333 386 333 404 340 c 0,4,5
 404 343 404 343 403.5 355 c 128,-1,6
 403 367 403 367 403 370 c 0,7,8
 403 416 403 416 369.5 450 c 128,-1,9
 336 484 336 484 274 484 c 0,10,11
 172 484 172 484 103 402 c 1,12,-1
 54 444 l 1,13,14
 93 490 93 490 150 518 c 128,-1,15
 207 546 207 546 274 546 c 0,16,17
 410 546 410 546 454 433 c 1,18,19
 481 485 481 485 529 515.5 c 128,-1,20
 577 546 577 546 639 546 c 0,21,22
 742 546 742 546 804 470 c 128,-1,23
 866 394 866 394 866 279 c 2,24,-1
 866 239 l 1,25,-1
 481 239 l 1,26,-1
 481 219 l 1,27,28
 488 149 488 149 528.5 97.5 c 128,-1,29
 569 46 569 46 640 46 c 0,30,31
 692 46 692 46 730.5 71.5 c 128,-1,32
 769 97 769 97 789 134 c 1,33,-1
 854 115 l 1,34,35
 826 55 826 55 772 18.5 c 128,-1,36
 718 -18 718 -18 639 -18 c 0,37,38
 569 -18 569 -18 518 19 c 128,-1,39
 467 56 467 56 439 119 c 1,40,41
 371 -18 371 -18 226 -18 c 0,42,43
 140 -18 140 -18 90.5 22.5 c 128,-1,44
 41 63 41 63 41 131 c 0,0,1
118 135 m 0,45,46
 118 97 118 97 149 71.5 c 128,-1,47
 180 46 180 46 234 46 c 0,48,49
 304 46 304 46 353.5 91 c 128,-1,50
 403 136 403 136 403 207 c 2,51,-1
 403 280 l 1,52,53
 368 271 368 271 271 255 c 0,54,55
 118 231 118 231 118 135 c 0,45,46
481 297 m 1,56,-1
 789 297 l 1,57,58
 789 375 789 375 747 428.5 c 128,-1,59
 705 482 705 482 639 482 c 0,60,61
 574 482 574 482 533.5 433.5 c 128,-1,62
 493 385 493 385 483 314 c 2,63,-1
 481 297 l 1,56,-1
EndSplineSet
EndChar

StartChar: eth
Encoding: 240 240 178
Width: 560
GlyphClass: 2
Flags: W
LayerCount: 2
Fore
SplineSet
43 237 m 0,0,1
 43 356 43 356 108 425.5 c 128,-1,2
 173 495 173 495 277 495 c 0,3,4
 332 495 332 495 372.5 469.5 c 128,-1,5
 413 444 413 444 431 409 c 1,6,7
 402 548 402 548 322 623 c 1,8,-1
 199 534 l 1,9,-1
 155 582 l 1,10,-1
 268 663 l 1,11,12
 216 693 216 693 149 704 c 1,13,-1
 175 763 l 1,14,15
 248 752 248 752 308 720 c 0,16,17
 318 714 318 714 329 708 c 1,18,-1
 433 783 l 1,19,-1
 476 734 l 1,20,-1
 382 666 l 1,21,22
 399 650 399 650 416 631 c 0,23,24
 464 574 464 574 490.5 481 c 128,-1,25
 517 388 517 388 517 264 c 256,26,27
 517 140 517 140 454.5 61 c 128,-1,28
 392 -18 392 -18 278 -18 c 0,29,30
 170 -18 170 -18 106.5 55.5 c 128,-1,31
 43 129 43 129 43 237 c 0,0,1
120 240 m 0,32,33
 120 155 120 155 163 100.5 c 128,-1,34
 206 46 206 46 280 46 c 0,35,36
 350 46 350 46 392.5 99 c 128,-1,37
 435 152 435 152 435 241 c 0,38,39
 435 327 435 327 392 378.5 c 128,-1,40
 349 430 349 430 281 430 c 0,41,42
 211 430 211 430 165.5 380 c 128,-1,43
 120 330 120 330 120 240 c 0,32,33
EndSplineSet
EndChar

StartChar: divide
Encoding: 247 247 185
Width: 558
GlyphClass: 2
Flags: W
LayerCount: 2
Fore
SplineSet
224 496 m 1,0,-1
 224 602 l 1,1,-1
 334 602 l 1,2,-1
 334 496 l 1,3,-1
 224 496 l 1,0,-1
27 331 m 1,4,-1
 27 397 l 1,5,-1
 530 397 l 1,6,-1
 530 331 l 1,7,-1
 27 331 l 1,4,-1
224 126 m 1,8,-1
 224 233 l 1,9,-1
 334 233 l 1,10,-1
 334 126 l 1,11,-1
 224 126 l 1,8,-1
EndSplineSet
EndChar

StartChar: oslash
Encoding: 248 248 186
Width: 560
GlyphClass: 2
Flags: W
LayerCount: 2
Fore
SplineSet
43 264 m 0,0,1
 43 385 43 385 105.5 465.5 c 128,-1,2
 168 546 168 546 281 546 c 0,3,4
 343 546 343 546 390 519 c 1,5,-1
 426 590 l 1,6,-1
 490 590 l 1,7,-1
 436 485 l 1,8,9
 517 407 517 407 517 264 c 0,10,11
 517 213 517 213 504 165 c 128,-1,12
 491 117 491 117 464 75 c 128,-1,13
 437 33 437 33 389.5 7.5 c 128,-1,14
 342 -18 342 -18 281 -18 c 0,15,16
 226 -18 226 -18 180 4 c 1,17,-1
 146 -61 l 1,18,-1
 82 -61 l 1,19,-1
 131 35 l 1,20,21
 88 74 88 74 65.5 135 c 128,-1,22
 43 196 43 196 43 264 c 0,0,1
400 416 m 1,23,-1
 211 65 l 1,24,25
 243 46 243 46 281 46 c 0,26,27
 348 46 348 46 394.5 105 c 128,-1,28
 441 164 441 164 441 264 c 0,29,30
 441 357 441 357 400 416 c 1,23,-1
358 457 m 1,31,32
 323 482 323 482 281 482 c 0,33,34
 213 482 213 482 166.5 424 c 128,-1,35
 120 366 120 366 120 264 c 0,36,37
 120 164 120 164 167 103 c 1,38,-1
 358 457 l 1,31,32
EndSplineSet
EndChar

StartChar: thorn
Encoding: 254 254 192
Width: 588
GlyphClass: 2
Flags: W
LayerCount: 2
Fore
SplineSet
161 264 m 256,0,1
 161 166 161 166 204.5 106 c 128,-1,2
 248 46 248 46 310 46 c 0,3,4
 383 46 383 46 425.5 104.5 c 128,-1,5
 468 163 468 163 468 264 c 256,6,7
 468 365 468 365 426 423.5 c 128,-1,8
 384 482 384 482 311 482 c 0,9,10
 251 482 251 482 206 422 c 128,-1,11
 161 362 161 362 161 264 c 256,0,1
87 -231 m 1,12,-1
 87 762 l 1,13,-1
 163 762 l 1,14,-1
 163 432 l 1,15,16
 179 482 179 482 226.5 514 c 128,-1,17
 274 546 274 546 320 546 c 0,18,19
 423 546 423 546 484 470 c 128,-1,20
 545 394 545 394 545 264 c 0,21,22
 545 125 545 125 478 53.5 c 128,-1,23
 411 -18 411 -18 319 -18 c 0,24,25
 264 -18 264 -18 222 16 c 128,-1,26
 180 50 180 50 163 93 c 1,27,-1
 163 -231 l 1,28,-1
 87 -231 l 1,12,-1
EndSplineSet
EndChar

StartChar: dcroat
Encoding: 273 273 211
Width: 585
GlyphClass: 2
Flags: W
LayerCount: 2
Fore
SplineSet
43 265 m 0,0,1
 43 396 43 396 106 471 c 128,-1,2
 169 546 169 546 265 546 c 0,3,4
 323 546 323 546 365 513 c 128,-1,5
 407 480 407 480 425 436 c 1,6,-1
 425 622 l 1,7,-1
 209 622 l 1,8,-1
 209 679 l 1,9,-1
 425 679 l 1,10,-1
 425 762 l 1,11,-1
 500 762 l 1,12,-1
 500 679 l 1,13,-1
 570 679 l 1,14,-1
 570 622 l 1,15,-1
 500 622 l 1,16,-1
 500 0 l 1,17,-1
 427 0 l 1,18,-1
 427 95 l 1,19,20
 404 44 404 44 363 13 c 128,-1,21
 322 -18 322 -18 264 -18 c 0,22,23
 175 -18 175 -18 109 54 c 128,-1,24
 43 126 43 126 43 265 c 0,0,1
120 265 m 0,25,26
 120 166 120 166 163 106 c 128,-1,27
 206 46 206 46 275 46 c 0,28,29
 340 46 340 46 383.5 106.5 c 128,-1,30
 427 167 427 167 427 265 c 0,31,32
 427 359 427 359 384 420.5 c 128,-1,33
 341 482 341 482 274 482 c 0,34,35
 205 482 205 482 162.5 422.5 c 128,-1,36
 120 363 120 363 120 265 c 0,25,26
EndSplineSet
EndChar

StartChar: uni0123
Encoding: 291 291 229
Width: 572
GlyphClass: 2
Flags: W
LayerCount: 2
Fore
SplineSet
223 629 m 1,0,-1
 306 808 l 1,1,-1
 360 808 l 1,2,-1
 311 629 l 1,3,-1
 223 629 l 1,0,-1
120 274 m 0,4,5
 120 179 120 179 161.5 122.5 c 128,-1,6
 203 66 203 66 267 66 c 0,7,8
 337 66 337 66 376.5 121 c 128,-1,9
 416 176 416 176 416 275 c 0,10,11
 416 372 416 372 375.5 427 c 128,-1,12
 335 482 335 482 268 482 c 0,13,14
 202 482 202 482 161 424 c 128,-1,15
 120 366 120 366 120 274 c 0,4,5
43 273 m 0,16,17
 43 394 43 394 104 470 c 128,-1,18
 165 546 165 546 259 546 c 0,19,20
 322 546 322 546 360.5 514.5 c 128,-1,21
 399 483 399 483 416 442 c 1,22,-1
 416 528 l 1,23,-1
 491 528 l 1,24,-1
 491 62 l 2,25,26
 491 -88 491 -88 437.5 -161.5 c 128,-1,27
 384 -235 384 -235 265 -235 c 0,28,29
 137 -235 137 -235 70 -138 c 1,30,-1
 123 -104 l 1,31,32
 183 -173 183 -173 267 -173 c 0,33,34
 341 -173 341 -173 377 -119.5 c 128,-1,35
 413 -66 413 -66 415 24 c 0,36,37
 416 54 416 54 416 103 c 1,38,39
 395 58 395 58 356 30 c 128,-1,40
 317 2 317 2 261 2 c 0,41,42
 164 2 164 2 103.5 77.5 c 128,-1,43
 43 153 43 153 43 273 c 0,16,17
EndSplineSet
EndChar

StartChar: Hbar
Encoding: 294 294 232
Width: 722
GlyphClass: 2
Flags: W
LayerCount: 2
Fore
SplineSet
17 565 m 1,0,-1
 17 627 l 1,1,-1
 102 627 l 1,2,-1
 102 735 l 1,3,-1
 181 735 l 1,4,-1
 181 627 l 1,5,-1
 542 627 l 1,6,-1
 542 735 l 1,7,-1
 620 735 l 1,8,-1
 620 627 l 1,9,-1
 706 627 l 1,10,-1
 706 565 l 1,11,-1
 620 565 l 1,12,-1
 620 0 l 1,13,-1
 542 0 l 1,14,-1
 542 345 l 1,15,-1
 181 345 l 1,16,-1
 181 0 l 1,17,-1
 102 0 l 1,18,-1
 102 565 l 1,19,-1
 17 565 l 1,0,-1
542 565 m 1,20,-1
 181 565 l 1,21,-1
 181 411 l 1,22,-1
 542 411 l 1,23,-1
 542 565 l 1,20,-1
EndSplineSet
EndChar

StartChar: hbar
Encoding: 295 295 233
Width: 568
GlyphClass: 2
Flags: W
LayerCount: 2
Fore
SplineSet
11 624 m 1,0,-1
 11 682 l 1,1,-1
 83 682 l 1,2,-1
 83 762 l 1,3,-1
 159 762 l 1,4,-1
 159 682 l 1,5,-1
 365 682 l 1,6,-1
 365 624 l 1,7,-1
 159 624 l 1,8,-1
 159 430 l 1,9,-1
 160 430 l 1,10,11
 178 469 178 469 222 500.5 c 128,-1,12
 266 532 266 532 322 532 c 0,13,14
 351 532 351 532 378 523.5 c 128,-1,15
 405 515 405 515 433 494.5 c 128,-1,16
 461 474 461 474 478 431.5 c 128,-1,17
 495 389 495 389 495 328 c 2,18,-1
 495 0 l 1,19,-1
 419 0 l 1,20,-1
 419 316 l 2,21,22
 419 386 419 386 395 427 c 128,-1,23
 371 468 371 468 308 468 c 0,24,25
 248 468 248 468 203.5 417 c 128,-1,26
 159 366 159 366 159 300 c 2,27,-1
 159 0 l 1,28,-1
 83 0 l 1,29,-1
 83 624 l 1,30,-1
 11 624 l 1,0,-1
EndSplineSet
EndChar

StartChar: dotlessi
Encoding: 305 305 243
Width: 248
GlyphClass: 2
Flags: W
LayerCount: 2
Fore
SplineSet
86 0 m 1,0,-1
 86 528 l 1,1,-1
 162 528 l 1,2,-1
 162 0 l 1,3,-1
 86 0 l 1,0,-1
EndSplineSet
EndChar

StartChar: kgreenlandic
Encoding: 312 312 250
Width: 509
GlyphClass: 2
Flags: W
LayerCount: 2
Fore
SplineSet
83 0 m 1,0,-1
 83 528 l 1,1,-1
 159 528 l 1,2,-1
 159 295 l 1,3,-1
 161 295 l 1,4,-1
 409 528 l 1,5,-1
 506 528 l 1,6,-1
 241 278 l 1,7,-1
 515 0 l 1,8,-1
 422 0 l 1,9,-1
 192 224 l 1,10,-1
 159 192 l 1,11,-1
 159 0 l 1,12,-1
 83 0 l 1,0,-1
EndSplineSet
EndChar

StartChar: Lslash
Encoding: 321 321 259
Width: 538
GlyphClass: 2
Flags: W
LayerCount: 2
Fore
SplineSet
181 347 m 1,0,-1
 181 67 l 1,1,-1
 530 67 l 1,2,-1
 530 0 l 1,3,-1
 102 0 l 1,4,-1
 102 297 l 1,5,-1
 0 229 l 1,6,-1
 -36 285 l 1,7,-1
 102 377 l 1,8,-1
 102 735 l 1,9,-1
 181 735 l 1,10,-1
 181 426 l 1,11,-1
 280 493 l 1,12,-1
 316 437 l 1,13,-1
 181 347 l 1,0,-1
EndSplineSet
EndChar

StartChar: lslash
Encoding: 322 322 260
Width: 255
GlyphClass: 2
Flags: W
LayerCount: 2
Fore
SplineSet
166 363 m 1,0,-1
 166 0 l 1,1,-1
 90 0 l 1,2,-1
 90 315 l 1,3,-1
 -5 254 l 1,4,-1
 -41 311 l 1,5,-1
 90 395 l 1,6,-1
 90 762 l 1,7,-1
 166 762 l 1,8,-1
 166 445 l 1,9,-1
 260 504 l 1,10,-1
 295 447 l 1,11,-1
 166 363 l 1,0,-1
EndSplineSet
EndChar

StartChar: Eng
Encoding: 330 330 268
Width: 727
GlyphClass: 2
Flags: W
LayerCount: 2
Fore
SplineSet
102 0 m 1,0,-1
 102 735 l 1,1,-1
 192 735 l 1,2,-1
 497 209 l 1,3,-1
 551 111 l 1,4,-1
 557 111 l 1,5,6
 547 205 547 205 547 313 c 2,7,-1
 547 735 l 1,8,-1
 625 735 l 1,9,-1
 625 9 l 2,10,11
 625 -235 625 -235 437 -235 c 0,12,13
 395 -235 395 -235 336 -227 c 1,14,-1
 336 -162 l 1,15,16
 382 -169 382 -169 423 -169 c 0,17,18
 486 -169 486 -169 509.5 -129.5 c 128,-1,19
 533 -90 533 -90 535 0 c 1,20,-1
 233 522 l 1,21,-1
 176 623 l 1,22,-1
 171 623 l 1,23,24
 181 527 181 527 181 445 c 2,25,-1
 181 0 l 1,26,-1
 102 0 l 1,0,-1
EndSplineSet
EndChar

StartChar: eng
Encoding: 331 331 269
Width: 562
GlyphClass: 2
Flags: W
LayerCount: 2
Fore
SplineSet
79 0 m 1,0,-1
 79 528 l 1,1,-1
 152 528 l 1,2,-1
 152 438 l 1,3,-1
 153 438 l 1,4,5
 166 477 166 477 211 511.5 c 128,-1,6
 256 546 256 546 321 546 c 0,7,8
 394 546 394 546 442 499.5 c 128,-1,9
 490 453 490 453 490 341 c 2,10,-1
 490 9 l 2,11,12
 490 -117 490 -117 442 -176 c 128,-1,13
 394 -235 394 -235 314 -235 c 0,14,15
 290 -235 290 -235 223 -226 c 1,16,-1
 223 -161 l 1,17,18
 275 -169 275 -169 303 -169 c 0,19,20
 363 -169 363 -169 388.5 -127 c 128,-1,21
 414 -85 414 -85 414 0 c 2,22,-1
 414 329 l 2,23,24
 414 482 414 482 304 482 c 0,25,26
 243 482 243 482 198.5 432.5 c 128,-1,27
 154 383 154 383 154 315 c 2,28,-1
 154 0 l 1,29,-1
 79 0 l 1,0,-1
EndSplineSet
EndChar

StartChar: OE
Encoding: 338 338 276
Width: 954
GlyphClass: 2
Flags: W
LayerCount: 2
Fore
SplineSet
51 367 m 0,0,1
 51 543 51 543 139.5 648 c 128,-1,2
 228 753 228 753 367 753 c 0,3,4
 426 753 426 753 471 735 c 1,5,-1
 906 735 l 1,6,-1
 906 668 l 1,7,-1
 547 668 l 1,8,-1
 547 413 l 1,9,-1
 869 413 l 1,10,-1
 869 347 l 1,11,-1
 547 347 l 1,12,-1
 547 67 l 1,13,-1
 915 67 l 1,14,-1
 915 0 l 1,15,-1
 473 0 l 1,16,17
 426 -18 426 -18 367 -18 c 0,18,19
 226 -18 226 -18 138.5 86 c 128,-1,20
 51 190 51 190 51 367 c 0,0,1
131 367 m 0,21,22
 131 221 131 221 197 135 c 128,-1,23
 263 49 263 49 367 49 c 0,24,25
 428 49 428 49 468 77 c 1,26,-1
 468 656 l 1,27,28
 426 686 426 686 367 686 c 0,29,30
 260 686 260 686 195.5 598.5 c 128,-1,31
 131 511 131 511 131 367 c 0,21,22
EndSplineSet
EndChar

StartChar: uni0163
Encoding: 355 355 293
Width: 358
GlyphClass: 2
Flags: W
LayerCount: 2
Fore
SplineSet
20 464 m 1,0,-1
 20 528 l 1,1,-1
 112 528 l 1,2,-1
 112 698 l 1,3,-1
 187 698 l 1,4,-1
 187 528 l 1,5,-1
 327 528 l 1,6,-1
 327 464 l 1,7,-1
 187 464 l 1,8,-1
 187 155 l 2,9,10
 187 107 187 107 206.5 86 c 128,-1,11
 226 65 226 65 267 65 c 2,12,-1
 328 65 l 1,13,-1
 328 0 l 1,14,-1
 257 0 l 2,15,16
 256 0 256 0 256 0 c 1,17,-1
 245 -41 l 1,18,19
 289 -48 289 -48 313.5 -70 c 128,-1,20
 338 -92 338 -92 338 -127 c 0,21,22
 338 -166 338 -166 306.5 -192.5 c 128,-1,23
 275 -219 275 -219 210 -219 c 0,24,25
 162 -219 162 -219 125 -209 c 1,26,-1
 125 -160 l 1,27,28
 166 -170 166 -170 209 -170 c 0,29,30
 238 -170 238 -170 257 -157.5 c 128,-1,31
 276 -145 276 -145 276 -123 c 0,32,33
 276 -78 276 -78 170 -71 c 1,34,-1
 190 11 l 1,35,36
 112 40 112 40 112 148 c 2,37,-1
 112 464 l 1,38,-1
 20 464 l 1,0,-1
EndSplineSet
Substitution2: "'locl' Localized Forms in Latin lookup 3 subtable" uni021B
Substitution2: "'locl' Localized Forms in Latin lookup 2 subtable" uni021B
Substitution2: "'aalt' Access All Alternates lookup 0 subtable" uni021B
EndChar

StartChar: tbar
Encoding: 359 359 297
Width: 358
GlyphClass: 2
Flags: W
LayerCount: 2
Fore
SplineSet
20 464 m 1,0,-1
 20 528 l 1,1,-1
 112 528 l 1,2,-1
 112 698 l 1,3,-1
 187 698 l 1,4,-1
 187 528 l 1,5,-1
 327 528 l 1,6,-1
 327 464 l 1,7,-1
 187 464 l 1,8,-1
 187 352 l 1,9,-1
 334 352 l 1,10,-1
 334 289 l 1,11,-1
 187 289 l 1,12,-1
 187 155 l 2,13,14
 187 107 187 107 206.5 86 c 128,-1,15
 226 65 226 65 267 65 c 2,16,-1
 328 65 l 1,17,-1
 328 0 l 1,18,-1
 257 0 l 2,19,20
 112 0 112 0 112 148 c 2,21,-1
 112 289 l 1,22,-1
 10 289 l 1,23,-1
 10 352 l 1,24,-1
 112 352 l 1,25,-1
 112 464 l 1,26,-1
 20 464 l 1,0,-1
EndSplineSet
EndChar

StartChar: longs
Encoding: 383 383 321
Width: 303
GlyphClass: 2
Flags: W
LayerCount: 2
Fore
SplineSet
88 0 m 1,0,-1
 88 608 l 2,1,2
 88 687 88 687 127 724.5 c 128,-1,3
 166 762 166 762 235 762 c 2,4,-1
 297 762 l 1,5,-1
 297 699 l 1,6,-1
 247 699 l 2,7,8
 164 699 164 699 164 599 c 2,9,-1
 164 0 l 1,10,-1
 88 0 l 1,0,-1
EndSplineSet
EndChar

StartChar: uni0180
Encoding: 384 384 322
Width: 585
GlyphClass: 2
Flags: W
LayerCount: 2
Fore
SplineSet
158 264 m 256,0,1
 158 165 158 165 202 105.5 c 128,-1,2
 246 46 246 46 310 46 c 0,3,4
 380 46 380 46 422.5 104.5 c 128,-1,5
 465 163 465 163 465 264 c 0,6,7
 465 363 465 363 423 422.5 c 128,-1,8
 381 482 381 482 311 482 c 0,9,10
 247 482 247 482 202.5 422.5 c 128,-1,11
 158 363 158 363 158 264 c 256,0,1
15 623 m 1,12,-1
 15 682 l 1,13,-1
 84 682 l 1,14,-1
 84 762 l 1,15,-1
 160 762 l 1,16,-1
 160 682 l 1,17,-1
 367 682 l 1,18,-1
 367 623 l 1,19,-1
 160 623 l 1,20,-1
 160 433 l 1,21,22
 174 474 174 474 217 510 c 128,-1,23
 260 546 260 546 321 546 c 0,24,25
 420 546 420 546 481 470 c 128,-1,26
 542 394 542 394 542 264 c 0,27,28
 542 191 542 191 521.5 135 c 128,-1,29
 501 79 501 79 468 47 c 128,-1,30
 435 15 435 15 397.5 -1.5 c 128,-1,31
 360 -18 360 -18 321 -18 c 0,32,33
 263 -18 263 -18 220.5 15 c 128,-1,34
 178 48 178 48 159 94 c 1,35,-1
 159 0 l 1,36,-1
 84 0 l 1,37,-1
 84 623 l 1,38,-1
 15 623 l 1,12,-1
EndSplineSet
EndChar

StartChar: uni0182
Encoding: 386 386 324
Width: 656
GlyphClass: 2
Flags: W
LayerCount: 2
Fore
SplineSet
181 67 m 1,0,-1
 376 67 l 2,1,2
 445 67 445 67 488.5 102.5 c 128,-1,3
 532 138 532 138 532 206 c 0,4,5
 532 269 532 269 488 309 c 128,-1,6
 444 349 444 349 372 349 c 2,7,-1
 181 349 l 1,8,-1
 181 67 l 1,0,-1
102 0 m 1,9,-1
 102 735 l 1,10,-1
 528 735 l 1,11,-1
 528 668 l 1,12,-1
 181 668 l 1,13,-1
 181 415 l 1,14,-1
 380 415 l 2,15,16
 487 415 487 415 549.5 356.5 c 128,-1,17
 612 298 612 298 612 206 c 0,18,19
 612 117 612 117 551.5 58.5 c 128,-1,20
 491 0 491 0 389 0 c 2,21,-1
 102 0 l 1,9,-1
EndSplineSet
EndChar

StartChar: uni0183
Encoding: 387 387 325
Width: 585
GlyphClass: 2
Flags: W
LayerCount: 2
Fore
SplineSet
158 264 m 0,0,1
 158 164 158 164 202 105 c 128,-1,2
 246 46 246 46 310 46 c 0,3,4
 379 46 379 46 422 104.5 c 128,-1,5
 465 163 465 163 465 264 c 0,6,7
 465 364 465 364 422.5 423 c 128,-1,8
 380 482 380 482 311 482 c 0,9,10
 247 482 247 482 202.5 422.5 c 128,-1,11
 158 363 158 363 158 264 c 0,0,1
84 0 m 1,12,-1
 84 762 l 1,13,-1
 442 762 l 1,14,-1
 442 700 l 1,15,-1
 160 700 l 1,16,-1
 160 434 l 1,17,18
 171 470 171 470 215.5 508 c 128,-1,19
 260 546 260 546 321 546 c 0,20,21
 419 546 419 546 480.5 470 c 128,-1,22
 542 394 542 394 542 264 c 0,23,24
 542 191 542 191 521.5 135 c 128,-1,25
 501 79 501 79 468.5 47 c 128,-1,26
 436 15 436 15 398.5 -1.5 c 128,-1,27
 361 -18 361 -18 321 -18 c 0,28,29
 263 -18 263 -18 220 15 c 128,-1,30
 177 48 177 48 159 94 c 1,31,-1
 159 0 l 1,32,-1
 84 0 l 1,12,-1
EndSplineSet
EndChar

StartChar: uni0184
Encoding: 388 388 326
Width: 662
GlyphClass: 2
Flags: W
LayerCount: 2
Fore
SplineSet
24 675 m 1,0,-1
 132 735 l 1,1,-1
 181 735 l 1,2,-1
 181 411 l 1,3,-1
 386 411 l 2,4,5
 494 411 494 411 556.5 353.5 c 128,-1,6
 619 296 619 296 619 206 c 0,7,8
 619 124 619 124 560.5 62 c 128,-1,9
 502 0 502 0 403 0 c 2,10,-1
 102 0 l 1,11,-1
 102 614 l 1,12,-1
 24 675 l 1,0,-1
181 67 m 1,13,-1
 385 67 l 2,14,15
 449 67 449 67 494 103.5 c 128,-1,16
 539 140 539 140 539 205 c 0,17,18
 539 264 539 264 496 305 c 128,-1,19
 453 346 453 346 382 346 c 2,20,-1
 181 346 l 1,21,-1
 181 67 l 1,13,-1
EndSplineSet
EndChar

StartChar: uni0185
Encoding: 389 389 327
Width: 585
GlyphClass: 2
Flags: W
LayerCount: 2
Fore
SplineSet
10 700 m 1,0,-1
 118 762 l 1,1,-1
 160 762 l 1,2,-1
 160 435 l 1,3,4
 184 492 184 492 231.5 519 c 128,-1,5
 279 546 279 546 321 546 c 0,6,7
 420 546 420 546 481 470 c 128,-1,8
 542 394 542 394 542 264 c 0,9,10
 542 192 542 192 522 136 c 128,-1,11
 502 80 502 80 469.5 47.5 c 128,-1,12
 437 15 437 15 399 -1.5 c 128,-1,13
 361 -18 361 -18 321 -18 c 0,14,15
 264 -18 264 -18 221.5 14.5 c 128,-1,16
 179 47 179 47 159 94 c 1,17,-1
 159 0 l 1,18,-1
 84 0 l 1,19,-1
 84 640 l 1,20,-1
 10 700 l 1,0,-1
158 264 m 0,21,22
 158 164 158 164 202 105 c 128,-1,23
 246 46 246 46 310 46 c 0,24,25
 379 46 379 46 422 104.5 c 128,-1,26
 465 163 465 163 465 264 c 0,27,28
 465 362 465 362 423 422 c 128,-1,29
 381 482 381 482 311 482 c 0,30,31
 247 482 247 482 202.5 422.5 c 128,-1,32
 158 363 158 363 158 264 c 0,21,22
EndSplineSet
EndChar

StartChar: uni0186
Encoding: 390 390 328
Width: 650
GlyphClass: 2
Flags: W
LayerCount: 2
Fore
SplineSet
26 155 m 1,0,-1
 97 178 l 1,1,2
 122 124 122 124 171 87 c 128,-1,3
 220 50 220 50 286 50 c 0,4,5
 390 50 390 50 454 135 c 128,-1,6
 518 220 518 220 518 367 c 0,7,8
 518 512 518 512 455 599 c 128,-1,9
 392 686 392 686 286 686 c 0,10,11
 179 686 179 686 113 568 c 1,12,-1
 46 592 l 1,13,14
 77 657 77 657 137.5 705 c 128,-1,15
 198 753 198 753 285 753 c 0,16,17
 424 753 424 753 511.5 650 c 128,-1,18
 599 547 599 547 599 367 c 256,19,20
 599 187 599 187 511 84.5 c 128,-1,21
 423 -18 423 -18 285 -18 c 0,22,23
 188 -18 188 -18 123.5 33 c 128,-1,24
 59 84 59 84 26 155 c 1,0,-1
EndSplineSet
EndChar

StartChar: uni018B
Encoding: 395 395 333
Width: 656
GlyphClass: 2
Flags: W
LayerCount: 2
Fore
SplineSet
124 206 m 0,0,1
 124 139 124 139 167 103 c 128,-1,2
 210 67 210 67 278 67 c 2,3,-1
 475 67 l 1,4,-1
 475 349 l 1,5,-1
 286 349 l 2,6,7
 214 349 214 349 169 309.5 c 128,-1,8
 124 270 124 270 124 206 c 0,0,1
43 206 m 0,9,10
 43 298 43 298 106 356.5 c 128,-1,11
 169 415 169 415 277 415 c 2,12,-1
 475 415 l 1,13,-1
 475 668 l 1,14,-1
 128 668 l 1,15,-1
 128 735 l 1,16,-1
 553 735 l 1,17,-1
 553 0 l 1,18,-1
 265 0 l 2,19,20
 165 0 165 0 104 58.5 c 128,-1,21
 43 117 43 117 43 206 c 0,9,10
EndSplineSet
EndChar

StartChar: uni018C
Encoding: 396 396 334
Width: 585
GlyphClass: 2
Flags: W
LayerCount: 2
Fore
SplineSet
120 264 m 0,0,1
 120 163 120 163 163.5 104.5 c 128,-1,2
 207 46 207 46 275 46 c 0,3,4
 340 46 340 46 383.5 105.5 c 128,-1,5
 427 165 427 165 427 264 c 256,6,7
 427 363 427 363 382.5 422.5 c 128,-1,8
 338 482 338 482 274 482 c 0,9,10
 205 482 205 482 162.5 423 c 128,-1,11
 120 364 120 364 120 264 c 0,0,1
43 264 m 0,12,13
 43 393 43 393 106 469.5 c 128,-1,14
 169 546 169 546 265 546 c 0,15,16
 327 546 327 546 369.5 509.5 c 128,-1,17
 412 473 412 473 425 436 c 1,18,-1
 425 700 l 1,19,-1
 137 700 l 1,20,-1
 137 762 l 1,21,-1
 500 762 l 1,22,-1
 500 0 l 1,23,-1
 427 0 l 1,24,-1
 427 95 l 1,25,26
 407 49 407 49 365 15.5 c 128,-1,27
 323 -18 323 -18 264 -18 c 0,28,29
 224 -18 224 -18 186 -1.5 c 128,-1,30
 148 15 148 15 115 47 c 128,-1,31
 82 79 82 79 62.5 135 c 128,-1,32
 43 191 43 191 43 264 c 0,12,13
EndSplineSet
EndChar

StartChar: uni018D
Encoding: 397 397 335
Width: 611
GlyphClass: 2
Flags: W
LayerCount: 2
Fore
SplineSet
120 317 m 0,0,1
 120 250 120 250 178 193 c 128,-1,2
 236 136 236 136 311 106 c 1,3,4
 390 141 390 141 440.5 198 c 128,-1,5
 491 255 491 255 491 317 c 0,6,7
 491 386 491 386 443.5 434 c 128,-1,8
 396 482 396 482 309 482 c 0,9,10
 226 482 226 482 173 436.5 c 128,-1,11
 120 391 120 391 120 317 c 0,0,1
43 314 m 0,12,13
 43 422 43 422 115.5 484 c 128,-1,14
 188 546 188 546 310 546 c 0,15,16
 430 546 430 546 499 481.5 c 128,-1,17
 568 417 568 417 568 320 c 0,18,19
 568 252 568 252 516.5 184 c 128,-1,20
 465 116 465 116 375 72 c 1,21,22
 496 4 496 4 496 -73 c 0,23,24
 496 -140 496 -140 441.5 -182.5 c 128,-1,25
 387 -225 387 -225 291 -225 c 0,26,27
 145 -225 145 -225 72 -111 c 1,28,-1
 129 -77 l 1,29,30
 152 -110 152 -110 194 -135 c 128,-1,31
 236 -160 236 -160 290 -160 c 0,32,33
 343 -160 343 -160 381 -136 c 128,-1,34
 419 -112 419 -112 419 -73 c 0,35,36
 419 -58 419 -58 408.5 -42.5 c 128,-1,37
 398 -27 398 -27 385.5 -16 c 128,-1,38
 373 -5 373 -5 346.5 10.5 c 128,-1,39
 320 26 320 26 302 35.5 c 128,-1,40
 284 45 284 45 249 62 c 0,41,42
 159 107 159 107 101 171.5 c 128,-1,43
 43 236 43 236 43 314 c 0,12,13
EndSplineSet
EndChar

StartChar: uni018E
Encoding: 398 398 336
Width: 609
GlyphClass: 2
Flags: W
LayerCount: 2
Fore
SplineSet
39 0 m 1,0,-1
 39 67 l 1,1,-1
 429 67 l 1,2,-1
 429 347 l 1,3,-1
 84 347 l 1,4,-1
 84 413 l 1,5,-1
 429 413 l 1,6,-1
 429 668 l 1,7,-1
 48 668 l 1,8,-1
 48 735 l 1,9,-1
 507 735 l 1,10,-1
 507 0 l 1,11,-1
 39 0 l 1,0,-1
EndSplineSet
EndChar

StartChar: uni018F
Encoding: 399 399 337
Width: 701
GlyphClass: 2
Flags: W
LayerCount: 2
Fore
SplineSet
47 341 m 0,0,1
 47 383 47 383 48 399 c 1,2,-1
 569 399 l 1,3,4
 563 532 563 532 504.5 609 c 128,-1,5
 446 686 446 686 338 686 c 0,6,7
 212 686 212 686 136 573 c 1,8,-1
 70 601 l 1,9,10
 108 673 108 673 178 713 c 128,-1,11
 248 753 248 753 339 753 c 0,12,13
 494 753 494 753 573 646 c 128,-1,14
 652 539 652 539 652 366 c 0,15,16
 652 186 652 186 565 84 c 128,-1,17
 478 -18 478 -18 341 -18 c 0,18,19
 244 -18 244 -18 176 33.5 c 128,-1,20
 108 85 108 85 77.5 164 c 128,-1,21
 47 243 47 243 47 341 c 0,0,1
129 332 m 1,22,23
 129 327 129 327 129.5 319.5 c 128,-1,24
 130 312 130 312 130 309 c 0,25,26
 131 260 131 260 142.5 217.5 c 128,-1,27
 154 175 154 175 177.5 135 c 128,-1,28
 201 95 201 95 244 72 c 128,-1,29
 287 49 287 49 343 49 c 0,30,31
 384 49 384 49 421.5 64.5 c 128,-1,32
 459 80 459 80 493 112 c 128,-1,33
 527 144 527 144 548 201 c 128,-1,34
 569 258 569 258 570 332 c 1,35,-1
 129 332 l 1,22,23
EndSplineSet
EndChar

StartChar: uni0190
Encoding: 400 400 338
Width: 603
GlyphClass: 2
Flags: W
LayerCount: 2
Fore
SplineSet
51 203 m 0,0,1
 51 280 51 280 98 327 c 128,-1,2
 145 374 145 374 206 391 c 1,3,4
 155 410 155 410 117.5 455.5 c 128,-1,5
 80 501 80 501 80 565 c 0,6,7
 80 647 80 647 142 700 c 128,-1,8
 204 753 204 753 310 753 c 0,9,10
 406 753 406 753 462.5 707 c 128,-1,11
 519 661 519 661 547 600 c 1,12,-1
 480 577 l 1,13,14
 422 689 422 689 314 689 c 0,15,16
 247 689 247 689 203.5 651.5 c 128,-1,17
 160 614 160 614 160 557 c 0,18,19
 160 493 160 493 211.5 454.5 c 128,-1,20
 263 416 263 416 331 416 c 0,21,22
 373 416 373 416 394 418 c 1,23,-1
 394 353 l 1,24,25
 371 355 371 355 328 355 c 0,26,27
 249 355 249 355 190 316 c 128,-1,28
 131 277 131 277 131 204 c 0,29,30
 131 127 131 127 186 87 c 128,-1,31
 241 47 241 47 318 47 c 0,32,33
 372 47 372 47 424 77 c 128,-1,34
 476 107 476 107 502 151 c 1,35,-1
 566 125 l 1,36,37
 535 60 535 60 467 21 c 128,-1,38
 399 -18 399 -18 315 -18 c 0,39,40
 201 -18 201 -18 126 41 c 128,-1,41
 51 100 51 100 51 203 c 0,0,1
EndSplineSet
EndChar

StartChar: uni0191
Encoding: 401 401 339
Width: 561
GlyphClass: 2
Flags: W
LayerCount: 2
Fore
SplineSet
-35 -164 m 1,0,1
 -1 -169 -1 -169 14 -169 c 0,2,3
 62 -169 62 -169 82 -136 c 128,-1,4
 102 -103 102 -103 102 -36 c 2,5,-1
 102 735 l 1,6,-1
 548 735 l 1,7,-1
 548 668 l 1,8,-1
 181 668 l 1,9,-1
 181 403 l 1,10,-1
 510 403 l 1,11,-1
 510 338 l 1,12,-1
 181 338 l 1,13,-1
 181 -36 l 2,14,15
 181 -140 181 -140 138.5 -187.5 c 128,-1,16
 96 -235 96 -235 27 -235 c 0,17,18
 -2 -235 -2 -235 -35 -229 c 1,19,-1
 -35 -164 l 1,0,1
EndSplineSet
EndChar

StartChar: florin
Encoding: 402 402 340
Width: 336
GlyphClass: 2
Flags: W
LayerCount: 2
Fore
SplineSet
-29 -165 m 1,0,1
 -9 -169 -9 -169 21 -169 c 0,2,3
 114 -169 114 -169 114 -30 c 2,4,-1
 114 464 l 1,5,-1
 23 464 l 1,6,-1
 23 528 l 1,7,-1
 114 528 l 1,8,-1
 114 609 l 2,9,10
 114 688 114 688 152.5 725 c 128,-1,11
 191 762 191 762 260 762 c 2,12,-1
 330 762 l 1,13,-1
 330 700 l 1,14,-1
 270 700 l 2,15,16
 189 700 189 700 189 602 c 2,17,-1
 189 528 l 1,18,-1
 316 528 l 1,19,-1
 316 464 l 1,20,-1
 189 464 l 1,21,-1
 189 -32 l 2,22,23
 189 -137 189 -137 147 -186 c 128,-1,24
 105 -235 105 -235 34 -235 c 0,25,26
 21 -235 21 -235 -29 -229 c 1,27,-1
 -29 -165 l 1,0,1
EndSplineSet
EndChar

StartChar: uni0194
Encoding: 404 404 342
Width: 606
GlyphClass: 2
Flags: W
LayerCount: 2
Fore
SplineSet
-2 735 m 1,0,-1
 85 735 l 1,1,-1
 291 187 l 1,2,-1
 304 150 l 1,3,-1
 305 150 l 1,4,-1
 317 187 l 1,5,-1
 521 735 l 1,6,-1
 608 735 l 1,7,-1
 364 112 l 1,8,9
 407 57 407 57 430.5 11.5 c 128,-1,10
 454 -34 454 -34 454 -84 c 0,11,12
 454 -147 454 -147 412 -191 c 128,-1,13
 370 -235 370 -235 304 -235 c 0,14,15
 237 -235 237 -235 195 -193.5 c 128,-1,16
 153 -152 153 -152 153 -84 c 0,17,18
 153 -51 153 -51 169 -12.5 c 128,-1,19
 185 26 185 26 201.5 51 c 128,-1,20
 218 76 218 76 244 112 c 1,21,-1
 -2 735 l 1,0,-1
232 -81 m 0,22,23
 232 -120 232 -120 252 -146 c 128,-1,24
 272 -172 272 -172 304 -172 c 0,25,26
 337 -172 337 -172 357 -145 c 128,-1,27
 377 -118 377 -118 377 -81 c 0,28,29
 377 -16 377 -16 303 70 c 1,30,31
 232 -12 232 -12 232 -81 c 0,22,23
EndSplineSet
EndChar

StartChar: uni0195
Encoding: 405 405 343
Width: 896
GlyphClass: 2
Flags: W
LayerCount: 2
Fore
SplineSet
84 0 m 1,0,-1
 84 762 l 1,1,-1
 160 762 l 1,2,-1
 160 444 l 1,3,-1
 161 444 l 1,4,5
 184 490 184 490 227.5 518 c 128,-1,6
 271 546 271 546 324 546 c 0,7,8
 496 546 496 546 496 341 c 2,9,-1
 496 175 l 2,10,11
 496 116 496 116 525.5 81 c 128,-1,12
 555 46 555 46 620 46 c 0,13,14
 747 46 747 46 747 179 c 2,15,-1
 747 528 l 1,16,-1
 823 528 l 1,17,-1
 823 169 l 2,18,19
 823 77 823 77 768.5 29.5 c 128,-1,20
 714 -18 714 -18 620 -18 c 0,21,22
 581 -18 581 -18 547 -9 c 128,-1,23
 513 0 513 0 483.5 19.5 c 128,-1,24
 454 39 454 39 437 75.5 c 128,-1,25
 420 112 420 112 420 162 c 2,26,-1
 420 329 l 2,27,28
 420 482 420 482 310 482 c 0,29,30
 249 482 249 482 204.5 432 c 128,-1,31
 160 382 160 382 160 316 c 0,32,33
 160 314 160 314 160 313 c 2,34,-1
 160 0 l 1,35,-1
 84 0 l 1,0,-1
EndSplineSet
EndChar

StartChar: uni0196
Encoding: 406 406 344
Width: 347
GlyphClass: 2
Flags: W
LayerCount: 2
Fore
SplineSet
102 160 m 2,0,-1
 102 735 l 1,1,-1
 181 735 l 1,2,-1
 181 163 l 2,3,4
 181 104 181 104 199.5 76.5 c 128,-1,5
 218 49 218 49 260 49 c 0,6,7
 296 49 296 49 332 55 c 1,8,-1
 332 -11 l 1,9,10
 279 -18 279 -18 247 -18 c 0,11,12
 181 -18 181 -18 141.5 25 c 128,-1,13
 102 68 102 68 102 160 c 2,0,-1
EndSplineSet
EndChar

StartChar: uni0197
Encoding: 407 407 345
Width: 282
GlyphClass: 2
Flags: W
LayerCount: 2
Fore
SplineSet
26 343 m 1,0,-1
 26 405 l 1,1,-1
 102 405 l 1,2,-1
 102 735 l 1,3,-1
 181 735 l 1,4,-1
 181 405 l 1,5,-1
 257 405 l 1,6,-1
 257 343 l 1,7,-1
 181 343 l 1,8,-1
 181 0 l 1,9,-1
 102 0 l 1,10,-1
 102 343 l 1,11,-1
 26 343 l 1,0,-1
EndSplineSet
EndChar

StartChar: uni0198
Encoding: 408 408 346
Width: 637
GlyphClass: 2
Flags: W
LayerCount: 2
Fore
SplineSet
102 0 m 1,0,-1
 102 735 l 1,1,-1
 181 735 l 1,2,-1
 181 346 l 1,3,-1
 183 346 l 1,4,-1
 483 696 l 2,5,6
 533 753 533 753 612 753 c 0,7,8
 652 753 652 753 683 745 c 1,9,-1
 683 677 l 1,10,11
 648 686 648 686 616 686 c 0,12,13
 577 686 577 686 553 657 c 2,14,-1
 341 417 l 1,15,-1
 637 0 l 1,16,-1
 538 0 l 1,17,-1
 291 360 l 1,18,-1
 181 235 l 1,19,-1
 181 0 l 1,20,-1
 102 0 l 1,0,-1
EndSplineSet
EndChar

StartChar: uni0199
Encoding: 409 409 347
Width: 508
GlyphClass: 2
Flags: W
LayerCount: 2
Fore
SplineSet
86 0 m 1,0,-1
 86 610 l 2,1,2
 86 686 86 686 131.5 727 c 128,-1,3
 177 768 177 768 252 768 c 0,4,5
 279 768 279 768 324 764 c 1,6,-1
 324 699 l 1,7,8
 289 703 289 703 265 703 c 0,9,10
 220 703 220 703 191 676 c 128,-1,11
 162 649 162 649 162 598 c 2,12,-1
 162 262 l 1,13,-1
 393 528 l 1,14,-1
 493 528 l 1,15,-1
 303 317 l 1,16,-1
 514 0 l 1,17,-1
 422 0 l 1,18,-1
 255 264 l 1,19,-1
 162 161 l 1,20,-1
 162 0 l 1,21,-1
 86 0 l 1,0,-1
EndSplineSet
EndChar

StartChar: uni019A
Encoding: 410 410 348
Width: 255
GlyphClass: 2
Flags: W
LayerCount: 2
Fore
SplineSet
8 371 m 1,0,-1
 8 433 l 1,1,-1
 90 433 l 1,2,-1
 90 762 l 1,3,-1
 166 762 l 1,4,-1
 166 433 l 1,5,-1
 248 433 l 1,6,-1
 248 371 l 1,7,-1
 166 371 l 1,8,-1
 166 0 l 1,9,-1
 90 0 l 1,10,-1
 90 371 l 1,11,-1
 8 371 l 1,0,-1
EndSplineSet
EndChar

StartChar: uni019B
Encoding: 411 411 349
Width: 494
GlyphClass: 2
Flags: W
LayerCount: 2
Fore
SplineSet
7 0 m 1,0,-1
 213 535 l 1,1,-1
 196 585 l 1,2,-1
 75 498 l 1,3,-1
 38 545 l 1,4,-1
 174 638 l 1,5,6
 143 696 143 696 79 696 c 2,7,-1
 60 696 l 1,8,-1
 60 759 l 1,9,-1
 91 759 l 2,10,11
 181 759 181 759 230 677 c 1,12,-1
 325 750 l 1,13,-1
 362 703 l 1,14,-1
 255 624 l 1,15,-1
 486 0 l 1,16,-1
 398 0 l 1,17,-1
 295 309 l 2,18,19
 293 315 293 315 276 365.5 c 128,-1,20
 259 416 259 416 251 443 c 1,21,-1
 247 443 l 1,22,23
 236 401 236 401 204 309 c 2,24,-1
 95 0 l 1,25,-1
 7 0 l 1,0,-1
EndSplineSet
EndChar

StartChar: uni019C
Encoding: 412 412 350
Width: 960
GlyphClass: 2
Flags: W
LayerCount: 2
Fore
SplineSet
102 218 m 2,0,-1
 102 735 l 1,1,-1
 180 735 l 1,2,-1
 180 215 l 2,3,4
 180 48 180 48 289 48 c 0,5,6
 351 48 351 48 396 103.5 c 128,-1,7
 441 159 441 159 441 240 c 2,8,-1
 441 735 l 1,9,-1
 519 735 l 1,10,-1
 519 213 l 2,11,12
 519 133 519 133 548 91 c 128,-1,13
 577 49 577 49 631 49 c 0,14,15
 697 49 697 49 738.5 101.5 c 128,-1,16
 780 154 780 154 780 236 c 2,17,-1
 780 735 l 1,18,-1
 858 735 l 1,19,-1
 858 0 l 1,20,-1
 783 0 l 1,21,-1
 783 88 l 1,22,-1
 781 88 l 1,23,24
 769 49 769 49 723 15.5 c 128,-1,25
 677 -18 677 -18 614 -18 c 0,26,27
 491 -18 491 -18 460 105 c 1,28,29
 447 61 447 61 397.5 21.5 c 128,-1,30
 348 -18 348 -18 272 -18 c 0,31,32
 102 -18 102 -18 102 218 c 2,0,-1
EndSplineSet
EndChar

StartChar: uni019D
Encoding: 413 413 351
Width: 726
GlyphClass: 2
Flags: W
LayerCount: 2
Fore
SplineSet
102 735 m 1,0,-1
 192 735 l 1,1,-1
 497 209 l 1,2,-1
 551 111 l 1,3,-1
 556 111 l 1,4,5
 546 203 546 203 546 319 c 2,6,-1
 546 735 l 1,7,-1
 624 735 l 1,8,-1
 624 0 l 1,9,-1
 534 0 l 1,10,-1
 233 522 l 1,11,-1
 176 623 l 1,12,-1
 171 623 l 1,13,14
 181 528 181 528 181 416 c 2,15,-1
 181 -18 l 2,16,17
 181 -235 181 -235 22 -235 c 0,18,19
 1 -235 1 -235 -28 -230 c 1,20,-1
 -28 -165 l 1,21,22
 -14 -168 -14 -168 8 -168 c 0,23,24
 63 -168 63 -168 82.5 -130.5 c 128,-1,25
 102 -93 102 -93 102 -16 c 2,26,-1
 102 735 l 1,0,-1
EndSplineSet
EndChar

StartChar: uni019E
Encoding: 414 414 352
Width: 574
GlyphClass: 2
Flags: W
LayerCount: 2
Fore
SplineSet
79 0 m 1,0,-1
 79 528 l 1,1,-1
 152 528 l 1,2,-1
 152 439 l 1,3,-1
 153 439 l 1,4,5
 173 484 173 484 216 515 c 128,-1,6
 259 546 259 546 321 546 c 0,7,8
 394 546 394 546 442 499.5 c 128,-1,9
 490 453 490 453 490 341 c 2,10,-1
 490 -231 l 1,11,-1
 414 -231 l 1,12,-1
 414 329 l 2,13,14
 414 482 414 482 304 482 c 0,15,16
 243 482 243 482 198.5 432.5 c 128,-1,17
 154 383 154 383 154 315 c 2,18,-1
 154 0 l 1,19,-1
 79 0 l 1,0,-1
EndSplineSet
EndChar

StartChar: uni019F
Encoding: 415 415 353
Width: 713
GlyphClass: 2
Flags: W
LayerCount: 2
Fore
SplineSet
51 367 m 0,0,1
 51 540 51 540 134.5 646.5 c 128,-1,2
 218 753 218 753 357 753 c 0,3,4
 498 753 498 753 580 647 c 128,-1,5
 662 541 662 541 662 366 c 0,6,7
 662 189 662 189 579 85.5 c 128,-1,8
 496 -18 496 -18 357 -18 c 256,9,10
 218 -18 218 -18 134.5 86.5 c 128,-1,11
 51 191 51 191 51 367 c 0,0,1
581 335 m 1,12,-1
 132 335 l 1,13,14
 139 203 139 203 199 126.5 c 128,-1,15
 259 50 259 50 357 50 c 0,16,17
 453 50 453 50 513.5 125.5 c 128,-1,18
 574 201 574 201 581 335 c 1,12,-1
132 396 m 1,19,-1
 581 396 l 1,20,21
 575 529 575 529 516 607.5 c 128,-1,22
 457 686 457 686 357 686 c 0,23,24
 258 686 258 686 198 608 c 128,-1,25
 138 530 138 530 132 396 c 1,19,-1
EndSplineSet
EndChar

StartChar: uni01A2
Encoding: 418 418 356
Width: 978
GlyphClass: 2
Flags: W
LayerCount: 2
Fore
SplineSet
51 362 m 0,0,1
 51 544 51 544 135.5 648.5 c 128,-1,2
 220 753 220 753 349 753 c 0,3,4
 399 753 399 753 495 732.5 c 128,-1,5
 591 712 591 712 665 712 c 0,6,7
 741 712 741 712 876 735 c 1,8,-1
 876 0 l 1,9,-1
 799 0 l 1,10,-1
 799 658 l 1,11,12
 736 647 736 647 664 647 c 0,13,14
 601 647 601 647 541 656 c 1,15,-1
 541 55 l 1,16,17
 462 -18 462 -18 349 -18 c 0,18,19
 219 -18 219 -18 135 86.5 c 128,-1,20
 51 191 51 191 51 362 c 0,0,1
131 362 m 0,21,22
 131 217 131 217 193.5 133 c 128,-1,23
 256 49 256 49 349 49 c 0,24,25
 409 49 409 49 462 84 c 1,26,-1
 462 667 l 1,27,28
 455 669 455 669 440 673.5 c 128,-1,29
 425 678 425 678 416.5 680.5 c 128,-1,30
 408 683 408 683 390 685 c 128,-1,31
 372 687 372 687 349 687 c 0,32,33
 259 687 259 687 195 602 c 128,-1,34
 131 517 131 517 131 362 c 0,21,22
EndSplineSet
EndChar

StartChar: uni01A3
Encoding: 419 419 357
Width: 799
GlyphClass: 2
Flags: W
LayerCount: 2
Fore
SplineSet
43 264 m 256,0,1
 43 398 43 398 108.5 472 c 128,-1,2
 174 546 174 546 283 546 c 0,3,4
 329 546 329 546 410 530.5 c 128,-1,5
 491 515 491 515 552 515 c 0,6,7
 637 515 637 515 720 531 c 1,8,-1
 720 0 l 1,9,-1
 646 0 l 1,10,-1
 646 457 l 1,11,12
 611 452 611 452 551 452 c 0,13,14
 488 452 488 452 461 456 c 1,15,-1
 461 71 l 1,16,17
 396 -18 396 -18 283 -18 c 0,18,19
 177 -18 177 -18 110 56 c 128,-1,20
 43 130 43 130 43 264 c 256,0,1
120 264 m 0,21,22
 120 165 120 165 164.5 105.5 c 128,-1,23
 209 46 209 46 283 46 c 0,24,25
 343 46 343 46 386 105 c 1,26,-1
 386 467 l 1,27,28
 314 482 314 482 283 482 c 0,29,30
 203 482 203 482 161.5 421 c 128,-1,31
 120 360 120 360 120 264 c 0,21,22
EndSplineSet
EndChar

StartChar: uni01A5
Encoding: 421 421 359
Width: 585
GlyphClass: 2
Flags: W
LayerCount: 2
Fore
SplineSet
159 264 m 0,0,1
 159 162 159 162 201 104 c 128,-1,2
 243 46 243 46 310 46 c 0,3,4
 379 46 379 46 422 105 c 128,-1,5
 465 164 465 164 465 264 c 0,6,7
 465 362 465 362 422 422 c 128,-1,8
 379 482 379 482 310 482 c 0,9,10
 246 482 246 482 202.5 422.5 c 128,-1,11
 159 363 159 363 159 264 c 0,0,1
84 -231 m 1,12,-1
 84 609 l 2,13,14
 84 692 84 692 131.5 730 c 128,-1,15
 179 768 179 768 246 768 c 0,16,17
 272 768 272 768 319 764 c 1,18,-1
 319 700 l 1,19,20
 289 703 289 703 258 703 c 0,21,22
 209 703 209 703 183.5 672.5 c 128,-1,23
 158 642 158 642 158 598 c 2,24,-1
 158 430 l 1,25,26
 170 470 170 470 214.5 508 c 128,-1,27
 259 546 259 546 321 546 c 0,28,29
 416 546 416 546 479 469.5 c 128,-1,30
 542 393 542 393 542 264 c 0,31,32
 542 191 542 191 521.5 135 c 128,-1,33
 501 79 501 79 468.5 47 c 128,-1,34
 436 15 436 15 398 -1.5 c 128,-1,35
 360 -18 360 -18 320 -18 c 0,36,37
 260 -18 260 -18 218.5 15 c 128,-1,38
 177 48 177 48 160 92 c 1,39,-1
 160 -231 l 1,40,-1
 84 -231 l 1,12,-1
EndSplineSet
EndChar

StartChar: uni01A6
Encoding: 422 422 360
Width: 619
GlyphClass: 2
Flags: W
LayerCount: 2
Fore
SplineSet
166 297 m 1,0,-1
 325 297 l 2,1,2
 391 297 391 297 434 328 c 128,-1,3
 477 359 477 359 477 433 c 0,4,5
 477 557 477 557 328 557 c 2,6,-1
 166 557 l 1,7,-1
 166 297 l 1,0,-1
87 0 m 1,8,-1
 87 735 l 1,9,-1
 166 735 l 1,10,-1
 166 624 l 1,11,-1
 345 624 l 2,12,13
 452 624 452 624 504 571.5 c 128,-1,14
 556 519 556 519 556 439 c 0,15,16
 556 399 556 399 543.5 368 c 128,-1,17
 531 337 531 337 516 319.5 c 128,-1,18
 501 302 501 302 475 287 c 128,-1,19
 449 272 449 272 439.5 268.5 c 128,-1,20
 430 265 430 265 409 258 c 1,21,22
 448 237 448 237 466.5 208.5 c 128,-1,23
 485 180 485 180 500 128 c 0,24,25
 502 123 502 123 511 95 c 128,-1,26
 520 67 520 67 522.5 59 c 128,-1,27
 525 51 525 51 533.5 27.5 c 128,-1,28
 542 4 542 4 547.5 -9 c 128,-1,29
 553 -22 553 -22 563 -42 c 128,-1,30
 573 -62 573 -62 584 -80 c 1,31,-1
 498 -80 l 1,32,33
 481 -51 481 -51 468 -19 c 128,-1,34
 455 13 455 13 438.5 62.5 c 128,-1,35
 422 112 422 112 415 130 c 0,36,37
 397 182 397 182 371.5 207 c 128,-1,38
 346 232 346 232 297 232 c 2,39,-1
 166 232 l 1,40,-1
 166 0 l 1,41,-1
 87 0 l 1,8,-1
EndSplineSet
EndChar

StartChar: uni01A7
Encoding: 423 423 361
Width: 603
GlyphClass: 2
Flags: W
LayerCount: 2
Fore
SplineSet
40 192 m 0,0,1
 40 230 40 230 53 260 c 128,-1,2
 66 290 66 290 85 311 c 128,-1,3
 104 332 104 332 135 350 c 128,-1,4
 166 368 166 368 192.5 378.5 c 128,-1,5
 219 389 219 389 257 401 c 0,6,7
 367 438 367 438 402 459 c 0,8,9
 464 499 464 499 464 560 c 0,10,11
 464 617 464 617 421 651.5 c 128,-1,12
 378 686 378 686 301 686 c 0,13,14
 192 686 192 686 124 594 c 1,15,-1
 57 616 l 1,16,17
 88 674 88 674 152 713.5 c 128,-1,18
 216 753 216 753 299 753 c 0,19,20
 411 753 411 753 478.5 700.5 c 128,-1,21
 546 648 546 648 546 560 c 0,22,23
 546 532 546 532 537.5 507 c 128,-1,24
 529 482 529 482 518.5 464 c 128,-1,25
 508 446 508 446 485.5 429 c 128,-1,26
 463 412 463 412 448 402.5 c 128,-1,27
 433 393 433 393 401 380 c 128,-1,28
 369 367 369 367 354.5 362 c 128,-1,29
 340 357 340 357 304.5 345.5 c 128,-1,30
 269 334 269 334 248.5 326 c 128,-1,31
 228 318 228 318 200 303.5 c 128,-1,32
 172 289 172 289 157 274.5 c 128,-1,33
 142 260 142 260 131.5 238 c 128,-1,34
 121 216 121 216 121 189 c 0,35,36
 121 126 121 126 170 87.5 c 128,-1,37
 219 49 219 49 294 49 c 0,38,39
 355 49 355 49 410.5 81 c 128,-1,40
 466 113 466 113 496 161 c 1,41,-1
 564 134 l 1,42,43
 529 67 529 67 459 24.5 c 128,-1,44
 389 -18 389 -18 296 -18 c 0,45,46
 180 -18 180 -18 110 37.5 c 128,-1,47
 40 93 40 93 40 192 c 0,0,1
EndSplineSet
EndChar

StartChar: uni01A8
Encoding: 424 424 362
Width: 492
GlyphClass: 2
Flags: W
LayerCount: 2
Fore
SplineSet
34 131 m 0,0,1
 34 163 34 163 50.5 189.5 c 128,-1,2
 67 216 67 216 97.5 234 c 128,-1,3
 128 252 128 252 154.5 263 c 128,-1,4
 181 274 181 274 219 286 c 0,5,6
 253 296 253 296 272 303.5 c 128,-1,7
 291 311 291 311 316 324.5 c 128,-1,8
 341 338 341 338 352.5 355.5 c 128,-1,9
 364 373 364 373 364 396 c 0,10,11
 364 437 364 437 332 459.5 c 128,-1,12
 300 482 300 482 241 482 c 0,13,14
 193 482 193 482 155.5 456.5 c 128,-1,15
 118 431 118 431 96 397 c 1,16,-1
 45 431 l 1,17,18
 71 478 71 478 124.5 512 c 128,-1,19
 178 546 178 546 242 546 c 0,20,21
 331 546 331 546 386 506.5 c 128,-1,22
 441 467 441 467 441 397 c 0,23,24
 441 363 441 363 426.5 336.5 c 128,-1,25
 412 310 412 310 385 292 c 128,-1,26
 358 274 358 274 334 263.5 c 128,-1,27
 310 253 310 253 275 241 c 0,28,29
 267 238 267 238 246.5 232 c 128,-1,30
 226 226 226 226 216.5 223 c 128,-1,31
 207 220 207 220 189.5 213.5 c 128,-1,32
 172 207 172 207 163.5 202 c 128,-1,33
 155 197 155 197 143 189 c 128,-1,34
 131 181 131 181 125.5 173 c 128,-1,35
 120 165 120 165 115.5 154 c 128,-1,36
 111 143 111 143 111 131 c 0,37,38
 111 90 111 90 146 68 c 128,-1,39
 181 46 181 46 241 46 c 0,40,41
 289 46 289 46 331 70 c 128,-1,42
 373 94 373 94 399 137 c 1,43,-1
 456 104 l 1,44,45
 426 49 426 49 371 15.5 c 128,-1,46
 316 -18 316 -18 241 -18 c 0,47,48
 143 -18 143 -18 88.5 25.5 c 128,-1,49
 34 69 34 69 34 131 c 0,0,1
EndSplineSet
EndChar

StartChar: uni01A9
Encoding: 425 425 363
Width: 615
GlyphClass: 2
Flags: W
LayerCount: 2
Fore
SplineSet
85 0 m 1,0,-1
 85 53 l 1,1,-1
 358 368 l 1,2,-1
 85 682 l 1,3,-1
 85 735 l 1,4,-1
 544 735 l 1,5,-1
 544 667 l 1,6,-1
 193 667 l 1,7,-1
 447 368 l 1,8,-1
 193 67 l 1,9,-1
 550 67 l 1,10,-1
 550 0 l 1,11,-1
 85 0 l 1,0,-1
EndSplineSet
EndChar

StartChar: uni01AA
Encoding: 426 426 364
Width: 434
GlyphClass: 2
Flags: W
LayerCount: 2
Fore
SplineSet
27 609 m 0,0,1
 27 574 27 574 52 554 c 128,-1,2
 77 534 77 534 110 534 c 0,3,4
 171 534 171 534 206 566 c 1,5,6
 206 616 206 616 184.5 653 c 128,-1,7
 163 690 163 690 112 690 c 0,8,9
 77 690 77 690 52 666.5 c 128,-1,10
 27 643 27 643 27 609 c 0,0,1
-49 606 m 0,11,12
 -49 673 -49 673 -3.5 713 c 128,-1,13
 42 753 42 753 111 753 c 0,14,15
 194 753 194 753 237.5 701.5 c 128,-1,16
 281 650 281 650 281 559 c 2,17,-1
 281 -70 l 2,18,19
 281 -119 281 -119 300 -144 c 128,-1,20
 319 -169 319 -169 365 -169 c 0,21,22
 382 -169 382 -169 421 -164 c 1,23,-1
 421 -228 l 1,24,25
 355 -235 355 -235 351 -235 c 0,26,27
 281 -235 281 -235 242.5 -195 c 128,-1,28
 204 -155 204 -155 204 -74 c 2,29,-1
 204 499 l 1,30,31
 173 470 173 470 99 470 c 0,32,33
 35 470 35 470 -7 508 c 128,-1,34
 -49 546 -49 546 -49 606 c 0,11,12
EndSplineSet
EndChar

StartChar: uni01AB
Encoding: 427 427 365
Width: 358
GlyphClass: 2
Flags: W
LayerCount: 2
Fore
SplineSet
20 464 m 1,0,-1
 20 528 l 1,1,-1
 112 528 l 1,2,-1
 112 698 l 1,3,-1
 187 698 l 1,4,-1
 187 528 l 1,5,-1
 327 528 l 1,6,-1
 327 464 l 1,7,-1
 187 464 l 1,8,-1
 187 155 l 2,9,10
 187 107 187 107 206.5 86 c 128,-1,11
 226 65 226 65 267 65 c 0,12,13
 324 65 324 65 351 70 c 1,14,-1
 351 -24 l 2,15,16
 351 -235 351 -235 195 -235 c 0,17,18
 171 -235 171 -235 139 -229 c 1,19,-1
 139 -164 l 1,20,21
 171 -169 171 -169 187 -169 c 0,22,23
 278 -169 278 -169 278 -33 c 2,24,-1
 278 -1 l 1,25,26
 247 -1 247 -1 216 4 c 0,27,28
 112 22 112 22 112 148 c 2,29,-1
 112 464 l 1,30,-1
 20 464 l 1,0,-1
EndSplineSet
EndChar

StartChar: uni01AC
Encoding: 428 428 366
Width: 579
GlyphClass: 2
Flags: W
LayerCount: 2
Fore
SplineSet
-23 600 m 0,0,1
 -23 735 -23 735 160 735 c 2,2,-1
 569 735 l 1,3,-1
 569 667 l 1,4,-1
 345 667 l 1,5,-1
 345 0 l 1,6,-1
 267 0 l 1,7,-1
 267 667 l 1,8,-1
 162 667 l 2,9,10
 48 667 48 667 48 594 c 0,11,12
 48 578 48 578 52 558 c 1,13,-1
 -18 558 l 1,14,15
 -23 580 -23 580 -23 600 c 0,0,1
EndSplineSet
EndChar

StartChar: uni01AD
Encoding: 429 429 367
Width: 358
GlyphClass: 2
Flags: W
LayerCount: 2
Fore
SplineSet
20 464 m 1,0,-1
 20 528 l 1,1,-1
 112 528 l 1,2,-1
 112 610 l 2,3,4
 112 686 112 686 157 727 c 128,-1,5
 202 768 202 768 278 768 c 0,6,7
 303 768 303 768 348 764 c 1,8,-1
 348 700 l 1,9,10
 322 703 322 703 290 703 c 0,11,12
 243 703 243 703 215 677 c 128,-1,13
 187 651 187 651 187 602 c 2,14,-1
 187 528 l 1,15,-1
 327 528 l 1,16,-1
 327 464 l 1,17,-1
 187 464 l 1,18,-1
 187 155 l 2,19,20
 187 107 187 107 206.5 86 c 128,-1,21
 226 65 226 65 267 65 c 2,22,-1
 328 65 l 1,23,-1
 328 0 l 1,24,-1
 257 0 l 2,25,26
 112 0 112 0 112 148 c 2,27,-1
 112 464 l 1,28,-1
 20 464 l 1,0,-1
EndSplineSet
EndChar

StartChar: uni01AE
Encoding: 430 430 368
Width: 548
GlyphClass: 2
Flags: W
LayerCount: 2
Fore
SplineSet
13 667 m 1,0,-1
 13 735 l 1,1,-1
 538 735 l 1,2,-1
 538 667 l 1,3,-1
 314 667 l 1,4,-1
 314 -58 l 2,5,6
 314 -117 314 -117 333.5 -143 c 128,-1,7
 353 -169 353 -169 400 -169 c 0,8,9
 412 -169 412 -169 448 -164 c 1,10,-1
 448 -229 l 1,11,12
 401 -235 401 -235 387 -235 c 0,13,14
 236 -235 236 -235 236 -57 c 2,15,-1
 236 667 l 1,16,-1
 13 667 l 1,0,-1
EndSplineSet
EndChar

StartChar: uni01B1
Encoding: 433 433 371
Width: 748
GlyphClass: 2
Flags: W
LayerCount: 2
Fore
SplineSet
51 303 m 0,0,1
 51 415 51 415 109 487.5 c 128,-1,2
 167 560 167 560 262 597 c 1,3,-1
 262 667 l 1,4,-1
 59 667 l 1,5,-1
 59 735 l 1,6,-1
 324 735 l 1,7,-1
 324 552 l 1,8,9
 230 525 230 525 181 458.5 c 128,-1,10
 132 392 132 392 132 303 c 0,11,12
 132 194 132 194 198.5 122.5 c 128,-1,13
 265 51 265 51 374 51 c 0,14,15
 482 51 482 51 548.5 122.5 c 128,-1,16
 615 194 615 194 615 303 c 0,17,18
 615 391 615 391 567.5 458 c 128,-1,19
 520 525 520 525 425 552 c 1,20,-1
 425 735 l 1,21,-1
 689 735 l 1,22,-1
 689 667 l 1,23,-1
 486 667 l 1,24,-1
 486 597 l 1,25,26
 581 562 581 562 639 489 c 128,-1,27
 697 416 697 416 697 303 c 0,28,29
 697 166 697 166 611 74 c 128,-1,30
 525 -18 525 -18 374 -18 c 0,31,32
 224 -18 224 -18 137.5 74 c 128,-1,33
 51 166 51 166 51 303 c 0,0,1
EndSplineSet
EndChar

StartChar: uni01B2
Encoding: 434 434 372
Width: 722
GlyphClass: 2
Flags: W
LayerCount: 2
Fore
SplineSet
102 244 m 2,0,-1
 102 735 l 1,1,-1
 181 735 l 1,2,-1
 181 249 l 2,3,4
 181 140 181 140 223.5 94.5 c 128,-1,5
 266 49 266 49 349 49 c 0,6,7
 452 49 452 49 520 151 c 128,-1,8
 588 253 588 253 588 414 c 0,9,10
 588 544 588 544 550.5 615 c 128,-1,11
 513 686 513 686 448 686 c 0,12,13
 418 686 418 686 383 677 c 1,14,-1
 383 746 l 1,15,16
 431 753 431 753 460 753 c 0,17,18
 555 753 555 753 611.5 668.5 c 128,-1,19
 668 584 668 584 668 416 c 0,20,21
 668 231 668 231 582 106.5 c 128,-1,22
 496 -18 496 -18 349 -18 c 0,23,24
 224 -18 224 -18 163 45 c 128,-1,25
 102 108 102 108 102 244 c 2,0,-1
EndSplineSet
EndChar

StartChar: uni01B3
Encoding: 435 435 373
Width: 592
GlyphClass: 2
Flags: W
LayerCount: 2
Fore
SplineSet
-4 735 m 1,0,-1
 88 735 l 1,1,-1
 226 491 l 2,2,3
 274 410 274 410 294 371 c 1,4,-1
 297 371 l 1,5,6
 308 394 308 394 365 491 c 2,7,-1
 465 669 l 2,8,9
 511 753 511 753 591 753 c 0,10,11
 609 753 609 753 639 750 c 1,12,-1
 639 684 l 1,13,14
 621 687 621 687 599 687 c 0,15,16
 565 687 565 687 532 630 c 2,17,-1
 335 302 l 1,18,-1
 335 0 l 1,19,-1
 256 0 l 1,20,-1
 256 302 l 1,21,-1
 -4 735 l 1,0,-1
EndSplineSet
EndChar

StartChar: uni01B4
Encoding: 436 436 374
Width: 494
GlyphClass: 2
Flags: W
LayerCount: 2
Fore
SplineSet
8 528 m 1,0,-1
 96 528 l 1,1,-1
 205 219 l 2,2,3
 219 181 219 181 248 85 c 1,4,-1
 252 85 l 1,5,6
 259 106 259 106 296 219 c 2,7,-1
 379 465 l 2,8,9
 405 542 405 542 497 542 c 0,10,11
 512 542 512 542 549 537 c 1,12,-1
 549 470 l 1,13,14
 527 475 527 475 510 475 c 0,15,16
 465 475 465 475 451 434 c 2,17,-1
 263 -79 l 2,18,19
 233 -161 233 -161 194 -196 c 128,-1,20
 155 -231 155 -231 100 -231 c 2,21,-1
 67 -231 l 1,22,-1
 67 -168 l 1,23,-1
 86 -168 l 2,24,25
 126 -168 126 -168 153.5 -140.5 c 128,-1,26
 181 -113 181 -113 200 -47 c 2,27,-1
 214 -7 l 1,28,-1
 8 528 l 1,0,-1
EndSplineSet
EndChar

StartChar: uni01B5
Encoding: 437 437 375
Width: 609
GlyphClass: 2
Flags: W
LayerCount: 2
Fore
SplineSet
105 333 m 1,0,-1
 105 394 l 1,1,-1
 274 394 l 1,2,-1
 460 668 l 1,3,-1
 78 668 l 1,4,-1
 78 735 l 1,5,-1
 555 735 l 1,6,-1
 555 676 l 1,7,-1
 364 394 l 1,8,-1
 497 394 l 1,9,-1
 497 333 l 1,10,-1
 321 333 l 1,11,-1
 140 67 l 1,12,-1
 566 67 l 1,13,-1
 566 0 l 1,14,-1
 45 0 l 1,15,-1
 45 58 l 1,16,-1
 232 333 l 1,17,-1
 105 333 l 1,0,-1
EndSplineSet
EndChar

StartChar: uni01B6
Encoding: 438 438 376
Width: 477
GlyphClass: 2
Flags: W
LayerCount: 2
Fore
SplineSet
31 0 m 1,0,-1
 31 51 l 1,1,-1
 172 238 l 1,2,-1
 70 238 l 1,3,-1
 70 300 l 1,4,-1
 217 300 l 1,5,-1
 340 464 l 1,6,-1
 58 464 l 1,7,-1
 58 528 l 1,8,-1
 437 528 l 1,9,-1
 437 480 l 1,10,-1
 303 300 l 1,11,-1
 404 300 l 1,12,-1
 404 238 l 1,13,-1
 257 238 l 1,14,-1
 128 64 l 1,15,-1
 446 64 l 1,16,-1
 446 0 l 1,17,-1
 31 0 l 1,0,-1
EndSplineSet
EndChar

StartChar: uni01B7
Encoding: 439 439 377
Width: 689
GlyphClass: 2
Flags: W
LayerCount: 2
Fore
SplineSet
51 -51 m 1,0,-1
 118 -25 l 1,1,2
 142 -82 142 -82 195.5 -120.5 c 128,-1,3
 249 -159 249 -159 322 -159 c 0,4,5
 430 -159 430 -159 491.5 -93.5 c 128,-1,6
 553 -28 553 -28 553 80 c 0,7,8
 553 185 553 185 485 246 c 128,-1,9
 417 307 417 307 284 307 c 2,10,-1
 209 307 l 1,11,-1
 209 371 l 1,12,-1
 469 667 l 1,13,-1
 77 667 l 1,14,-1
 77 735 l 1,15,-1
 587 735 l 1,16,-1
 587 691 l 1,17,-1
 304 371 l 1,18,-1
 325 371 l 1,19,20
 470 362 470 362 552 286 c 128,-1,21
 634 210 634 210 634 81 c 0,22,23
 634 -58 634 -58 547.5 -141.5 c 128,-1,24
 461 -225 461 -225 323 -225 c 0,25,26
 222 -225 222 -225 152 -175 c 128,-1,27
 82 -125 82 -125 51 -51 c 1,0,-1
EndSplineSet
EndChar

StartChar: uni01B8
Encoding: 440 440 378
Width: 689
GlyphClass: 2
Flags: W
LayerCount: 2
Fore
SplineSet
55 81 m 0,0,1
 55 209 55 209 142.5 290 c 128,-1,2
 230 371 230 371 364 371 c 2,3,-1
 385 371 l 1,4,-1
 103 691 l 1,5,-1
 103 735 l 1,6,-1
 612 735 l 1,7,-1
 612 667 l 1,8,-1
 220 667 l 1,9,-1
 480 371 l 1,10,-1
 480 307 l 1,11,-1
 406 307 l 2,12,13
 273 307 273 307 204 245.5 c 128,-1,14
 135 184 135 184 135 80 c 0,15,16
 135 -28 135 -28 197 -93.5 c 128,-1,17
 259 -159 259 -159 367 -159 c 0,18,19
 440 -159 440 -159 493.5 -120.5 c 128,-1,20
 547 -82 547 -82 571 -25 c 1,21,-1
 638 -51 l 1,22,23
 606 -125 606 -125 536.5 -175 c 128,-1,24
 467 -225 467 -225 366 -225 c 0,25,26
 228 -225 228 -225 141.5 -141.5 c 128,-1,27
 55 -58 55 -58 55 81 c 0,0,1
EndSplineSet
EndChar

StartChar: uni01B9
Encoding: 441 441 379
Width: 549
GlyphClass: 2
Flags: W
LayerCount: 2
Fore
SplineSet
48 4 m 0,0,1
 48 105 48 105 115 169.5 c 128,-1,2
 182 234 182 234 285 234 c 2,3,-1
 312 234 l 1,4,-1
 77 480 l 1,5,-1
 77 528 l 1,6,-1
 479 528 l 1,7,-1
 479 464 l 1,8,-1
 185 464 l 1,9,-1
 406 229 l 1,10,-1
 406 177 l 1,11,-1
 323 177 l 2,12,13
 228 177 228 177 177 130 c 128,-1,14
 126 83 126 83 126 4 c 0,15,16
 126 -72 126 -72 169 -121.5 c 128,-1,17
 212 -171 212 -171 287 -171 c 0,18,19
 392 -171 392 -171 442 -65 c 1,20,-1
 507 -84 l 1,21,22
 481 -152 481 -152 424 -193.5 c 128,-1,23
 367 -235 367 -235 285 -235 c 0,24,25
 179 -235 179 -235 113.5 -168 c 128,-1,26
 48 -101 48 -101 48 4 c 0,0,1
EndSplineSet
EndChar

StartChar: uni01BA
Encoding: 442 442 380
Width: 452
GlyphClass: 2
Flags: W
LayerCount: 2
Fore
SplineSet
46 -70 m 0,0,1
 46 -34 46 -34 73.5 -4 c 128,-1,2
 101 26 101 26 140 47 c 128,-1,3
 179 68 179 68 217.5 88 c 128,-1,4
 256 108 256 108 283.5 133 c 128,-1,5
 311 158 311 158 311 185 c 0,6,7
 311 215 311 215 274 233.5 c 128,-1,8
 237 252 237 252 165 252 c 2,9,-1
 130 252 l 1,10,-1
 130 295 l 1,11,-1
 305 464 l 1,12,-1
 49 464 l 1,13,-1
 49 528 l 1,14,-1
 402 528 l 1,15,-1
 402 478 l 1,16,-1
 213 297 l 1,17,-1
 235 296 l 2,18,19
 307 294 307 294 347.5 266 c 128,-1,20
 388 238 388 238 388 188 c 0,21,22
 388 149 388 149 361 116.5 c 128,-1,23
 334 84 334 84 295 62.5 c 128,-1,24
 256 41 256 41 217 21.5 c 128,-1,25
 178 2 178 2 151 -19.5 c 128,-1,26
 124 -41 124 -41 124 -65 c 0,27,28
 124 -126 124 -126 212 -126 c 0,29,30
 251 -126 251 -126 310 -116 c 1,31,-1
 310 -180 l 1,32,33
 249 -189 249 -189 202 -189 c 0,34,35
 131 -189 131 -189 88.5 -158.5 c 128,-1,36
 46 -128 46 -128 46 -70 c 0,0,1
EndSplineSet
EndChar

StartChar: uni01BB
Encoding: 443 443 381
Width: 553
GlyphClass: 2
Flags: W
LayerCount: 2
Fore
SplineSet
111 327 m 1,0,-1
 111 389 l 1,1,-1
 331 389 l 1,2,3
 406 468 406 468 406 551 c 0,4,5
 406 618 406 618 368.5 653.5 c 128,-1,6
 331 689 331 689 271 689 c 0,7,8
 158 689 158 689 118 551 c 1,9,-1
 51 569 l 1,10,11
 71 652 71 652 127.5 702.5 c 128,-1,12
 184 753 184 753 274 753 c 0,13,14
 368 753 368 753 427.5 698.5 c 128,-1,15
 487 644 487 644 487 549 c 0,16,17
 487 467 487 467 423 389 c 1,18,-1
 518 389 l 1,19,-1
 518 327 l 1,20,-1
 370 327 l 1,21,22
 358 315 358 315 326 284.5 c 128,-1,23
 294 254 294 254 283.5 243 c 128,-1,24
 273 232 273 232 249.5 208 c 128,-1,25
 226 184 226 184 215.5 171 c 128,-1,26
 205 158 205 158 190 138 c 128,-1,27
 175 118 175 118 166 100.5 c 128,-1,28
 157 83 157 83 150 65 c 1,29,-1
 485 65 l 1,30,-1
 485 0 l 1,31,-1
 56 0 l 1,32,33
 56 73 56 73 110 148 c 128,-1,34
 164 223 164 223 269 327 c 1,35,-1
 111 327 l 1,0,-1
EndSplineSet
EndChar

StartChar: uni01BC
Encoding: 444 444 382
Width: 559
GlyphClass: 2
Flags: W
LayerCount: 2
Fore
SplineSet
48 118 m 1,0,-1
 112 142 l 1,1,2
 156 47 156 47 265 47 c 0,3,4
 338 47 338 47 379.5 92.5 c 128,-1,5
 421 138 421 138 421 214 c 0,6,7
 421 284 421 284 370.5 334 c 128,-1,8
 320 384 320 384 218 384 c 0,9,10
 163 384 163 384 109 373 c 1,11,-1
 144 668 l 1,12,-1
 93 668 l 1,13,-1
 93 735 l 1,14,-1
 464 735 l 1,15,-1
 464 667 l 1,16,-1
 217 667 l 1,17,-1
 192 446 l 1,18,19
 209 448 209 448 247 448 c 0,20,21
 364 448 364 448 433 382 c 128,-1,22
 502 316 502 316 502 215 c 0,23,24
 502 113 502 113 440.5 47.5 c 128,-1,25
 379 -18 379 -18 268 -18 c 0,26,27
 184 -18 184 -18 129 20.5 c 128,-1,28
 74 59 74 59 48 118 c 1,0,-1
EndSplineSet
EndChar

StartChar: uni01BD
Encoding: 445 445 383
Width: 463
GlyphClass: 2
Flags: W
LayerCount: 2
Fore
SplineSet
46 87 m 1,0,-1
 106 116 l 1,1,2
 123 84 123 84 153 65 c 128,-1,3
 183 46 183 46 216 46 c 0,4,5
 271 46 271 46 300.5 75.5 c 128,-1,6
 330 105 330 105 330 152 c 0,7,8
 330 202 330 202 289.5 236.5 c 128,-1,9
 249 271 249 271 184 271 c 0,10,11
 144 271 144 271 98 264 c 1,12,-1
 129 464 l 1,13,-1
 85 464 l 1,14,-1
 85 528 l 1,15,-1
 377 528 l 1,16,-1
 377 464 l 1,17,-1
 194 464 l 1,18,-1
 174 335 l 1,19,-1
 200 335 l 2,20,21
 293 335 293 335 349.5 284 c 128,-1,22
 406 233 406 233 406 155 c 0,23,24
 406 80 406 80 358 31 c 128,-1,25
 310 -18 310 -18 216 -18 c 0,26,27
 103 -18 103 -18 46 87 c 1,0,-1
EndSplineSet
EndChar

StartChar: uni01BE
Encoding: 446 446 384
Width: 433
GlyphClass: 2
Flags: W
LayerCount: 2
Fore
SplineSet
34 464 m 1,0,-1
 34 528 l 1,1,-1
 111 528 l 1,2,-1
 111 692 l 1,3,-1
 186 692 l 1,4,-1
 186 528 l 1,5,-1
 317 528 l 1,6,-1
 317 464 l 1,7,-1
 186 464 l 1,8,-1
 186 397 l 2,9,10
 186 362 186 362 206.5 334 c 128,-1,11
 227 306 227 306 255.5 286.5 c 128,-1,12
 284 267 284 267 312.5 247 c 128,-1,13
 341 227 341 227 361 197 c 128,-1,14
 381 167 381 167 381 128 c 0,15,16
 381 64 381 64 338.5 23 c 128,-1,17
 296 -18 296 -18 210 -18 c 0,18,19
 96 -18 96 -18 39 82 c 1,20,-1
 93 114 l 1,21,22
 142 46 142 46 207 46 c 0,23,24
 255 46 255 46 280 67 c 128,-1,25
 305 88 305 88 305 126 c 0,26,27
 305 151 305 151 285 173 c 128,-1,28
 265 195 265 195 236.5 213.5 c 128,-1,29
 208 232 208 232 179.5 253.5 c 128,-1,30
 151 275 151 275 131 309.5 c 128,-1,31
 111 344 111 344 111 389 c 2,32,-1
 111 464 l 1,33,-1
 34 464 l 1,0,-1
EndSplineSet
EndChar

StartChar: uni01BF
Encoding: 447 447 385
Width: 577
GlyphClass: 2
Flags: W
LayerCount: 2
Fore
SplineSet
84 -231 m 1,0,-1
 84 528 l 1,1,-1
 160 528 l 1,2,-1
 160 484 l 1,3,4
 236 546 236 546 321 546 c 0,5,6
 420 546 420 546 477 487.5 c 128,-1,7
 534 429 534 429 534 331 c 0,8,9
 534 52 534 52 160 1 c 1,10,-1
 160 -231 l 1,11,-1
 84 -231 l 1,0,-1
160 63 m 1,12,13
 299 82 299 82 378.5 147 c 128,-1,14
 458 212 458 212 458 322 c 0,15,16
 458 401 458 401 417 441.5 c 128,-1,17
 376 482 376 482 311 482 c 0,18,19
 267 482 267 482 226 460 c 128,-1,20
 185 438 185 438 160 409 c 1,21,-1
 160 63 l 1,12,13
EndSplineSet
EndChar

StartChar: uni01C0
Encoding: 448 448 386
Width: 232
GlyphClass: 2
Flags: W
LayerCount: 2
Fore
SplineSet
81 -214 m 1,0,-1
 81 818 l 1,1,-1
 151 818 l 1,2,-1
 151 -214 l 1,3,-1
 81 -214 l 1,0,-1
EndSplineSet
EndChar

StartChar: uni01C1
Encoding: 449 449 387
Width: 398
GlyphClass: 2
Flags: W
LayerCount: 2
Fore
SplineSet
81 -214 m 1,0,-1
 81 818 l 1,1,-1
 151 818 l 1,2,-1
 151 -214 l 1,3,-1
 81 -214 l 1,0,-1
248 -214 m 1,4,-1
 248 818 l 1,5,-1
 318 818 l 1,6,-1
 318 -214 l 1,7,-1
 248 -214 l 1,4,-1
EndSplineSet
EndChar

StartChar: uni01C2
Encoding: 450 450 388
Width: 314
GlyphClass: 2
Flags: W
LayerCount: 2
Fore
SplineSet
20 422 m 1,0,-1
 20 476 l 1,1,-1
 124 476 l 1,2,-1
 124 818 l 1,3,-1
 193 818 l 1,4,-1
 193 476 l 1,5,-1
 294 476 l 1,6,-1
 294 422 l 1,7,-1
 193 422 l 1,8,-1
 193 259 l 1,9,-1
 294 259 l 1,10,-1
 294 205 l 1,11,-1
 193 205 l 1,12,-1
 193 -214 l 1,13,-1
 124 -214 l 1,14,-1
 124 205 l 1,15,-1
 20 205 l 1,16,-1
 20 259 l 1,17,-1
 124 259 l 1,18,-1
 124 422 l 1,19,-1
 20 422 l 1,0,-1
EndSplineSet
EndChar

StartChar: uni01DD
Encoding: 477 477 415
Width: 554
GlyphClass: 2
Flags: W
LayerCount: 2
Fore
SplineSet
41 249 m 0,0,1
 41 276 41 276 42 289 c 1,2,-1
 435 289 l 1,3,4
 435 367 435 367 390.5 424.5 c 128,-1,5
 346 482 346 482 268 482 c 0,6,7
 215 482 215 482 176 457 c 128,-1,8
 137 432 137 432 118 394 c 1,9,-1
 54 413 l 1,10,11
 79 470 79 470 132 508 c 128,-1,12
 185 546 185 546 269 546 c 0,13,14
 382 546 382 546 446.5 466.5 c 128,-1,15
 511 387 511 387 511 260 c 0,16,17
 511 135 511 135 444.5 58.5 c 128,-1,18
 378 -18 378 -18 273 -18 c 0,19,20
 167 -18 167 -18 104 56.5 c 128,-1,21
 41 131 41 131 41 249 c 0,0,1
118 231 m 1,22,23
 118 153 118 153 159.5 99.5 c 128,-1,24
 201 46 201 46 273 46 c 0,25,26
 342 46 342 46 386 99.5 c 128,-1,27
 430 153 430 153 435 231 c 1,28,-1
 118 231 l 1,22,23
EndSplineSet
EndChar

StartChar: uni01E4
Encoding: 484 484 422
Width: 721
GlyphClass: 2
Flags: W
LayerCount: 2
Fore
SplineSet
51 367 m 0,0,1
 51 536 51 536 135.5 644.5 c 128,-1,2
 220 753 220 753 372 753 c 0,3,4
 464 753 464 753 526 705 c 128,-1,5
 588 657 588 657 617 597 c 1,6,-1
 550 573 l 1,7,8
 534 597 534 597 522.5 611 c 128,-1,9
 511 625 511 625 489 645 c 128,-1,10
 467 665 467 665 437.5 675.5 c 128,-1,11
 408 686 408 686 372 686 c 0,12,13
 259 686 259 686 195 598.5 c 128,-1,14
 131 511 131 511 131 367 c 0,15,16
 131 221 131 221 195 135.5 c 128,-1,17
 259 50 259 50 367 50 c 0,18,19
 436 50 436 50 484.5 85.5 c 128,-1,20
 533 121 533 121 553 182 c 1,21,-1
 351 182 l 1,22,-1
 351 236 l 1,23,-1
 565 236 l 1,24,25
 568 259 568 259 568 278 c 2,26,-1
 568 330 l 1,27,-1
 359 330 l 1,28,-1
 359 396 l 1,29,-1
 645 396 l 1,30,-1
 645 236 l 1,31,-1
 713 236 l 1,32,-1
 713 182 l 1,33,-1
 645 182 l 1,34,-1
 645 0 l 1,35,-1
 587 0 l 1,36,-1
 581 108 l 1,37,38
 555 52 555 52 501.5 17 c 128,-1,39
 448 -18 448 -18 367 -18 c 0,40,41
 225 -18 225 -18 138 85.5 c 128,-1,42
 51 189 51 189 51 367 c 0,0,1
EndSplineSet
EndChar

StartChar: uni01E5
Encoding: 485 485 423
Width: 577
GlyphClass: 2
Flags: W
LayerCount: 2
Fore
SplineSet
43 277 m 0,0,1
 43 394 43 394 103.5 470 c 128,-1,2
 164 546 164 546 261 546 c 0,3,4
 322 546 322 546 361 514 c 128,-1,5
 400 482 400 482 416 442 c 1,6,-1
 416 528 l 1,7,-1
 491 528 l 1,8,-1
 491 72 l 2,9,10
 491 6 491 6 484 -35 c 1,11,-1
 559 -35 l 1,12,-1
 559 -85 l 1,13,-1
 473 -85 l 1,14,15
 450 -159 450 -159 401 -197 c 128,-1,16
 352 -235 352 -235 267 -235 c 0,17,18
 141 -235 141 -235 70 -138 c 1,19,-1
 123 -104 l 1,20,21
 181 -173 181 -173 269 -173 c 0,22,23
 359 -173 359 -173 394 -85 c 1,24,-1
 205 -85 l 1,25,-1
 205 -35 l 1,26,-1
 409 -35 l 1,27,28
 416 -1 416 -1 416 56 c 2,29,-1
 416 126 l 1,30,31
 396 81 396 81 356 53 c 128,-1,32
 316 25 316 25 260 25 c 0,33,34
 164 25 164 25 103.5 93 c 128,-1,35
 43 161 43 161 43 277 c 0,0,1
120 277 m 0,36,37
 120 187 120 187 162 137 c 128,-1,38
 204 87 204 87 266 87 c 0,39,40
 332 87 332 87 373.5 140.5 c 128,-1,41
 415 194 415 194 415 287 c 0,42,43
 415 375 415 375 374 428.5 c 128,-1,44
 333 482 333 482 270 482 c 0,45,46
 202 482 202 482 161 423.5 c 128,-1,47
 120 365 120 365 120 277 c 0,36,37
EndSplineSet
EndChar

StartChar: uni01EF
Encoding: 495 495 433
Width: 549
GlyphClass: 2
Flags: W
LayerCount: 2
Fore
SplineSet
74 788 m 1,0,-1
 151 788 l 1,1,-1
 263 672 l 1,2,-1
 376 788 l 1,3,-1
 453 788 l 1,4,-1
 296 629 l 1,5,-1
 229 629 l 1,6,-1
 74 788 l 1,0,-1
41 -84 m 1,7,-1
 107 -65 l 1,8,9
 157 -171 157 -171 262 -171 c 0,10,11
 337 -171 337 -171 380 -121 c 128,-1,12
 423 -71 423 -71 423 9 c 0,13,14
 423 84 423 84 371.5 130.5 c 128,-1,15
 320 177 320 177 226 177 c 2,16,-1
 142 177 l 1,17,-1
 142 229 l 1,18,-1
 363 464 l 1,19,-1
 70 464 l 1,20,-1
 70 528 l 1,21,-1
 472 528 l 1,22,-1
 472 480 l 1,23,-1
 236 234 l 1,24,-1
 284 232 l 1,25,26
 378 220 378 220 439 160 c 128,-1,27
 500 100 500 100 500 9 c 0,28,29
 500 -100 500 -100 435.5 -167.5 c 128,-1,30
 371 -235 371 -235 264 -235 c 0,31,32
 182 -235 182 -235 125 -193.5 c 128,-1,33
 68 -152 68 -152 41 -84 c 1,7,-1
EndSplineSet
EndChar

StartChar: uni01F6
Encoding: 502 502 440
Width: 1019
GlyphClass: 2
Flags: W
LayerCount: 2
Fore
SplineSet
102 0 m 1,0,-1
 102 735 l 1,1,-1
 181 735 l 1,2,-1
 181 411 l 1,3,-1
 526 411 l 1,4,-1
 526 735 l 1,5,-1
 605 735 l 1,6,-1
 605 191 l 2,7,8
 605 117 605 117 643 81.5 c 128,-1,9
 681 46 681 46 740 46 c 0,10,11
 795 46 795 46 831.5 83.5 c 128,-1,12
 868 121 868 121 868 184 c 2,13,-1
 868 528 l 1,14,-1
 946 528 l 1,15,-1
 946 176 l 2,16,17
 946 82 946 82 886.5 32 c 128,-1,18
 827 -18 827 -18 740 -18 c 0,19,20
 649 -18 649 -18 587.5 29 c 128,-1,21
 526 76 526 76 526 176 c 2,22,-1
 526 345 l 1,23,-1
 181 345 l 1,24,-1
 181 0 l 1,25,-1
 102 0 l 1,0,-1
EndSplineSet
EndChar

StartChar: uni01F7
Encoding: 503 503 441
Width: 646
GlyphClass: 2
Flags: W
LayerCount: 2
Fore
SplineSet
102 -221 m 1,0,-1
 102 735 l 1,1,-1
 181 735 l 1,2,-1
 181 655 l 1,3,4
 279 753 279 753 386 753 c 0,5,6
 490 753 490 753 544.5 684 c 128,-1,7
 599 615 599 615 599 495 c 0,8,9
 599 419 599 419 570 349 c 128,-1,10
 541 279 541 279 498.5 228 c 128,-1,11
 456 177 456 177 396.5 130.5 c 128,-1,12
 337 84 337 84 286.5 55.5 c 128,-1,13
 236 27 236 27 181 2 c 1,14,-1
 181 -221 l 1,15,-1
 102 -221 l 1,0,-1
181 76 m 1,16,17
 224 97 224 97 263.5 121.5 c 128,-1,18
 303 146 303 146 351.5 186 c 128,-1,19
 400 226 400 226 435.5 269 c 128,-1,20
 471 312 471 312 495 370.5 c 128,-1,21
 519 429 519 429 519 491 c 0,22,23
 519 580 519 580 481 633.5 c 128,-1,24
 443 687 443 687 369 687 c 0,25,26
 319 687 319 687 265.5 652.5 c 128,-1,27
 212 618 212 618 181 574 c 1,28,-1
 181 76 l 1,16,17
EndSplineSet
EndChar

StartChar: Aringacute
Encoding: 506 506 444
Width: 638
GlyphClass: 2
Flags: W
LayerCount: 2
Fore
SplineSet
-4 0 m 1,0,-1
 271 735 l 1,1,-1
 367 735 l 1,2,-1
 642 0 l 1,3,-1
 555 0 l 1,4,-1
 481 212 l 1,5,-1
 157 212 l 1,6,-1
 82 0 l 1,7,-1
 -4 0 l 1,0,-1
183 876 m 0,8,9
 183 927 183 927 221 964 c 0,10,11
 248 990 248 990 286 998 c 1,12,-1
 360 1116 l 1,13,-1
 459 1116 l 1,14,-1
 356 996 l 1,15,16
 389 988 389 988 413 964 c 0,17,18
 451 927 451 927 451 876 c 0,19,20
 451 824 451 824 413 787.5 c 128,-1,21
 375 751 375 751 317 751 c 0,22,23
 261 751 261 751 222 787 c 128,-1,24
 183 823 183 823 183 876 c 0,8,9
181 275 m 1,25,-1
 457 275 l 1,26,-1
 371 522 l 2,27,28
 363 545 363 545 346 594.5 c 128,-1,29
 329 644 329 644 322 663 c 1,30,-1
 316 663 l 1,31,32
 275 543 275 543 268 522 c 2,33,-1
 181 275 l 1,25,-1
237 876 m 256,34,35
 237 844 237 844 260 821.5 c 128,-1,36
 283 799 283 799 317 799 c 256,37,38
 351 799 351 799 373 821 c 128,-1,39
 395 843 395 843 395 876 c 256,40,41
 395 909 395 909 373.5 931 c 128,-1,42
 352 953 352 953 317 953 c 256,43,44
 282 953 282 953 259.5 930.5 c 128,-1,45
 237 908 237 908 237 876 c 256,34,35
EndSplineSet
EndChar

StartChar: aringacute
Encoding: 507 507 445
Width: 552
GlyphClass: 2
Flags: W
LayerCount: 2
Fore
SplineSet
41 130 m 0,0,1
 41 277 41 277 269 312 c 0,2,3
 371 329 371 329 404 340 c 1,4,-1
 404 370 l 2,5,6
 404 419 404 419 369 451.5 c 128,-1,7
 334 484 334 484 269 484 c 0,8,9
 222 484 222 484 178 462 c 128,-1,10
 134 440 134 440 104 402 c 1,11,-1
 55 444 l 1,12,13
 94 489 94 489 149.5 517.5 c 128,-1,14
 205 546 205 546 267 546 c 0,15,16
 479 546 479 546 479 339 c 2,17,-1
 479 0 l 1,18,-1
 406 0 l 1,19,-1
 406 86 l 1,20,21
 391 44 391 44 341.5 13 c 128,-1,22
 292 -18 292 -18 226 -18 c 0,23,24
 138 -18 138 -18 89.5 23.5 c 128,-1,25
 41 65 41 65 41 130 c 0,0,1
133 726 m 0,26,27
 133 777 133 777 172 814 c 0,28,29
 199 840 199 840 237 848 c 1,30,-1
 311 966 l 1,31,-1
 410 966 l 1,32,-1
 306 846 l 1,33,34
 339 838 339 838 364 814 c 0,35,36
 402 777 402 777 402 726 c 0,37,38
 402 674 402 674 364 637.5 c 128,-1,39
 326 601 326 601 268 601 c 0,40,41
 212 601 212 601 172.5 637 c 128,-1,42
 133 673 133 673 133 726 c 0,26,27
118 135 m 0,43,44
 118 98 118 98 149.5 72 c 128,-1,45
 181 46 181 46 236 46 c 0,46,47
 305 46 305 46 354.5 91 c 128,-1,48
 404 136 404 136 404 206 c 2,49,-1
 404 280 l 1,50,51
 361 269 361 269 267 254 c 0,52,53
 190 240 190 240 154 212 c 128,-1,54
 118 184 118 184 118 135 c 0,43,44
188 726 m 256,55,56
 188 694 188 694 211 671.5 c 128,-1,57
 234 649 234 649 268 649 c 256,58,59
 302 649 302 649 324 671 c 128,-1,60
 346 693 346 693 346 726 c 256,61,62
 346 759 346 759 324.5 781 c 128,-1,63
 303 803 303 803 268 803 c 256,64,65
 233 803 233 803 210.5 780.5 c 128,-1,66
 188 758 188 758 188 726 c 256,55,56
EndSplineSet
EndChar

StartChar: uni021C
Encoding: 540 540 478
Width: 574
GlyphClass: 2
Flags: W
LayerCount: 2
Fore
SplineSet
48 -141 m 1,0,1
 126 -156 126 -156 187 -156 c 0,2,3
 301 -156 301 -156 372.5 -95.5 c 128,-1,4
 444 -35 444 -35 444 69 c 0,5,6
 444 127 444 127 426 169.5 c 128,-1,7
 408 212 408 212 378.5 234 c 128,-1,8
 349 256 349 256 317.5 266 c 128,-1,9
 286 276 286 276 251 276 c 0,10,11
 208 276 208 276 153 254 c 1,12,-1
 153 323 l 1,13,-1
 247 346 l 2,14,15
 332 368 332 368 381 419 c 128,-1,16
 430 470 430 470 430 539 c 0,17,18
 430 607 430 607 387.5 646 c 128,-1,19
 345 685 345 685 268 685 c 0,20,21
 166 685 166 685 114 585 c 1,22,-1
 50 613 l 1,23,24
 79 675 79 675 134.5 714 c 128,-1,25
 190 753 190 753 267 753 c 0,26,27
 388 753 388 753 449.5 697 c 128,-1,28
 511 641 511 641 511 547 c 0,29,30
 511 461 511 461 460 401 c 128,-1,31
 409 341 409 341 345 318 c 1,32,-1
 345 317 l 1,33,34
 417 300 417 300 471 239 c 128,-1,35
 525 178 525 178 525 69 c 0,36,37
 525 -64 525 -64 432.5 -144.5 c 128,-1,38
 340 -225 340 -225 188 -225 c 0,39,40
 120 -225 120 -225 48 -214 c 1,41,-1
 48 -141 l 1,0,1
EndSplineSet
EndChar

StartChar: uni021D
Encoding: 541 541 479
Width: 450
GlyphClass: 2
Flags: W
LayerCount: 2
Fore
SplineSet
45 -160 m 1,0,1
 97 -171 97 -171 148 -171 c 0,2,3
 228 -171 228 -171 276 -125.5 c 128,-1,4
 324 -80 324 -80 324 2 c 0,5,6
 324 75 324 75 284.5 116 c 128,-1,7
 245 157 245 157 191 157 c 0,8,9
 161 157 161 157 123 145 c 1,10,-1
 123 207 l 1,11,-1
 188 223 l 2,12,13
 248 237 248 237 282 278.5 c 128,-1,14
 316 320 316 320 316 371 c 0,15,16
 316 419 316 419 290 450.5 c 128,-1,17
 264 482 264 482 210 482 c 0,18,19
 141 482 141 482 106 410 c 1,20,-1
 47 438 l 1,21,22
 66 486 66 486 110.5 516 c 128,-1,23
 155 546 155 546 214 546 c 0,24,25
 300 546 300 546 345.5 496.5 c 128,-1,26
 391 447 391 447 391 381 c 0,27,28
 391 313 391 313 357 266 c 128,-1,29
 323 219 323 219 271 196 c 1,30,31
 322 182 322 182 361 132.5 c 128,-1,32
 400 83 400 83 400 4 c 0,33,34
 400 -109 400 -109 332.5 -172 c 128,-1,35
 265 -235 265 -235 149 -235 c 0,36,37
 100 -235 100 -235 45 -227 c 1,38,-1
 45 -160 l 1,0,1
EndSplineSet
EndChar

StartChar: uni0220
Encoding: 544 544 482
Width: 717
GlyphClass: 2
Flags: W
LayerCount: 2
Fore
SplineSet
102 0 m 1,0,-1
 102 735 l 1,1,-1
 178 735 l 1,2,-1
 178 643 l 1,3,-1
 179 643 l 1,4,5
 196 666 196 666 219.5 687.5 c 128,-1,6
 243 709 243 709 292 731 c 128,-1,7
 341 753 341 753 397 753 c 0,8,9
 617 753 617 753 617 499 c 2,10,-1
 617 -231 l 1,11,-1
 538 -231 l 1,12,-1
 538 490 l 2,13,14
 538 590 538 590 500.5 638 c 128,-1,15
 463 686 463 686 380 686 c 0,16,17
 308 686 308 686 244.5 624.5 c 128,-1,18
 181 563 181 563 181 494 c 2,19,-1
 181 0 l 1,20,-1
 102 0 l 1,0,-1
EndSplineSet
EndChar

StartChar: uni0221
Encoding: 545 545 483
Width: 758
GlyphClass: 2
Flags: W
LayerCount: 2
Fore
SplineSet
515 -109 m 1,0,1
 524 -136 524 -136 550.5 -154 c 128,-1,2
 577 -172 577 -172 611 -172 c 0,3,4
 641 -172 641 -172 658 -157 c 128,-1,5
 675 -142 675 -142 675 -118 c 0,6,7
 675 -91 675 -91 657 -74 c 128,-1,8
 639 -57 639 -57 610 -57 c 0,9,10
 555 -57 555 -57 515 -109 c 1,0,1
43 264 m 0,11,12
 43 394 43 394 106 470 c 128,-1,13
 169 546 169 546 265 546 c 0,14,15
 323 546 323 546 365 513 c 128,-1,16
 407 480 407 480 425 436 c 1,17,-1
 425 762 l 1,18,-1
 500 762 l 1,19,-1
 500 26 l 2,20,21
 500 -27 500 -27 503 -38 c 1,22,23
 519 -21 519 -21 549 -7 c 128,-1,24
 579 7 579 7 612 7 c 0,25,26
 679 7 679 7 715 -28.5 c 128,-1,27
 751 -64 751 -64 751 -115 c 0,28,29
 751 -168 751 -168 712.5 -201.5 c 128,-1,30
 674 -235 674 -235 612 -235 c 0,31,32
 567 -235 567 -235 533 -214 c 128,-1,33
 499 -193 499 -193 481 -166 c 1,34,35
 463 -195 463 -195 449 -230 c 1,36,-1
 387 -211 l 1,37,38
 410 -145 410 -145 439 -106 c 1,39,40
 427 -78 427 -78 427 8 c 2,41,-1
 427 95 l 1,42,43
 408 48 408 48 365.5 15 c 128,-1,44
 323 -18 323 -18 264 -18 c 0,45,46
 224 -18 224 -18 186.5 -2 c 128,-1,47
 149 14 149 14 116 46 c 128,-1,48
 83 78 83 78 63 134 c 128,-1,49
 43 190 43 190 43 264 c 0,11,12
120 264 m 0,50,51
 120 165 120 165 163 105.5 c 128,-1,52
 206 46 206 46 275 46 c 0,53,54
 339 46 339 46 383 105 c 128,-1,55
 427 164 427 164 427 264 c 0,56,57
 427 363 427 363 382.5 422.5 c 128,-1,58
 338 482 338 482 274 482 c 0,59,60
 204 482 204 482 162 422 c 128,-1,61
 120 362 120 362 120 264 c 0,50,51
EndSplineSet
EndChar

StartChar: uni0222
Encoding: 546 546 484
Width: 681
GlyphClass: 2
Flags: W
LayerCount: 2
Fore
SplineSet
44 236 m 0,0,1
 44 314 44 314 89.5 376 c 128,-1,2
 135 438 135 438 209 467 c 1,3,4
 149 489 149 489 111.5 537 c 128,-1,5
 74 585 74 585 74 659 c 0,6,7
 74 706 74 706 83 735 c 1,8,-1
 159 735 l 1,9,10
 154 686 154 686 154 664 c 0,11,12
 154 596 154 596 205 546.5 c 128,-1,13
 256 497 256 497 341 497 c 0,14,15
 421 497 421 497 474 545 c 128,-1,16
 527 593 527 593 527 664 c 0,17,18
 527 691 527 691 521 735 c 1,19,-1
 598 735 l 1,20,21
 607 707 607 707 607 659 c 0,22,23
 607 583 607 583 567.5 535.5 c 128,-1,24
 528 488 528 488 469 467 c 1,25,26
 544 441 544 441 590.5 377.5 c 128,-1,27
 637 314 637 314 637 236 c 0,28,29
 637 134 637 134 561 58 c 128,-1,30
 485 -18 485 -18 341 -18 c 256,31,32
 197 -18 197 -18 120.5 57.5 c 128,-1,33
 44 133 44 133 44 236 c 0,0,1
126 236 m 0,34,35
 126 153 126 153 186 101 c 128,-1,36
 246 49 246 49 341 49 c 0,37,38
 433 49 433 49 494 101 c 128,-1,39
 555 153 555 153 555 236 c 0,40,41
 555 317 555 317 494 373 c 128,-1,42
 433 429 433 429 341 429 c 0,43,44
 251 429 251 429 188.5 375 c 128,-1,45
 126 321 126 321 126 236 c 0,34,35
EndSplineSet
EndChar

StartChar: uni0223
Encoding: 547 547 485
Width: 556
GlyphClass: 2
Flags: W
LayerCount: 2
Fore
SplineSet
43 241 m 0,0,1
 43 332 43 332 85.5 396.5 c 128,-1,2
 128 461 128 461 188 482 c 1,3,4
 133 500 133 500 100 548 c 128,-1,5
 67 596 67 596 67 673 c 0,6,7
 67 720 67 720 76 753 c 1,8,-1
 149 753 l 1,9,10
 143 704 143 704 143 678 c 0,11,12
 143 607 143 607 177.5 558.5 c 128,-1,13
 212 510 212 510 278 510 c 0,14,15
 340 510 340 510 376.5 557.5 c 128,-1,16
 413 605 413 605 413 678 c 0,17,18
 413 703 413 703 406 753 c 1,19,-1
 480 753 l 1,20,21
 489 723 489 723 489 673 c 0,22,23
 489 599 489 599 455.5 549 c 128,-1,24
 422 499 422 499 367 482 c 1,25,26
 429 463 429 463 471 397.5 c 128,-1,27
 513 332 513 332 513 241 c 0,28,29
 513 134 513 134 453 58 c 128,-1,30
 393 -18 393 -18 278 -18 c 0,31,32
 164 -18 164 -18 103.5 57 c 128,-1,33
 43 132 43 132 43 241 c 0,0,1
120 241 m 0,34,35
 120 156 120 156 163 101.5 c 128,-1,36
 206 47 206 47 278 47 c 0,37,38
 347 47 347 47 392 100 c 128,-1,39
 437 153 437 153 437 241 c 0,40,41
 437 328 437 328 391 387 c 128,-1,42
 345 446 345 446 278 446 c 0,43,44
 213 446 213 446 166.5 388.5 c 128,-1,45
 120 331 120 331 120 241 c 0,34,35
EndSplineSet
EndChar

StartChar: uni0224
Encoding: 548 548 486
Width: 609
GlyphClass: 2
Flags: W
LayerCount: 2
Fore
SplineSet
45 0 m 1,0,-1
 45 58 l 1,1,-1
 460 668 l 1,2,-1
 78 668 l 1,3,-1
 78 735 l 1,4,-1
 555 735 l 1,5,-1
 555 676 l 1,6,-1
 140 67 l 1,7,-1
 452 67 l 2,8,9
 536 67 536 67 575 25.5 c 128,-1,10
 614 -16 614 -16 614 -105 c 0,11,12
 614 -167 614 -167 589 -231 c 1,13,-1
 517 -231 l 1,14,15
 544 -166 544 -166 544 -114 c 0,16,17
 544 -60 544 -60 519 -30 c 128,-1,18
 494 0 494 0 430 0 c 2,19,-1
 45 0 l 1,0,-1
EndSplineSet
EndChar

StartChar: uni0225
Encoding: 549 549 487
Width: 477
GlyphClass: 2
Flags: W
LayerCount: 2
Fore
SplineSet
31 0 m 1,0,-1
 31 51 l 1,1,-1
 340 468 l 1,2,-1
 58 468 l 1,3,-1
 58 532 l 1,4,-1
 437 532 l 1,5,-1
 437 484 l 1,6,-1
 128 64 l 1,7,-1
 372 64 l 2,8,9
 446 64 446 64 482.5 23.5 c 128,-1,10
 519 -17 519 -17 519 -102 c 0,11,12
 519 -181 519 -181 499 -231 c 1,13,-1
 432 -231 l 1,14,15
 451 -179 451 -179 451 -113 c 0,16,17
 451 -55 451 -55 428.5 -27.5 c 128,-1,18
 406 0 406 0 353 0 c 2,19,-1
 31 0 l 1,0,-1
EndSplineSet
EndChar

StartChar: uni0234
Encoding: 564 564 502
Width: 408
GlyphClass: 2
Flags: W
LayerCount: 2
Fore
SplineSet
176 -109 m 1,0,1
 184 -136 184 -136 211 -154 c 128,-1,2
 238 -172 238 -172 272 -172 c 0,3,4
 301 -172 301 -172 318.5 -157 c 128,-1,5
 336 -142 336 -142 336 -118 c 0,6,7
 336 -91 336 -91 318 -74 c 128,-1,8
 300 -57 300 -57 271 -57 c 0,9,10
 217 -57 217 -57 176 -109 c 1,0,1
47 -211 m 1,11,12
 74 -140 74 -140 99 -106 c 1,13,14
 85 -75 85 -75 85 15 c 2,15,-1
 85 762 l 1,16,-1
 161 762 l 1,17,-1
 161 28 l 2,18,19
 161 -26 161 -26 164 -38 c 1,20,21
 182 -20 182 -20 212 -6.5 c 128,-1,22
 242 7 242 7 273 7 c 0,23,24
 339 7 339 7 375 -28.5 c 128,-1,25
 411 -64 411 -64 411 -115 c 0,26,27
 411 -168 411 -168 373 -201.5 c 128,-1,28
 335 -235 335 -235 273 -235 c 0,29,30
 228 -235 228 -235 194 -214 c 128,-1,31
 160 -193 160 -193 141 -166 c 1,32,33
 121 -199 121 -199 110 -230 c 1,34,-1
 47 -211 l 1,11,12
EndSplineSet
EndChar

StartChar: uni0235
Encoding: 565 565 503
Width: 739
GlyphClass: 2
Flags: W
LayerCount: 2
Fore
SplineSet
504 -109 m 1,0,1
 513 -136 513 -136 540 -154 c 128,-1,2
 567 -172 567 -172 601 -172 c 0,3,4
 631 -172 631 -172 647.5 -156.5 c 128,-1,5
 664 -141 664 -141 664 -118 c 0,6,7
 664 -93 664 -93 647 -75 c 128,-1,8
 630 -57 630 -57 600 -57 c 0,9,10
 546 -57 546 -57 504 -109 c 1,0,1
79 0 m 1,11,-1
 79 528 l 1,12,-1
 152 528 l 1,13,-1
 152 438 l 1,14,-1
 153 438 l 1,15,16
 164 473 164 473 209 509.5 c 128,-1,17
 254 546 254 546 321 546 c 0,18,19
 394 546 394 546 442 499.5 c 128,-1,20
 490 453 490 453 490 341 c 2,21,-1
 490 29 l 2,22,23
 490 -26 490 -26 493 -38 c 1,24,25
 510 -19 510 -19 540 -6 c 128,-1,26
 570 7 570 7 602 7 c 0,27,28
 665 7 665 7 702.5 -28 c 128,-1,29
 740 -63 740 -63 740 -115 c 0,30,31
 740 -168 740 -168 701.5 -201.5 c 128,-1,32
 663 -235 663 -235 602 -235 c 0,33,34
 556 -235 556 -235 522.5 -214 c 128,-1,35
 489 -193 489 -193 470 -166 c 1,36,37
 450 -200 450 -200 439 -230 c 1,38,-1
 376 -211 l 1,39,40
 397 -149 397 -149 428 -106 c 1,41,42
 414 -76 414 -76 414 18 c 2,43,-1
 414 329 l 2,44,45
 414 482 414 482 304 482 c 0,46,47
 243 482 243 482 198.5 432.5 c 128,-1,48
 154 383 154 383 154 315 c 2,49,-1
 154 0 l 1,50,-1
 79 0 l 1,11,-1
EndSplineSet
EndChar

StartChar: uni0236
Encoding: 566 566 504
Width: 435
GlyphClass: 2
Flags: W
LayerCount: 2
Fore
SplineSet
202 -109 m 1,0,1
 211 -136 211 -136 238 -154 c 128,-1,2
 265 -172 265 -172 298 -172 c 256,3,4
 331 -172 331 -172 346.5 -156 c 128,-1,5
 362 -140 362 -140 362 -118 c 0,6,7
 362 -94 362 -94 345 -75.5 c 128,-1,8
 328 -57 328 -57 297 -57 c 0,9,10
 243 -57 243 -57 202 -109 c 1,0,1
20 464 m 1,11,-1
 20 528 l 1,12,-1
 112 528 l 1,13,-1
 112 698 l 1,14,-1
 187 698 l 1,15,-1
 187 528 l 1,16,-1
 327 528 l 1,17,-1
 327 464 l 1,18,-1
 187 464 l 1,19,-1
 187 26 l 2,20,21
 187 -26 187 -26 190 -38 c 1,22,23
 208 -19 208 -19 238 -6 c 128,-1,24
 268 7 268 7 299 7 c 0,25,26
 366 7 366 7 402 -28.5 c 128,-1,27
 438 -64 438 -64 438 -115 c 0,28,29
 438 -168 438 -168 399.5 -201.5 c 128,-1,30
 361 -235 361 -235 299 -235 c 0,31,32
 254 -235 254 -235 220 -214 c 128,-1,33
 186 -193 186 -193 168 -166 c 1,34,35
 144 -206 144 -206 136 -230 c 1,36,-1
 74 -211 l 1,37,38
 101 -135 101 -135 126 -106 c 1,39,40
 112 -75 112 -75 112 20 c 2,41,-1
 112 464 l 1,42,-1
 20 464 l 1,11,-1
EndSplineSet
EndChar

StartChar: uni0237
Encoding: 567 567 505
Width: 270
GlyphClass: 2
Flags: W
LayerCount: 2
Fore
SplineSet
-12 -167 m 1,0,-1
 11 -167 l 2,1,2
 99 -167 99 -167 99 -45 c 2,3,-1
 99 528 l 1,4,-1
 175 528 l 1,5,-1
 175 -49 l 2,6,7
 175 -138 175 -138 135.5 -184.5 c 128,-1,8
 96 -231 96 -231 24 -231 c 2,9,-1
 -12 -231 l 1,10,-1
 -12 -167 l 1,0,-1
EndSplineSet
EndChar

StartChar: uni0238
Encoding: 568 568 506
Width: 925
GlyphClass: 2
Flags: W
LayerCount: 2
Fore
SplineSet
43 264 m 0,0,1
 43 395 43 395 107 470.5 c 128,-1,2
 171 546 171 546 265 546 c 0,3,4
 323 546 323 546 365 513 c 128,-1,5
 407 480 407 480 425 436 c 1,6,-1
 425 762 l 1,7,-1
 500 762 l 1,8,-1
 500 434 l 1,9,10
 514 475 514 475 558.5 510.5 c 128,-1,11
 603 546 603 546 661 546 c 0,12,13
 760 546 760 546 821 470.5 c 128,-1,14
 882 395 882 395 882 264 c 0,15,16
 882 190 882 190 862 134 c 128,-1,17
 842 78 842 78 809 46 c 128,-1,18
 776 14 776 14 739 -2 c 128,-1,19
 702 -18 702 -18 661 -18 c 0,20,21
 603 -18 603 -18 560 15 c 128,-1,22
 517 48 517 48 499 94 c 1,23,-1
 499 0 l 1,24,-1
 427 0 l 1,25,-1
 427 95 l 1,26,27
 406 46 406 46 363.5 14 c 128,-1,28
 321 -18 321 -18 264 -18 c 0,29,30
 225 -18 225 -18 188 -2.5 c 128,-1,31
 151 13 151 13 117.5 44.5 c 128,-1,32
 84 76 84 76 63.5 132.5 c 128,-1,33
 43 189 43 189 43 264 c 0,0,1
120 264 m 256,34,35
 120 163 120 163 163 104.5 c 128,-1,36
 206 46 206 46 275 46 c 0,37,38
 341 46 341 46 384 106 c 128,-1,39
 427 166 427 166 427 259 c 2,40,-1
 427 267 l 2,41,42
 427 360 427 360 383 421 c 128,-1,43
 339 482 339 482 274 482 c 0,44,45
 206 482 206 482 163 423.5 c 128,-1,46
 120 365 120 365 120 264 c 256,34,35
499 259 m 2,47,48
 499 168 499 168 541.5 107 c 128,-1,49
 584 46 584 46 651 46 c 0,50,51
 719 46 719 46 762.5 104 c 128,-1,52
 806 162 806 162 806 264 c 0,53,54
 806 364 806 364 763 423 c 128,-1,55
 720 482 720 482 652 482 c 0,56,57
 585 482 585 482 542 420.5 c 128,-1,58
 499 359 499 359 499 267 c 2,59,-1
 499 259 l 2,47,48
EndSplineSet
EndChar

StartChar: uni0239
Encoding: 569 569 507
Width: 927
GlyphClass: 2
Flags: W
LayerCount: 2
Fore
SplineSet
43 264 m 0,0,1
 43 393 43 393 105.5 469.5 c 128,-1,2
 168 546 168 546 265 546 c 0,3,4
 375 546 375 546 427 433 c 1,5,-1
 427 528 l 1,6,-1
 500 528 l 1,7,-1
 500 433 l 1,8,9
 522 482 522 482 567 514 c 128,-1,10
 612 546 612 546 667 546 c 0,11,12
 763 546 763 546 823.5 469.5 c 128,-1,13
 884 393 884 393 884 264 c 0,14,15
 884 128 884 128 820 55 c 128,-1,16
 756 -18 756 -18 666 -18 c 0,17,18
 607 -18 607 -18 563 14.5 c 128,-1,19
 519 47 519 47 500 93 c 1,20,-1
 500 -231 l 1,21,-1
 425 -231 l 1,22,-1
 425 91 l 1,23,24
 405 45 405 45 363 13.5 c 128,-1,25
 321 -18 321 -18 265 -18 c 0,26,27
 175 -18 175 -18 109 55 c 128,-1,28
 43 128 43 128 43 264 c 0,0,1
120 264 m 0,29,30
 120 163 120 163 163 104.5 c 128,-1,31
 206 46 206 46 274 46 c 0,32,33
 341 46 341 46 383.5 106 c 128,-1,34
 426 166 426 166 426 264 c 2,35,-1
 426 271 l 2,36,37
 426 363 426 363 383.5 422.5 c 128,-1,38
 341 482 341 482 275 482 c 0,39,40
 201 482 201 482 160.5 420.5 c 128,-1,41
 120 359 120 359 120 264 c 0,29,30
501 264 m 2,42,43
 501 165 501 165 544.5 105.5 c 128,-1,44
 588 46 588 46 656 46 c 256,45,46
 724 46 724 46 766 104.5 c 128,-1,47
 808 163 808 163 808 264 c 0,48,49
 808 359 808 359 768 420.5 c 128,-1,50
 728 482 728 482 656 482 c 0,51,52
 593 482 593 482 547 422.5 c 128,-1,53
 501 363 501 363 501 271 c 2,54,-1
 501 264 l 2,42,43
EndSplineSet
EndChar

StartChar: uni023A
Encoding: 570 570 508
Width: 638
GlyphClass: 2
Flags: W
LayerCount: 2
Fore
SplineSet
-4 0 m 1,0,-1
 271 735 l 1,1,-1
 368 735 l 1,2,-1
 426 579 l 1,3,-1
 546 771 l 1,4,-1
 609 771 l 1,5,-1
 450 516 l 1,6,-1
 642 0 l 1,7,-1
 555 0 l 1,8,-1
 481 212 l 1,9,-1
 261 212 l 1,10,-1
 73 -89 l 1,11,-1
 8 -89 l 1,12,-1
 64 0 l 1,13,-1
 -4 0 l 1,0,-1
181 275 m 1,14,-1
 236 275 l 1,15,-1
 378 502 l 1,16,-1
 371 522 l 2,17,18
 370 523 370 523 322 663 c 1,19,-1
 317 663 l 1,20,21
 269 524 269 524 268 522 c 2,22,-1
 181 275 l 1,14,-1
300 275 m 1,23,-1
 458 275 l 1,24,-1
 401 437 l 1,25,-1
 300 275 l 1,23,-1
158 212 m 1,26,-1
 108 71 l 1,27,-1
 196 212 l 1,28,-1
 158 212 l 1,26,-1
EndSplineSet
EndChar

StartChar: uni023B
Encoding: 571 571 509
Width: 651
GlyphClass: 2
Flags: W
LayerCount: 2
Fore
SplineSet
51 367 m 0,0,1
 51 547 51 547 138.5 650 c 128,-1,2
 226 753 226 753 365 753 c 0,3,4
 426 753 426 753 475 728 c 1,5,-1
 499 794 l 1,6,-1
 559 794 l 1,7,-1
 523 698 l 1,8,9
 574 656 574 656 603 592 c 1,10,-1
 537 568 l 1,11,12
 515 605 515 605 496 626 c 1,13,-1
 282 67 l 1,14,15
 321 50 321 50 364 50 c 0,16,17
 430 50 430 50 479 87 c 128,-1,18
 528 124 528 124 552 178 c 1,19,-1
 623 155 l 1,20,21
 591 84 591 84 526 33 c 128,-1,22
 461 -18 461 -18 365 -18 c 0,23,24
 308 -18 308 -18 257 2 c 1,25,-1
 230 -70 l 1,26,-1
 171 -70 l 1,27,-1
 207 26 l 1,28,29
 134 71 134 71 92.5 158.5 c 128,-1,30
 51 246 51 246 51 367 c 0,0,1
234 95 m 1,31,-1
 449 663 l 1,32,33
 411 686 411 686 364 686 c 0,34,35
 258 686 258 686 194.5 599 c 128,-1,36
 131 512 131 512 131 367 c 0,37,38
 131 180 131 180 234 95 c 1,31,-1
EndSplineSet
EndChar

StartChar: uni023C
Encoding: 572 572 510
Width: 503
GlyphClass: 2
Flags: W
LayerCount: 2
Fore
SplineSet
43 264 m 0,0,1
 43 387 43 387 106 466.5 c 128,-1,2
 169 546 169 546 282 546 c 0,3,4
 323 546 323 546 355 530 c 1,5,-1
 380 600 l 1,6,-1
 435 600 l 1,7,-1
 400 503 l 1,8,9
 446 470 446 470 466 409 c 1,10,-1
 402 390 l 1,11,12
 388 420 388 420 377 435 c 1,13,-1
 241 51 l 1,14,15
 256 46 256 46 280 46 c 0,16,17
 328 46 328 46 362 76 c 128,-1,18
 396 106 396 106 415 145 c 1,19,-1
 480 125 l 1,20,21
 459 69 459 69 406.5 25.5 c 128,-1,22
 354 -18 354 -18 280 -18 c 0,23,24
 245 -18 245 -18 219 -11 c 1,25,-1
 200 -66 l 1,26,-1
 145 -66 l 1,27,-1
 171 8 l 1,28,29
 109 40 109 40 76 108.5 c 128,-1,30
 43 177 43 177 43 264 c 0,0,1
195 75 m 1,31,-1
 334 468 l 1,32,33
 312 482 312 482 280 482 c 0,34,35
 206 482 206 482 163 420 c 128,-1,36
 120 358 120 358 120 264 c 0,37,38
 120 199 120 199 140 149 c 128,-1,39
 160 99 160 99 195 75 c 1,31,-1
EndSplineSet
EndChar

StartChar: uni023D
Encoding: 573 573 511
Width: 538
GlyphClass: 2
Flags: W
LayerCount: 2
Fore
SplineSet
15 387 m 1,0,-1
 15 448 l 1,1,-1
 102 448 l 1,2,-1
 102 735 l 1,3,-1
 181 735 l 1,4,-1
 181 448 l 1,5,-1
 383 448 l 1,6,-1
 383 387 l 1,7,-1
 181 387 l 1,8,-1
 181 67 l 1,9,-1
 530 67 l 1,10,-1
 530 0 l 1,11,-1
 102 0 l 1,12,-1
 102 387 l 1,13,-1
 15 387 l 1,0,-1
EndSplineSet
EndChar

StartChar: uni023E
Encoding: 574 574 512
Width: 548
GlyphClass: 2
Flags: W
LayerCount: 2
Fore
SplineSet
313 668 m 1,0,-1
 313 469 l 1,1,-1
 423 668 l 1,2,-1
 313 668 l 1,0,-1
12 668 m 1,3,-1
 12 735 l 1,4,-1
 460 735 l 1,5,-1
 492 794 l 1,6,-1
 551 794 l 1,7,-1
 519 735 l 1,8,-1
 537 735 l 1,9,-1
 537 668 l 1,10,-1
 482 668 l 1,11,-1
 313 361 l 1,12,-1
 313 0 l 1,13,-1
 235 0 l 1,14,-1
 235 219 l 1,15,-1
 94 -38 l 1,16,-1
 34 -38 l 1,17,-1
 235 327 l 1,18,-1
 235 668 l 1,19,-1
 12 668 l 1,3,-1
EndSplineSet
EndChar

StartChar: uni023F
Encoding: 575 575 513
Width: 492
GlyphClass: 2
Flags: W
LayerCount: 2
Fore
SplineSet
35 104 m 1,0,-1
 92 137 l 1,1,2
 149 46 149 46 250 46 c 0,3,4
 311 46 311 46 346 68.5 c 128,-1,5
 381 91 381 91 381 131 c 0,6,7
 381 159 381 159 356.5 180.5 c 128,-1,8
 332 202 332 202 311 210 c 128,-1,9
 290 218 290 218 237 235 c 0,10,11
 224 239 224 239 217 241 c 0,12,13
 140 266 140 266 95.5 301 c 128,-1,14
 51 336 51 336 51 397 c 0,15,16
 51 466 51 466 106 506 c 128,-1,17
 161 546 161 546 249 546 c 0,18,19
 314 546 314 546 367 513 c 128,-1,20
 420 480 420 480 446 431 c 1,21,-1
 395 397 l 1,22,23
 372 435 372 435 333.5 458.5 c 128,-1,24
 295 482 295 482 250 482 c 0,25,26
 188 482 188 482 158 459 c 128,-1,27
 128 436 128 436 128 396 c 0,28,29
 128 373 128 373 140 355 c 128,-1,30
 152 337 152 337 176 323.5 c 128,-1,31
 200 310 200 310 220.5 302 c 128,-1,32
 241 294 241 294 273 286 c 0,33,34
 310 275 310 275 339 263 c 128,-1,35
 368 251 368 251 397 233 c 128,-1,36
 426 215 426 215 441.5 189 c 128,-1,37
 457 163 457 163 457 131 c 0,38,39
 457 69 457 69 402 25.5 c 128,-1,40
 347 -18 347 -18 250 -18 c 0,41,42
 183 -18 183 -18 139 7 c 1,43,44
 166 -93 166 -93 185 -125 c 0,45,46
 219 -180 219 -180 283 -180 c 0,47,48
 317 -180 317 -180 332 -177 c 1,49,-1
 332 -230 l 1,50,51
 297 -235 297 -235 281 -235 c 0,52,53
 241 -235 241 -235 210 -220.5 c 128,-1,54
 179 -206 179 -206 160 -187 c 128,-1,55
 141 -168 141 -168 124.5 -132 c 128,-1,56
 108 -96 108 -96 100.5 -71 c 128,-1,57
 93 -46 93 -46 81 -2 c 0,58,59
 65 71 65 71 35 104 c 1,0,-1
EndSplineSet
EndChar

StartChar: uni0240
Encoding: 576 576 514
Width: 477
GlyphClass: 2
Flags: W
LayerCount: 2
Fore
SplineSet
31 0 m 1,0,-1
 31 51 l 1,1,-1
 340 464 l 1,2,-1
 58 464 l 1,3,-1
 58 528 l 1,4,-1
 437 528 l 1,5,-1
 437 480 l 1,6,-1
 118 51 l 1,7,8
 156 46 156 46 189.5 21.5 c 128,-1,9
 223 -3 223 -3 246.5 -34.5 c 128,-1,10
 270 -66 270 -66 292 -97.5 c 128,-1,11
 314 -129 314 -129 341 -150 c 128,-1,12
 368 -171 368 -171 398 -171 c 0,13,14
 426 -171 426 -171 447 -167 c 1,15,-1
 447 -229 l 1,16,17
 424 -235 424 -235 394 -235 c 0,18,19
 352 -235 352 -235 317.5 -211 c 128,-1,20
 283 -187 283 -187 257.5 -154 c 128,-1,21
 232 -121 232 -121 207 -86.5 c 128,-1,22
 182 -52 182 -52 149.5 -27 c 128,-1,23
 117 -2 117 -2 79 0 c 2,24,-1
 31 0 l 1,0,-1
EndSplineSet
EndChar

StartChar: uni0241
Encoding: 577 577 515
Width: 561
GlyphClass: 2
Flags: W
LayerCount: 2
Fore
SplineSet
63 593 m 1,0,1
 87 667 87 667 146.5 710 c 128,-1,2
 206 753 206 753 283 753 c 0,3,4
 376 753 376 753 432.5 698.5 c 128,-1,5
 489 644 489 644 489 553 c 0,6,7
 489 508 489 508 470.5 471.5 c 128,-1,8
 452 435 452 435 426 409.5 c 128,-1,9
 400 384 400 384 374 359 c 128,-1,10
 348 334 348 334 330 299.5 c 128,-1,11
 312 265 312 265 312 223 c 2,12,-1
 312 0 l 1,13,-1
 234 0 l 1,14,-1
 234 229 l 2,15,16
 234 276 234 276 252 314 c 128,-1,17
 270 352 270 352 296 378 c 128,-1,18
 322 404 322 404 347.5 428.5 c 128,-1,19
 373 453 373 453 391 485 c 128,-1,20
 409 517 409 517 409 555 c 0,21,22
 409 614 409 614 375 650.5 c 128,-1,23
 341 687 341 687 284 687 c 0,24,25
 232 687 232 687 192.5 655 c 128,-1,26
 153 623 153 623 132 570 c 1,27,-1
 63 593 l 1,0,1
EndSplineSet
EndChar

StartChar: uni0250
Encoding: 592 592 516
Width: 552
GlyphClass: 2
Flags: W
LayerCount: 2
Fore
SplineSet
149 248 m 1,0,1
 185 258 185 258 287 274 c 0,2,3
 363 288 363 288 399 316 c 128,-1,4
 435 344 435 344 435 393 c 0,5,6
 435 431 435 431 403.5 456.5 c 128,-1,7
 372 482 372 482 317 482 c 0,8,9
 247 482 247 482 198 437 c 128,-1,10
 149 392 149 392 149 322 c 2,11,-1
 149 248 l 1,0,1
74 190 m 2,12,-1
 74 528 l 1,13,-1
 147 528 l 1,14,-1
 147 442 l 1,15,16
 163 484 163 484 211.5 515 c 128,-1,17
 260 546 260 546 327 546 c 0,18,19
 411 546 411 546 461 505.5 c 128,-1,20
 511 465 511 465 511 398 c 0,21,22
 511 325 511 325 456 280.5 c 128,-1,23
 401 236 401 236 285 217 c 0,24,25
 198 203 198 203 148 188 c 0,26,27
 148 184 148 184 148.5 172.5 c 128,-1,28
 149 161 149 161 149 157 c 0,29,30
 149 108 149 108 185.5 76 c 128,-1,31
 222 44 222 44 285 44 c 0,32,33
 330 44 330 44 374 65.5 c 128,-1,34
 418 87 418 87 449 126 c 1,35,-1
 499 84 l 1,36,37
 459 37 459 37 402.5 9.5 c 128,-1,38
 346 -18 346 -18 286 -18 c 0,39,40
 74 -18 74 -18 74 190 c 2,12,-1
EndSplineSet
EndChar

StartChar: uni0251
Encoding: 593 593 517
Width: 579
GlyphClass: 2
Flags: W
LayerCount: 2
Fore
SplineSet
120 264 m 0,0,1
 120 163 120 163 164 104.5 c 128,-1,2
 208 46 208 46 275 46 c 0,3,4
 335 46 335 46 381 102.5 c 128,-1,5
 427 159 427 159 427 264 c 0,6,7
 427 363 427 363 382.5 422.5 c 128,-1,8
 338 482 338 482 274 482 c 0,9,10
 205 482 205 482 162.5 423 c 128,-1,11
 120 364 120 364 120 264 c 0,0,1
43 264 m 0,12,13
 43 393 43 393 106 469.5 c 128,-1,14
 169 546 169 546 265 546 c 0,15,16
 323 546 323 546 367 510.5 c 128,-1,17
 411 475 411 475 425 436 c 1,18,-1
 425 528 l 1,19,-1
 500 528 l 1,20,-1
 500 0 l 1,21,-1
 427 0 l 1,22,-1
 427 95 l 1,23,24
 408 49 408 49 364.5 15.5 c 128,-1,25
 321 -18 321 -18 265 -18 c 0,26,27
 177 -18 177 -18 110 53 c 128,-1,28
 43 124 43 124 43 264 c 0,12,13
EndSplineSet
EndChar

StartChar: uni0252
Encoding: 594 594 518
Width: 579
GlyphClass: 2
Flags: W
LayerCount: 2
Fore
SplineSet
79 0 m 1,0,-1
 79 528 l 1,1,-1
 154 528 l 1,2,-1
 154 434 l 1,3,4
 168 475 168 475 211.5 510.5 c 128,-1,5
 255 546 255 546 315 546 c 0,6,7
 413 546 413 546 474.5 470 c 128,-1,8
 536 394 536 394 536 264 c 0,9,10
 536 190 536 190 516 134 c 128,-1,11
 496 78 496 78 463 46 c 128,-1,12
 430 14 430 14 392.5 -2 c 128,-1,13
 355 -18 355 -18 315 -18 c 0,14,15
 257 -18 257 -18 214 15 c 128,-1,16
 171 48 171 48 153 94 c 1,17,-1
 153 0 l 1,18,-1
 79 0 l 1,0,-1
152 264 m 0,19,20
 152 164 152 164 196 105 c 128,-1,21
 240 46 240 46 304 46 c 0,22,23
 373 46 373 46 416 104.5 c 128,-1,24
 459 163 459 163 459 264 c 0,25,26
 459 364 459 364 416.5 423 c 128,-1,27
 374 482 374 482 305 482 c 0,28,29
 241 482 241 482 196.5 422.5 c 128,-1,30
 152 363 152 363 152 264 c 0,19,20
EndSplineSet
EndChar

StartChar: uni0253
Encoding: 595 595 519
Width: 582
GlyphClass: 2
Flags: W
LayerCount: 2
Fore
SplineSet
155 264 m 0,0,1
 155 167 155 167 198 106.5 c 128,-1,2
 241 46 241 46 307 46 c 0,3,4
 377 46 377 46 419.5 105 c 128,-1,5
 462 164 462 164 462 264 c 0,6,7
 462 361 462 361 420.5 421.5 c 128,-1,8
 379 482 379 482 308 482 c 0,9,10
 241 482 241 482 198 421 c 128,-1,11
 155 360 155 360 155 264 c 0,0,1
81 0 m 1,12,-1
 81 543 l 2,13,14
 81 650 81 650 130.5 709 c 128,-1,15
 180 768 180 768 270 768 c 0,16,17
 323 768 323 768 386 755 c 1,18,-1
 383 690 l 1,19,20
 314 703 314 703 282 703 c 0,21,22
 218 703 218 703 187.5 657 c 128,-1,23
 157 611 157 611 157 530 c 2,24,-1
 157 434 l 1,25,26
 176 481 176 481 218 513.5 c 128,-1,27
 260 546 260 546 318 546 c 0,28,29
 419 546 419 546 479 468.5 c 128,-1,30
 539 391 539 391 539 264 c 0,31,32
 539 131 539 131 475 56.5 c 128,-1,33
 411 -18 411 -18 318 -18 c 0,34,35
 256 -18 256 -18 215.5 16.5 c 128,-1,36
 175 51 175 51 156 94 c 1,37,-1
 156 0 l 1,38,-1
 81 0 l 1,12,-1
EndSplineSet
EndChar

StartChar: uni0254
Encoding: 596 596 520
Width: 503
GlyphClass: 2
Flags: W
LayerCount: 2
Fore
SplineSet
24 125 m 1,0,-1
 88 145 l 1,1,2
 104 106 104 106 142 76 c 128,-1,3
 180 46 180 46 225 46 c 0,4,5
 293 46 293 46 338.5 105 c 128,-1,6
 384 164 384 164 384 264 c 0,7,8
 384 358 384 358 340.5 420 c 128,-1,9
 297 482 297 482 225 482 c 0,10,11
 182 482 182 482 149 455.5 c 128,-1,12
 116 429 116 429 101 390 c 1,13,-1
 37 409 l 1,14,15
 54 465 54 465 104.5 505.5 c 128,-1,16
 155 546 155 546 226 546 c 0,17,18
 335 546 335 546 397.5 468 c 128,-1,19
 460 390 460 390 460 264 c 0,20,21
 460 135 460 135 396 58.5 c 128,-1,22
 332 -18 332 -18 226 -18 c 0,23,24
 153 -18 153 -18 98.5 24.5 c 128,-1,25
 44 67 44 67 24 125 c 1,0,-1
EndSplineSet
EndChar

StartChar: uni0255
Encoding: 597 597 521
Width: 504
GlyphClass: 2
Flags: W
LayerCount: 2
Fore
SplineSet
238 56 m 1,0,1
 275 46 275 46 308 46 c 0,2,3
 349 46 349 46 374 62.5 c 128,-1,4
 399 79 399 79 399 101 c 0,5,6
 399 139 399 139 347 139 c 0,7,8
 311 139 311 139 281.5 114 c 128,-1,9
 252 89 252 89 238 56 c 1,0,1
43 268 m 0,10,11
 43 386 43 386 105.5 466 c 128,-1,12
 168 546 168 546 280 546 c 0,13,14
 351 546 351 546 400 504.5 c 128,-1,15
 449 463 449 463 466 409 c 1,16,-1
 402 390 l 1,17,18
 389 426 389 426 356 454 c 128,-1,19
 323 482 323 482 280 482 c 0,20,21
 206 482 206 482 163 420.5 c 128,-1,22
 120 359 120 359 120 264 c 0,23,24
 120 150 120 150 181 91 c 1,25,26
 240 203 240 203 349 203 c 0,27,28
 409 203 409 203 442 172.5 c 128,-1,29
 475 142 475 142 475 101 c 0,30,31
 475 50 475 50 429.5 16 c 128,-1,32
 384 -18 384 -18 305 -18 c 0,33,34
 248 -18 248 -18 212 -6 c 1,35,36
 196 -49 196 -49 193 -65 c 1,37,-1
 127 -49 l 1,38,39
 131 -22 131 -22 151 25 c 1,40,41
 43 100 43 100 43 268 c 0,10,11
EndSplineSet
EndChar

StartChar: uni0256
Encoding: 598 598 522
Width: 585
GlyphClass: 2
Flags: W
LayerCount: 2
Fore
SplineSet
43 264 m 0,0,1
 43 395 43 395 107 470.5 c 128,-1,2
 171 546 171 546 265 546 c 0,3,4
 323 546 323 546 365 513 c 128,-1,5
 407 480 407 480 425 436 c 1,6,-1
 425 762 l 1,7,-1
 500 762 l 1,8,-1
 500 -35 l 2,9,10
 500 -107 500 -107 522.5 -138 c 128,-1,11
 545 -169 545 -169 589 -169 c 0,12,13
 623 -169 623 -169 655 -163 c 1,14,-1
 655 -228 l 1,15,16
 604 -235 604 -235 577 -235 c 0,17,18
 507 -235 507 -235 467 -191 c 128,-1,19
 427 -147 427 -147 427 -40 c 2,20,-1
 427 95 l 1,21,22
 406 46 406 46 363.5 14 c 128,-1,23
 321 -18 321 -18 264 -18 c 0,24,25
 224 -18 224 -18 186.5 -2 c 128,-1,26
 149 14 149 14 116 46 c 128,-1,27
 83 78 83 78 63 134 c 128,-1,28
 43 190 43 190 43 264 c 0,0,1
120 264 m 0,29,30
 120 166 120 166 163 106 c 128,-1,31
 206 46 206 46 275 46 c 0,32,33
 339 46 339 46 383 105.5 c 128,-1,34
 427 165 427 165 427 264 c 256,35,36
 427 363 427 363 382.5 422.5 c 128,-1,37
 338 482 338 482 274 482 c 0,38,39
 207 482 207 482 163.5 423 c 128,-1,40
 120 364 120 364 120 264 c 0,29,30
EndSplineSet
EndChar

StartChar: uni0257
Encoding: 599 599 523
Width: 585
GlyphClass: 2
Flags: W
LayerCount: 2
Fore
SplineSet
43 265 m 0,0,1
 43 396 43 396 106.5 471 c 128,-1,2
 170 546 170 546 265 546 c 0,3,4
 322 546 322 546 365 512 c 128,-1,5
 408 478 408 478 425 434 c 1,6,-1
 425 617 l 2,7,8
 425 691 425 691 471 729.5 c 128,-1,9
 517 768 517 768 591 768 c 0,10,11
 618 768 618 768 663 764 c 1,12,-1
 663 698 l 1,13,14
 640 701 640 701 603 701 c 0,15,16
 556 701 556 701 528 675.5 c 128,-1,17
 500 650 500 650 500 601 c 2,18,-1
 500 0 l 1,19,-1
 427 0 l 1,20,-1
 427 97 l 1,21,22
 409 49 409 49 365.5 15.5 c 128,-1,23
 322 -18 322 -18 264 -18 c 0,24,25
 224 -18 224 -18 186 -1.5 c 128,-1,26
 148 15 148 15 115 47 c 128,-1,27
 82 79 82 79 62.5 135.5 c 128,-1,28
 43 192 43 192 43 265 c 0,0,1
120 265 m 0,29,30
 120 164 120 164 163 105 c 128,-1,31
 206 46 206 46 275 46 c 0,32,33
 338 46 338 46 382.5 104.5 c 128,-1,34
 427 163 427 163 427 265 c 0,35,36
 427 364 427 364 382.5 423 c 128,-1,37
 338 482 338 482 274 482 c 0,38,39
 205 482 205 482 162.5 423 c 128,-1,40
 120 364 120 364 120 265 c 0,29,30
EndSplineSet
EndChar

StartChar: uni0258
Encoding: 600 600 524
Width: 554
GlyphClass: 2
Flags: W
LayerCount: 2
Fore
SplineSet
42 239 m 1,0,1
 41 252 41 252 41 279 c 0,2,3
 41 398 41 398 105 472 c 128,-1,4
 169 546 169 546 273 546 c 0,5,6
 379 546 379 546 445 470 c 128,-1,7
 511 394 511 394 511 268 c 0,8,9
 511 136 511 136 443.5 59 c 128,-1,10
 376 -18 376 -18 268 -18 c 0,11,12
 186 -18 186 -18 132 19.5 c 128,-1,13
 78 57 78 57 53 114 c 1,14,-1
 118 134 l 1,15,16
 138 94 138 94 177.5 70 c 128,-1,17
 217 46 217 46 268 46 c 0,18,19
 344 46 344 46 389 102 c 128,-1,20
 434 158 434 158 435 239 c 1,21,-1
 42 239 l 1,0,1
118 297 m 1,22,-1
 435 297 l 1,23,24
 430 374 430 374 387 428 c 128,-1,25
 344 482 344 482 273 482 c 256,26,27
 202 482 202 482 160.5 428.5 c 128,-1,28
 119 375 119 375 118 297 c 1,22,-1
EndSplineSet
EndChar

StartChar: uni025A
Encoding: 602 602 526
Width: 647
GlyphClass: 2
Flags: W
LayerCount: 2
Fore
SplineSet
40 225 m 1,0,-1
 411 391 l 1,1,2
 364 482 364 482 266 482 c 0,3,4
 216 482 216 482 176.5 458 c 128,-1,5
 137 434 137 434 116 394 c 1,6,-1
 52 413 l 1,7,8
 78 473 78 473 133 509.5 c 128,-1,9
 188 546 188 546 267 546 c 0,10,11
 409 546 409 546 474 420 c 1,12,-1
 550 459 l 1,13,14
 574 391 574 391 634 391 c 0,15,16
 658 391 658 391 670 394 c 1,17,-1
 670 335 l 1,18,19
 647 329 647 329 629 329 c 0,20,21
 596 329 596 329 569.5 343.5 c 128,-1,22
 543 358 543 358 532 379 c 1,23,-1
 498 360 l 1,24,25
 509 320 509 320 509 263 c 0,26,27
 509 141 509 141 445.5 61.5 c 128,-1,28
 382 -18 382 -18 271 -18 c 0,29,30
 166 -18 166 -18 106 52 c 128,-1,31
 46 122 46 122 40 225 c 1,0,-1
119 194 m 1,32,33
 130 124 130 124 171.5 85 c 128,-1,34
 213 46 213 46 271 46 c 0,35,36
 343 46 343 46 388 104 c 128,-1,37
 433 162 433 162 433 256 c 0,38,39
 433 305 433 305 430 329 c 1,40,-1
 119 194 l 1,32,33
EndSplineSet
EndChar

StartChar: uni025B
Encoding: 603 603 527
Width: 469
GlyphClass: 2
Flags: W
LayerCount: 2
Fore
SplineSet
43 142 m 0,0,1
 43 195 43 195 75.5 230.5 c 128,-1,2
 108 266 108 266 154 280 c 1,3,-1
 154 281 l 1,4,5
 64 315 64 315 64 400 c 0,6,7
 64 464 64 464 112.5 505 c 128,-1,8
 161 546 161 546 247 546 c 0,9,10
 367 546 367 546 430 440 c 1,11,-1
 369 412 l 1,12,13
 349 443 349 443 318 462.5 c 128,-1,14
 287 482 287 482 249 482 c 0,15,16
 195 482 195 482 167.5 459 c 128,-1,17
 140 436 140 436 140 396 c 0,18,19
 140 357 140 357 171.5 331 c 128,-1,20
 203 305 203 305 270 305 c 2,21,-1
 312 305 l 1,22,-1
 312 248 l 1,23,-1
 270 248 l 2,24,25
 191 248 191 248 155.5 217 c 128,-1,26
 120 186 120 186 120 143 c 0,27,28
 120 98 120 98 157 72 c 128,-1,29
 194 46 194 46 251 46 c 0,30,31
 292 46 292 46 330 67.5 c 128,-1,32
 368 89 368 89 388 118 c 1,33,-1
 446 88 l 1,34,35
 417 40 417 40 365 11 c 128,-1,36
 313 -18 313 -18 250 -18 c 0,37,38
 158 -18 158 -18 100.5 24.5 c 128,-1,39
 43 67 43 67 43 142 c 0,0,1
EndSplineSet
EndChar

StartChar: uni025C
Encoding: 604 604 528
Width: 470
GlyphClass: 2
Flags: W
LayerCount: 2
Fore
SplineSet
24 88 m 1,0,-1
 81 118 l 1,1,2
 101 89 101 89 139 67.5 c 128,-1,3
 177 46 177 46 218 46 c 0,4,5
 275 46 275 46 312.5 72 c 128,-1,6
 350 98 350 98 350 143 c 0,7,8
 350 186 350 186 314.5 217 c 128,-1,9
 279 248 279 248 200 248 c 2,10,-1
 157 248 l 1,11,-1
 157 305 l 1,12,-1
 200 305 l 2,13,14
 267 305 267 305 298.5 331 c 128,-1,15
 330 357 330 357 330 396 c 0,16,17
 330 436 330 436 302.5 459 c 128,-1,18
 275 482 275 482 221 482 c 0,19,20
 184 482 184 482 152.5 462.5 c 128,-1,21
 121 443 121 443 101 412 c 1,22,-1
 39 440 l 1,23,24
 102 546 102 546 222 546 c 0,25,26
 308 546 308 546 357 505 c 128,-1,27
 406 464 406 464 406 400 c 0,28,29
 406 315 406 315 315 281 c 1,30,-1
 316 280 l 1,31,32
 362 266 362 266 394.5 230.5 c 128,-1,33
 427 195 427 195 427 142 c 0,34,35
 427 67 427 67 369.5 24.5 c 128,-1,36
 312 -18 312 -18 220 -18 c 0,37,38
 157 -18 157 -18 104.5 11 c 128,-1,39
 52 40 52 40 24 88 c 1,0,-1
EndSplineSet
EndChar

StartChar: uni025D
Encoding: 605 605 529
Width: 527
GlyphClass: 2
Flags: W
LayerCount: 2
Fore
SplineSet
24 88 m 1,0,-1
 81 118 l 1,1,2
 98 91 98 91 136.5 68.5 c 128,-1,3
 175 46 175 46 216 46 c 0,4,5
 279 46 279 46 314.5 73 c 128,-1,6
 350 100 350 100 350 144 c 0,7,8
 350 187 350 187 313.5 217.5 c 128,-1,9
 277 248 277 248 199 248 c 2,10,-1
 157 248 l 1,11,-1
 157 305 l 1,12,-1
 199 305 l 2,13,14
 266 305 266 305 298 331 c 128,-1,15
 330 357 330 357 330 396 c 0,16,17
 330 436 330 436 302.5 459 c 128,-1,18
 275 482 275 482 221 482 c 0,19,20
 145 482 145 482 101 412 c 1,21,-1
 39 440 l 1,22,23
 102 546 102 546 222 546 c 256,24,25
 342 546 342 546 389 467 c 1,26,-1
 461 506 l 1,27,28
 473 474 473 474 497 453 c 128,-1,29
 521 432 521 432 551 432 c 0,30,31
 573 432 573 432 585 436 c 1,32,-1
 585 375 l 1,33,34
 565 370 565 370 545 370 c 0,35,36
 510 370 510 370 482.5 387 c 128,-1,37
 455 404 455 404 444 426 c 1,38,-1
 406 406 l 1,39,40
 406 389 406 389 405 381 c 0,41,42
 401 345 401 345 374 318 c 128,-1,43
 347 291 347 291 316 281 c 1,44,-1
 316 280 l 1,45,46
 361 266 361 266 394 231 c 128,-1,47
 427 196 427 196 427 143 c 0,48,49
 427 67 427 67 370 24.5 c 128,-1,50
 313 -18 313 -18 217 -18 c 0,51,52
 154 -18 154 -18 102 12.5 c 128,-1,53
 50 43 50 43 24 88 c 1,0,-1
EndSplineSet
EndChar

StartChar: uni025E
Encoding: 606 606 530
Width: 553
GlyphClass: 2
Flags: W
LayerCount: 2
Fore
SplineSet
43 265 m 0,0,1
 43 392 43 392 107.5 469 c 128,-1,2
 172 546 172 546 289 546 c 0,3,4
 375 546 375 546 431 506 c 128,-1,5
 487 466 487 466 487 396 c 0,6,7
 487 351 487 351 463.5 319.5 c 128,-1,8
 440 288 440 288 404 274 c 1,9,-1
 404 273 l 1,10,11
 447 260 447 260 477 227 c 128,-1,12
 507 194 507 194 507 141 c 0,13,14
 507 64 507 64 448.5 23 c 128,-1,15
 390 -18 390 -18 290 -18 c 0,16,17
 180 -18 180 -18 111.5 56.5 c 128,-1,18
 43 131 43 131 43 265 c 0,0,1
120 265 m 0,19,20
 120 203 120 203 136 158.5 c 128,-1,21
 152 114 152 114 179 90.5 c 128,-1,22
 206 67 206 67 234 56.5 c 128,-1,23
 262 46 262 46 291 46 c 0,24,25
 361 46 361 46 396 71 c 128,-1,26
 431 96 431 96 431 139 c 0,27,28
 431 179 431 179 398 209 c 128,-1,29
 365 239 365 239 290 239 c 2,30,-1
 255 239 l 1,31,-1
 255 299 l 1,32,-1
 290 299 l 2,33,34
 354 299 354 299 382 326.5 c 128,-1,35
 410 354 410 354 410 391 c 0,36,37
 410 435 410 435 377.5 458.5 c 128,-1,38
 345 482 345 482 289 482 c 0,39,40
 218 482 218 482 169 427.5 c 128,-1,41
 120 373 120 373 120 265 c 0,19,20
EndSplineSet
EndChar

StartChar: uni025F
Encoding: 607 607 531
Width: 275
GlyphClass: 2
Flags: W
LayerCount: 2
Fore
SplineSet
-11 269 m 1,0,-1
 -11 331 l 1,1,-1
 102 331 l 1,2,-1
 102 528 l 1,3,-1
 178 528 l 1,4,-1
 178 331 l 1,5,-1
 281 331 l 1,6,-1
 281 269 l 1,7,-1
 178 269 l 1,8,-1
 178 -49 l 2,9,10
 178 -138 178 -138 138.5 -184.5 c 128,-1,11
 99 -231 99 -231 26 -231 c 2,12,-1
 -9 -231 l 1,13,-1
 -9 -167 l 1,14,-1
 14 -167 l 2,15,16
 102 -167 102 -167 102 -45 c 2,17,-1
 102 269 l 1,18,-1
 -11 269 l 1,0,-1
EndSplineSet
EndChar

StartChar: uni0260
Encoding: 608 608 532
Width: 572
GlyphClass: 2
Flags: W
LayerCount: 2
Fore
SplineSet
43 274 m 0,0,1
 43 395 43 395 104 470.5 c 128,-1,2
 165 546 165 546 261 546 c 0,3,4
 321 546 321 546 359.5 515 c 128,-1,5
 398 484 398 484 416 442 c 1,6,-1
 416 617 l 2,7,8
 416 689 416 689 463 728.5 c 128,-1,9
 510 768 510 768 582 768 c 0,10,11
 609 768 609 768 653 764 c 1,12,-1
 653 700 l 1,13,14
 629 703 629 703 595 703 c 0,15,16
 550 703 550 703 520.5 676.5 c 128,-1,17
 491 650 491 650 491 601 c 2,18,-1
 491 62 l 2,19,20
 491 -3 491 -3 481.5 -51.5 c 128,-1,21
 472 -100 472 -100 449 -143.5 c 128,-1,22
 426 -187 426 -187 380 -211 c 128,-1,23
 334 -235 334 -235 266 -235 c 0,24,25
 139 -235 139 -235 70 -138 c 1,26,-1
 123 -104 l 1,27,28
 143 -125 143 -125 158.5 -137 c 128,-1,29
 174 -149 174 -149 204 -161 c 128,-1,30
 234 -173 234 -173 269 -173 c 0,31,32
 345 -173 345 -173 380 -113.5 c 128,-1,33
 415 -54 415 -54 415 33 c 2,34,-1
 416 103 l 1,35,36
 396 58 396 58 357.5 30 c 128,-1,37
 319 2 319 2 263 2 c 0,38,39
 165 2 165 2 104 76.5 c 128,-1,40
 43 151 43 151 43 274 c 0,0,1
120 274 m 0,41,42
 120 177 120 177 162 121.5 c 128,-1,43
 204 66 204 66 269 66 c 0,44,45
 338 66 338 66 377 121.5 c 128,-1,46
 416 177 416 177 416 275 c 0,47,48
 416 369 416 369 376 425.5 c 128,-1,49
 336 482 336 482 270 482 c 0,50,51
 203 482 203 482 161.5 424.5 c 128,-1,52
 120 367 120 367 120 274 c 0,41,42
EndSplineSet
EndChar

StartChar: uni0262
Encoding: 610 610 534
Width: 572
GlyphClass: 2
Flags: W
LayerCount: 2
Fore
SplineSet
43 263 m 0,0,1
 43 391 43 391 110.5 468.5 c 128,-1,2
 178 546 178 546 296 546 c 0,3,4
 426 546 426 546 494 426 c 1,5,-1
 431 399 l 1,6,7
 378 481 378 481 296 481 c 0,8,9
 215 481 215 481 167.5 422 c 128,-1,10
 120 363 120 363 120 263 c 256,11,12
 120 163 120 163 167 105 c 128,-1,13
 214 47 214 47 294 47 c 0,14,15
 363 47 363 47 402.5 89 c 128,-1,16
 442 131 442 131 442 189 c 2,17,-1
 442 226 l 1,18,-1
 283 226 l 1,19,-1
 283 288 l 1,20,-1
 512 288 l 1,21,-1
 512 0 l 1,22,-1
 454 0 l 1,23,-1
 451 71 l 1,24,25
 435 35 435 35 392.5 8.5 c 128,-1,26
 350 -18 350 -18 290 -18 c 0,27,28
 179 -18 179 -18 111 56.5 c 128,-1,29
 43 131 43 131 43 263 c 0,0,1
EndSplineSet
EndChar

StartChar: uni0263
Encoding: 611 611 535
Width: 496
GlyphClass: 2
Flags: W
LayerCount: 2
Fore
SplineSet
8 528 m 1,0,-1
 91 528 l 1,1,-1
 236 139 l 1,2,-1
 246 108 l 1,3,-1
 247 108 l 1,4,-1
 259 137 l 1,5,-1
 404 528 l 1,6,-1
 488 528 l 1,7,-1
 298 56 l 1,8,9
 376 -32 376 -32 376 -103 c 0,10,11
 376 -160 376 -160 339.5 -197.5 c 128,-1,12
 303 -235 303 -235 247 -235 c 0,13,14
 193 -235 193 -235 157 -199 c 128,-1,15
 121 -163 121 -163 121 -103 c 0,16,17
 121 -37 121 -37 197 54 c 1,18,-1
 8 528 l 1,0,-1
184 -104 m 0,19,20
 184 -135 184 -135 201.5 -158 c 128,-1,21
 219 -181 219 -181 247 -181 c 0,22,23
 277 -181 277 -181 294.5 -158 c 128,-1,24
 312 -135 312 -135 312 -104 c 0,25,26
 312 -48 312 -48 247 24 c 1,27,28
 184 -42 184 -42 184 -104 c 0,19,20
EndSplineSet
Substitution2: "'sups' Superscript lookup 5 subtable" uni02E0
Substitution2: "'aalt' Access All Alternates lookup 0 subtable" uni02E0
EndChar

StartChar: uni0264
Encoding: 612 612 536
Width: 477
GlyphClass: 2
Flags: W
LayerCount: 2
Fore
SplineSet
238 344 m 1,0,1
 199 295 199 295 178.5 252 c 128,-1,2
 158 209 158 209 158 153 c 0,3,4
 158 106 158 106 180 76.5 c 128,-1,5
 202 47 202 47 241 47 c 0,6,7
 278 47 278 47 299 78.5 c 128,-1,8
 320 110 320 110 320 153 c 0,9,10
 320 208 320 208 300 250 c 128,-1,11
 280 292 280 292 238 344 c 1,0,1
28 476 m 1,12,-1
 28 539 l 1,13,14
 56 546 56 546 79 546 c 0,15,16
 128 546 128 546 162 522.5 c 128,-1,17
 196 499 196 499 238 451 c 1,18,19
 279 499 279 499 316 522.5 c 128,-1,20
 353 546 353 546 398 546 c 0,21,22
 424 546 424 546 449 540 c 1,23,-1
 449 475 l 1,24,25
 426 481 426 481 400 481 c 0,26,27
 367 481 367 481 341 461 c 128,-1,28
 315 441 315 441 284 401 c 1,29,30
 341 332 341 332 368.5 278 c 128,-1,31
 396 224 396 224 396 152 c 0,32,33
 396 78 396 78 354.5 30 c 128,-1,34
 313 -18 313 -18 241 -18 c 0,35,36
 165 -18 165 -18 123 30.5 c 128,-1,37
 81 79 81 79 81 152 c 0,38,39
 81 203 81 203 100 252 c 128,-1,40
 119 301 119 301 138 328.5 c 128,-1,41
 157 356 157 356 194 401 c 1,42,43
 165 441 165 441 138 461 c 128,-1,44
 111 481 111 481 77 481 c 0,45,46
 68 481 68 481 28 476 c 1,12,-1
EndSplineSet
EndChar

StartChar: uni0265
Encoding: 613 613 537
Width: 569
GlyphClass: 2
Flags: W
LayerCount: 2
Fore
SplineSet
74 186 m 2,0,-1
 74 528 l 1,1,-1
 149 528 l 1,2,-1
 149 198 l 2,3,4
 149 46 149 46 261 46 c 0,5,6
 320 46 320 46 364.5 96.5 c 128,-1,7
 409 147 409 147 409 215 c 2,8,-1
 409 528 l 1,9,-1
 485 528 l 1,10,-1
 485 -231 l 1,11,-1
 409 -231 l 1,12,-1
 409 85 l 1,13,-1
 408 85 l 1,14,15
 390 44 390 44 346.5 13 c 128,-1,16
 303 -18 303 -18 245 -18 c 0,17,18
 172 -18 172 -18 123 28 c 128,-1,19
 74 74 74 74 74 186 c 2,0,-1
EndSplineSet
EndChar

StartChar: uni0266
Encoding: 614 614 538
Width: 569
GlyphClass: 2
Flags: W
LayerCount: 2
Fore
SplineSet
84 0 m 1,0,-1
 84 602 l 2,1,2
 84 682 84 682 132.5 725 c 128,-1,3
 181 768 181 768 255 768 c 0,4,5
 304 768 304 768 356 761 c 1,6,-1
 356 697 l 1,7,8
 315 703 315 703 267 703 c 0,9,10
 215 703 215 703 187.5 668 c 128,-1,11
 160 633 160 633 160 589 c 2,12,-1
 160 443 l 1,13,-1
 161 443 l 1,14,15
 181 485 181 485 224 515.5 c 128,-1,16
 267 546 267 546 324 546 c 0,17,18
 496 546 496 546 496 341 c 2,19,-1
 496 0 l 1,20,-1
 420 0 l 1,21,-1
 420 329 l 2,22,23
 420 482 420 482 310 482 c 0,24,25
 249 482 249 482 204.5 432 c 128,-1,26
 160 382 160 382 160 313 c 2,27,-1
 160 0 l 1,28,-1
 84 0 l 1,0,-1
EndSplineSet
Substitution2: "'sups' Superscript lookup 5 subtable" uni02B1
Substitution2: "'aalt' Access All Alternates lookup 0 subtable" uni02B1
EndChar

StartChar: uni0267
Encoding: 615 615 539
Width: 574
GlyphClass: 2
Flags: W
LayerCount: 2
Fore
SplineSet
84 0 m 1,0,-1
 84 601 l 2,1,2
 84 682 84 682 132.5 725 c 128,-1,3
 181 768 181 768 255 768 c 0,4,5
 304 768 304 768 356 761 c 1,6,-1
 356 697 l 1,7,8
 315 703 315 703 267 703 c 0,9,10
 214 703 214 703 187 668 c 128,-1,11
 160 633 160 633 160 585 c 2,12,-1
 160 443 l 1,13,-1
 161 443 l 1,14,15
 181 485 181 485 224 515.5 c 128,-1,16
 267 546 267 546 324 546 c 0,17,18
 496 546 496 546 496 341 c 2,19,-1
 496 -49 l 2,20,21
 496 -141 496 -141 458.5 -188 c 128,-1,22
 421 -235 421 -235 335 -235 c 0,23,24
 326 -235 326 -235 314 -234.5 c 128,-1,25
 302 -234 302 -234 287.5 -233 c 128,-1,26
 273 -232 273 -232 265 -232 c 1,27,-1
 265 -169 l 1,28,29
 304 -171 304 -171 322 -171 c 0,30,31
 373 -171 373 -171 396.5 -143.5 c 128,-1,32
 420 -116 420 -116 420 -46 c 2,33,-1
 420 329 l 2,34,35
 420 482 420 482 310 482 c 0,36,37
 250 482 250 482 205 431 c 128,-1,38
 160 380 160 380 160 313 c 2,39,-1
 160 0 l 1,40,-1
 84 0 l 1,0,-1
EndSplineSet
EndChar

StartChar: uni0268
Encoding: 616 616 540
Width: 270
GlyphClass: 2
Flags: W
LayerCount: 2
Fore
SplineSet
87 647 m 1,0,-1
 87 745 l 1,1,-1
 184 745 l 1,2,-1
 184 647 l 1,3,-1
 87 647 l 1,0,-1
13 262 m 1,4,-1
 13 323 l 1,5,-1
 98 323 l 1,6,-1
 98 528 l 1,7,-1
 174 528 l 1,8,-1
 174 323 l 1,9,-1
 257 323 l 1,10,-1
 257 262 l 1,11,-1
 174 262 l 1,12,-1
 174 0 l 1,13,-1
 98 0 l 1,14,-1
 98 262 l 1,15,-1
 13 262 l 1,4,-1
EndSplineSet
EndChar

StartChar: uni0269
Encoding: 617 617 541
Width: 327
GlyphClass: 2
Flags: W
LayerCount: 2
Fore
SplineSet
77 145 m 2,0,-1
 77 528 l 1,1,-1
 152 528 l 1,2,-1
 152 149 l 2,3,4
 152 49 152 49 233 49 c 0,5,6
 273 49 273 49 304 54 c 1,7,-1
 304 -11 l 1,8,9
 249 -18 249 -18 219 -18 c 0,10,11
 152 -18 152 -18 114.5 23 c 128,-1,12
 77 64 77 64 77 145 c 2,0,-1
EndSplineSet
EndChar

StartChar: uni026B
Encoding: 619 619 543
Width: 251
GlyphClass: 2
Flags: W
LayerCount: 2
Fore
SplineSet
-16 365 m 1,0,-1
 -16 429 l 1,1,2
 26 444 26 444 55 444 c 0,3,4
 70 444 70 444 87 440 c 1,5,-1
 87 762 l 1,6,-1
 163 762 l 1,7,-1
 163 425 l 1,8,9
 181 422 181 422 200 422 c 0,10,11
 205 422 205 422 210 422 c 0,12,13
 240 423 240 423 267 436 c 1,14,-1
 267 371 l 1,15,16
 242 359 242 359 211 358 c 0,17,18
 208 358 208 358 204 358 c 0,19,20
 186 358 186 358 163 362 c 1,21,-1
 163 0 l 1,22,-1
 87 0 l 1,23,-1
 87 376 l 1,24,25
 70 380 70 380 55 380 c 0,26,27
 26 380 26 380 -16 365 c 1,0,-1
EndSplineSet
EndChar

StartChar: uni026C
Encoding: 620 620 544
Width: 438
GlyphClass: 2
Flags: W
LayerCount: 2
Fore
SplineSet
40 415 m 0,0,1
 40 461 40 461 72 494.5 c 128,-1,2
 104 528 104 528 158 528 c 0,3,4
 192 528 192 528 221 512 c 128,-1,5
 250 496 250 496 265 475 c 1,6,-1
 265 762 l 1,7,-1
 341 762 l 1,8,-1
 341 348 l 1,9,-1
 447 348 l 1,10,-1
 447 288 l 1,11,-1
 341 288 l 1,12,-1
 341 0 l 1,13,-1
 265 0 l 1,14,-1
 265 288 l 1,15,-1
 201 288 l 2,16,17
 133 288 133 288 86.5 322 c 128,-1,18
 40 356 40 356 40 415 c 0,0,1
116 415 m 0,19,20
 116 386 116 386 141.5 367 c 128,-1,21
 167 348 167 348 200 348 c 2,22,-1
 264 348 l 1,23,-1
 263 372 l 2,24,25
 262 409 262 409 231 436.5 c 128,-1,26
 200 464 200 464 166 464 c 0,27,28
 144 464 144 464 130 450 c 128,-1,29
 116 436 116 436 116 415 c 0,19,20
EndSplineSet
EndChar

StartChar: uni026D
Encoding: 621 621 545
Width: 335
GlyphClass: 2
Flags: W
LayerCount: 2
Fore
SplineSet
86 -73 m 2,0,-1
 86 762 l 1,1,-1
 162 762 l 1,2,-1
 162 -70 l 2,3,4
 162 -169 162 -169 241 -169 c 0,5,6
 276 -169 276 -169 313 -163 c 1,7,-1
 313 -228 l 1,8,9
 258 -235 258 -235 229 -235 c 0,10,11
 162 -235 162 -235 124 -194.5 c 128,-1,12
 86 -154 86 -154 86 -73 c 2,0,-1
EndSplineSet
EndChar

StartChar: uni026E
Encoding: 622 622 546
Width: 645
GlyphClass: 2
Flags: W
LayerCount: 2
Fore
SplineSet
148 -137 m 1,0,-1
 212 -113 l 1,1,2
 262 -171 262 -171 340 -171 c 0,3,4
 426 -171 426 -171 473 -122 c 128,-1,5
 520 -73 520 -73 520 3 c 0,6,7
 520 82 520 82 468.5 130 c 128,-1,8
 417 178 417 178 322 178 c 2,9,-1
 239 178 l 1,10,-1
 239 229 l 1,11,-1
 460 464 l 1,12,-1
 160 464 l 1,13,-1
 160 0 l 1,14,-1
 84 0 l 1,15,-1
 84 762 l 1,16,-1
 160 762 l 1,17,-1
 160 528 l 1,18,-1
 569 528 l 1,19,-1
 569 480 l 1,20,-1
 334 232 l 1,21,-1
 347 232 l 2,22,23
 456 232 456 232 526.5 169 c 128,-1,24
 597 106 597 106 597 3 c 0,25,26
 597 -102 597 -102 527.5 -168.5 c 128,-1,27
 458 -235 458 -235 342 -235 c 0,28,29
 210 -235 210 -235 148 -137 c 1,0,-1
EndSplineSet
EndChar

StartChar: uni026F
Encoding: 623 623 547
Width: 833
GlyphClass: 2
Flags: W
LayerCount: 2
Fore
SplineSet
73 185 m 2,0,-1
 73 528 l 1,1,-1
 148 528 l 1,2,-1
 148 192 l 2,3,4
 148 116 148 116 168.5 81 c 128,-1,5
 189 46 189 46 243 46 c 0,6,7
 300 46 300 46 338 93 c 128,-1,8
 376 140 376 140 376 213 c 2,9,-1
 376 528 l 1,10,-1
 451 528 l 1,11,-1
 451 190 l 2,12,13
 451 46 451 46 548 46 c 0,14,15
 607 46 607 46 643 91 c 128,-1,16
 679 136 679 136 679 209 c 2,17,-1
 679 528 l 1,18,-1
 755 528 l 1,19,-1
 755 0 l 1,20,-1
 681 0 l 1,21,-1
 681 79 l 1,22,-1
 680 79 l 1,23,24
 674 66 674 66 665 51.5 c 128,-1,25
 656 37 656 37 639 20 c 128,-1,26
 622 3 622 3 594 -7.5 c 128,-1,27
 566 -18 566 -18 533 -18 c 0,28,29
 434 -18 434 -18 395 100 c 1,30,31
 394 91 394 91 384 74.5 c 128,-1,32
 374 58 374 58 355 36 c 128,-1,33
 336 14 336 14 301.5 -2 c 128,-1,34
 267 -18 267 -18 226 -18 c 0,35,36
 143 -18 143 -18 108 34.5 c 128,-1,37
 73 87 73 87 73 185 c 2,0,-1
EndSplineSet
EndChar

StartChar: uni0270
Encoding: 624 624 548
Width: 857
GlyphClass: 2
Flags: W
LayerCount: 2
Fore
SplineSet
73 185 m 2,0,-1
 73 528 l 1,1,-1
 148 528 l 1,2,-1
 148 192 l 2,3,4
 148 120 148 120 168 83 c 128,-1,5
 188 46 188 46 242 46 c 0,6,7
 300 46 300 46 338 93.5 c 128,-1,8
 376 141 376 141 376 213 c 2,9,-1
 376 528 l 1,10,-1
 451 528 l 1,11,-1
 451 190 l 2,12,13
 451 46 451 46 548 46 c 0,14,15
 607 46 607 46 643 91 c 128,-1,16
 679 136 679 136 679 209 c 2,17,-1
 679 528 l 1,18,-1
 755 528 l 1,19,-1
 755 -231 l 1,20,-1
 681 -231 l 1,21,-1
 681 79 l 1,22,-1
 680 79 l 1,23,24
 663 40 663 40 627 11 c 128,-1,25
 591 -18 591 -18 533 -18 c 0,26,27
 434 -18 434 -18 395 100 c 1,28,29
 383 61 383 61 339 21.5 c 128,-1,30
 295 -18 295 -18 226 -18 c 0,31,32
 73 -18 73 -18 73 185 c 2,0,-1
EndSplineSet
EndChar

